<svg width="93" height="28" viewBox="0 0 93 28" fill="none" xmlns="http://www.w3.org/2000/svg">
<path fill-rule="evenodd" clip-rule="evenodd" d="M19.0132 9.32899L23.949 4.39349C22.0539 2.36389 19.5919 0.951392 16.8832 0.339792C14.1745 -0.271808 11.3445 -0.0543092 8.7611 0.964191C6.1777 1.98259 3.9606 3.75479 2.3981 6.05029C0.8356 8.34579 0 11.0583 0 13.835C0 16.6117 0.8356 19.3242 2.3981 21.6197C3.9606 23.9152 6.1777 25.6874 8.7611 26.7058C11.3445 27.7243 14.1745 27.9418 16.8832 27.3302C19.5919 26.7186 22.0539 25.3061 23.949 23.2765L19.0132 18.3424C17.5631 20.0075 15.935 20.7269 13.7171 20.6799C12.9375 20.6651 12.1714 20.4737 11.4764 20.1201C10.7556 19.754 10.7314 18.6743 11.5818 18.5632C12.3666 18.4566 13.1235 18.1998 13.8111 17.8069C14.2755 18.0804 15.3994 18.4293 16.0404 18.5675C16.7732 18.2738 17.429 17.8163 17.9577 17.23C17.2127 17.5149 15.2327 17.146 14.5319 16.7657V15.1988L16.0176 13.7374H12.3952V10.6693C12.3959 10.4092 12.2999 10.158 12.1259 9.96459C11.952 9.77119 11.7124 9.64919 11.4536 9.62239L8.6688 9.32609C9.312 8.58589 10.1065 7.99229 10.9988 7.58559C11.8911 7.17879 12.8604 6.96829 13.841 6.96829C14.8216 6.96829 15.7909 7.17879 16.6832 7.58559C17.5755 7.99229 18.37 8.58589 19.0132 9.32609L16.066 12.2732V10.6351C16.065 10.3795 16.1576 10.1323 16.3264 9.94029C16.4951 9.74819 16.7283 9.62449 16.9819 9.59249L19.0132 9.32609V9.32899ZM10.4095 14.4567H12.3382L13.0946 15.2003C13.0946 15.5877 13.0946 16.2073 13.0946 16.7671C12.3909 17.1488 10.3682 17.5163 9.6232 17.2243C8.7685 16.8725 8.0962 14.3442 10.4109 14.461L10.4095 14.4567ZM10.7912 13.1933C9.5591 13.1933 8.1175 12.1464 8.1175 10.8374L10.7927 11.1223L10.7912 13.1933Z" fill="url(#paint0_linear_919_62)"/>
<path fill-rule="evenodd" clip-rule="evenodd" d="M32.0755 14.6178C32.697 14.6257 33.3115 14.4866 33.8689 14.2119C34.3772 13.9746 34.8208 13.6184 35.1623 13.1735L33.8689 11.9186C33.3874 12.4755 32.8405 12.749 32.208 12.749C31.9854 12.754 31.7641 12.7131 31.558 12.6288C31.3519 12.5445 31.1653 12.4186 31.01 12.259C30.7006 11.9236 30.5288 11.484 30.5288 11.0277C30.5288 10.5713 30.7006 10.1317 31.01 9.79628C31.1662 9.63438 31.3541 9.50648 31.5619 9.42048C31.7697 9.33448 31.9931 9.29218 32.218 9.29628C32.7877 9.29628 33.3404 9.55978 33.8404 10.0883L35.0669 8.75788C34.4159 7.93748 33.3305 7.41758 32.0855 7.41758C31.6107 7.40578 31.1384 7.49088 30.6976 7.66778C30.2567 7.84458 29.8566 8.10938 29.5215 8.44598C28.832 9.12538 28.483 9.99428 28.483 11.0512C28.483 12.1081 28.8221 12.957 29.5015 13.6264C29.8414 13.9544 30.2432 14.2114 30.6834 14.3826C31.1235 14.5537 31.5934 14.6356 32.0655 14.6235L32.0755 14.6178ZM42.3188 14.5138L39.9129 7.53438H37.997L35.5142 14.5138H37.5255L37.8745 13.3743H39.9784L40.3089 14.5138H42.3188ZM38.346 11.6836L38.95 9.75778L39.5354 11.6836H38.346ZM45.37 14.5138V11.4984L46.9554 13.6791H47.7203L49.3058 11.4984V14.5181H51.2502V7.53858H49.7203L47.3429 10.923L44.9555 7.54428H43.4398V14.5238L45.37 14.5138ZM57.5007 10.6823C57.7865 10.5701 58.0315 10.374 58.2034 10.1196C58.3754 9.86528 58.4661 9.56478 58.4636 9.25788C58.4645 9.02888 58.4159 8.80248 58.3213 8.59408C58.2267 8.38558 58.0881 8.19998 57.9152 8.04998C57.5477 7.71098 57.0382 7.54098 56.3868 7.54008H52.9994V14.5195H56.5605C57.2315 14.5195 57.7785 14.3315 58.2029 13.9498C58.4102 13.7619 58.5741 13.5313 58.6833 13.2737C58.7925 13.0162 58.8444 12.738 58.8354 12.4585C58.8354 11.591 58.3724 10.8916 57.505 10.6936L57.5007 10.6823ZM56.0093 9.18238C56.0775 9.17738 56.1461 9.18668 56.2105 9.20968C56.275 9.23268 56.334 9.26888 56.3837 9.31588C56.4334 9.36298 56.4728 9.41978 56.4993 9.48288C56.5258 9.54598 56.5389 9.61388 56.5377 9.68228C56.5377 9.94728 56.3497 10.1738 55.9252 10.1738H54.9281V9.17668L56.0093 9.18238ZM54.9238 12.853V11.7135H56.1888C56.5947 11.7135 56.8112 11.967 56.8112 12.2833C56.8112 12.5995 56.6047 12.853 56.1232 12.853H54.9238ZM66.13 14.5138L64.7056 11.9941C65.5275 11.5796 65.905 10.7862 65.905 9.90878C65.9148 9.59458 65.8604 9.28168 65.745 8.98918C65.6297 8.69678 65.4558 8.43098 65.2341 8.20808C64.7911 7.76508 64.1301 7.54718 63.2626 7.54718H60.2228V14.5267H62.1857V12.3388H62.7883L63.8937 14.5181L66.13 14.5138ZM63.2398 9.32768C63.3264 9.32258 63.413 9.33598 63.494 9.36708C63.5749 9.39818 63.6482 9.44628 63.7091 9.50808C63.7699 9.56988 63.8168 9.64388 63.8467 9.72528C63.8766 9.80668 63.8887 9.89358 63.8823 9.97998C63.8823 10.3475 63.6558 10.6395 63.1928 10.6395H62.1857V9.32768H63.2398ZM67.4434 14.5181H69.4248V7.53858H67.4448V14.5181H67.4434ZM74.0629 14.5181C75.1749 14.5181 76.0429 14.2066 76.6668 13.5837C77.2992 12.9613 77.6112 12.1123 77.6112 11.0369C77.6112 9.96148 77.2992 9.10118 76.6767 8.47298C76.0543 7.84488 75.1953 7.53858 74.0814 7.53858H71.1755V14.5181H74.0629ZM73.1384 9.43158H74.1569C74.3567 9.41948 74.5564 9.45618 74.7388 9.53858C74.9213 9.62098 75.0809 9.74658 75.2038 9.90448C75.454 10.2242 75.5846 10.6212 75.5728 11.027C75.5859 11.4381 75.4555 11.841 75.2038 12.1665C75.0808 12.3242 74.9212 12.4496 74.7387 12.5318C74.5563 12.6139 74.3566 12.6504 74.1569 12.6379H73.1398V9.43158H73.1384ZM82.439 14.6178C83.637 14.6178 84.704 14.1834 85.637 13.3245V10.225H82.47V11.8859H83.876V12.3003C83.602 12.5368 83.036 12.7533 82.47 12.7533C82.232 12.7663 81.995 12.7275 81.773 12.6397C81.552 12.5519 81.352 12.4172 81.188 12.2448C80.879 11.9077 80.711 11.4655 80.717 11.0084C80.711 10.7851 80.751 10.5629 80.834 10.3554C80.917 10.1478 81.041 9.95908 81.198 9.80058C81.363 9.63508 81.561 9.50538 81.779 9.41938C81.996 9.33338 82.229 9.29288 82.463 9.30058C83.013 9.30298 83.544 9.49978 83.963 9.85608L85.189 8.37478C84.434 7.73698 83.471 7.39798 82.483 7.42178C81.397 7.42178 80.501 7.76228 79.776 8.44168C79.051 9.12108 78.701 9.97998 78.701 11.0369C78.687 11.5146 78.772 11.9899 78.951 12.433C79.13 12.8762 79.398 13.2776 79.739 13.6122C80.437 14.2831 81.333 14.6221 82.429 14.6221L82.439 14.6178ZM92.342 14.5138V12.7063H89.124V11.9329H92.115V10.131H89.124V9.35618H92.36V7.54428H87.141V14.5238L92.342 14.5138Z" fill="#2C1F82"/>
<path fill-rule="evenodd" clip-rule="evenodd" d="M31.2336 20.1257V19.4349H29.8405V17.2556H29.1097V20.1257H31.2336ZM33.8304 20.1257V19.4605H32.49V19.0332H33.7321V18.3652H32.49V17.9379H33.8332V17.2655H31.7592V20.1357L33.8304 20.1257ZM36.9799 20.1257L35.9585 17.2556H35.2833L34.2349 20.1257H34.9842L35.1551 19.6015H36.0682L36.2349 20.1257H36.9799ZM35.3375 18.972L35.6224 18.1173L35.8944 18.972H35.3375ZM39.8174 20.1257L39.1949 19.0617C39.3567 18.9867 39.4928 18.8655 39.586 18.7135C39.6793 18.5615 39.7256 18.3853 39.7191 18.2071C39.7234 18.0815 39.7018 17.9564 39.6557 17.8395C39.6097 17.7227 39.5401 17.6165 39.4513 17.5276C39.3462 17.4312 39.2224 17.3574 39.0877 17.3106C38.953 17.2638 38.8101 17.2451 38.6679 17.2556H37.4713V20.1257H38.1978V19.1756H38.4827L38.9869 20.1271L39.8174 20.1257ZM38.6593 17.9208C39.0639 17.8894 39.098 18.5646 38.6322 18.5418H38.1978V17.9208H38.6593ZM42.2333 18.8124L40.9057 17.2556H40.3858V20.1257H41.098V18.5874L42.4028 20.1257H42.9512V17.2556H42.239V18.8124H42.2333ZM43.7062 20.1257H44.4369V17.2556H43.7062V20.1257ZM47.0437 18.8124L45.7189 17.2556H45.199V20.1257H45.9112V18.5874L47.2146 20.1257H47.763V17.2556H47.0508V18.8124H47.0437ZM49.8926 20.1684C50.1375 20.1698 50.3802 20.122 50.6063 20.0278C50.8324 19.9336 51.0373 19.7949 51.2088 19.62V18.378H49.8997V18.999H50.5521V19.2483C50.3708 19.3974 50.1431 19.4786 49.9083 19.4776C49.8022 19.4812 49.6965 19.4622 49.5983 19.4219C49.5001 19.3817 49.4115 19.321 49.3385 19.244C49.1963 19.0932 49.1186 18.8929 49.122 18.6857C49.1188 18.5811 49.1371 18.477 49.1759 18.3799C49.2146 18.2827 49.273 18.1946 49.3473 18.121C49.4215 18.0474 49.5102 17.9898 49.6077 17.9519C49.7052 17.9141 49.8094 17.8967 49.914 17.9008C50.1641 17.9009 50.4051 17.9949 50.5892 18.1643L51.0507 17.6245C50.739 17.3499 50.3365 17.2007 49.9211 17.2057C49.5126 17.1939 49.1162 17.3445 48.8186 17.6245C48.5402 17.9078 48.383 18.2882 48.38 18.6853C48.3771 19.0825 48.5287 19.4652 48.8029 19.7525C48.9484 19.8916 49.1203 20.0001 49.3084 20.0715C49.4966 20.143 49.6972 20.1759 49.8983 20.1684H49.8926ZM53.9537 20.1684C54.2081 20.1723 54.4596 20.1151 54.6873 20.0018C54.8952 19.9019 55.0775 19.7558 55.2201 19.5745L54.7386 19.113C54.6515 19.2262 54.5398 19.3182 54.412 19.3821C54.2842 19.446 54.1436 19.4801 54.0007 19.4819C53.8986 19.4841 53.7971 19.4655 53.7023 19.4273C53.6076 19.3891 53.5215 19.3321 53.4495 19.2597C53.377 19.1863 53.32 19.099 53.2821 19.003C53.2442 18.9071 53.226 18.8045 53.2287 18.7013C53.2253 18.5964 53.2432 18.4919 53.2811 18.394C53.319 18.2961 53.3763 18.2069 53.4495 18.1316C53.5216 18.0578 53.6082 17.9998 53.7037 17.9611C53.7993 17.9223 53.9019 17.9038 54.005 17.9065C54.1438 17.9116 54.28 17.9461 54.4045 18.0077C54.529 18.0694 54.639 18.1567 54.7272 18.264L55.1887 17.7783C55.0408 17.5955 54.853 17.4491 54.6396 17.3504C54.4262 17.2516 54.1931 17.2031 53.958 17.2086C53.7614 17.2048 53.5661 17.241 53.3839 17.315C53.2017 17.3889 53.0364 17.4991 52.898 17.6388C52.7597 17.7785 52.6511 17.9448 52.5789 18.1277C52.5067 18.3106 52.4724 18.5062 52.478 18.7027C52.4715 18.8996 52.5061 19.0957 52.5797 19.2784C52.6533 19.4611 52.7642 19.6265 52.9053 19.7639C53.0449 19.898 53.2097 20.003 53.3901 20.0729C53.5706 20.1429 53.7631 20.1763 53.9566 20.1713L53.9537 20.1684ZM57.8197 20.1257V19.4605H56.4793V19.0332H57.7228V18.3652H56.4793V17.9379H57.8226V17.2655H55.7457V20.1357L57.8197 20.1257ZM60.3495 18.8124L59.0205 17.2556H58.4963V20.1257H59.2086V18.5874L60.5134 20.1257H61.0604V17.2556H60.3481V18.8124H60.3495ZM62.3851 20.1257H63.1187V17.9549H63.9107V17.2556H61.5888V17.9549H62.3851V20.1257ZM66.516 20.1257V19.4605H65.1756V19.0332H66.4192V18.3652H65.1756V17.9379H66.516V17.2655H64.4406V20.1357L66.516 20.1257ZM69.543 20.1257L68.9205 19.0617C69.0824 18.9868 69.2186 18.8657 69.3119 18.7136C69.4051 18.5616 69.4514 18.3853 69.4447 18.2071C69.449 18.0815 69.4274 17.9564 69.3813 17.8395C69.3353 17.7227 69.2657 17.6165 69.1769 17.5276C69.0718 17.4312 68.9481 17.3574 68.8133 17.3106C68.6786 17.2638 68.5357 17.2451 68.3935 17.2556H67.1969V20.1257H67.9234V19.1756H68.2083L68.7125 20.1271L69.543 20.1257ZM68.3849 17.9208C68.7895 17.8894 68.8236 18.5646 68.3578 18.5418H67.9305V17.9208H68.3849Z" fill="#2C1F82"/>
<defs>
<linearGradient id="paint0_linear_919_62" x1="11.9208" y1="16.0278" x2="21.5439" y2="5.00119" gradientUnits="userSpaceOnUse">
<stop stop-color="#2C1F82"/>
<stop offset="1" stop-color="#00A6E8"/>
</linearGradient>
</defs>
</svg>
