<svg width="208" height="208" viewBox="0 0 208 208" fill="none" xmlns="http://www.w3.org/2000/svg">
<path opacity="0.1" d="M95.7802 196.823L15.2635 150.335C14.0987 149.648 14.2443 148.463 15.5963 147.694L67.2634 117.866C68.6154 117.076 70.6746 116.992 71.8394 117.679L152.356 164.167C153.521 164.832 153.376 166.018 152.024 166.808L100.356 196.636C99.0042 197.426 96.9447 197.51 95.7802 196.823Z" fill="#020230"/>
<path d="M173.745 75.3345L93.5605 29.0337C93.0618 28.7425 92.4795 28.6385 91.9178 28.8049L90.4405 29.3249L90.9605 29.4497C90.732 29.7201 90.5658 30.0321 90.4618 30.3649L72.324 89.2494C71.8664 90.7054 72.5319 92.4734 73.8007 93.2014L153.985 139.503C154.172 139.607 154.36 139.689 154.568 139.752L154.36 140.189L155.774 139.689C156.418 139.419 156.897 138.857 157.064 138.192L175.201 79.3072C175.658 77.8307 175.014 76.0627 173.745 75.3345Z" fill="url(#paint0_linear_1_888)"/>
<path d="M151.107 141.704L151.127 141.746L71.9207 96.0064C70.7559 95.3414 68.7175 95.4242 67.3655 96.1939L16.1975 125.73L14.4919 125.085L14.9703 127.477C15.0743 127.893 15.3447 128.246 15.7399 128.434L95.6747 174.589C96.8392 175.254 98.8775 175.172 100.229 174.402L151.543 144.782C152.167 144.408 152.541 143.972 152.625 143.514L153.103 141.184L151.107 141.704Z" fill="url(#paint1_linear_1_888)"/>
<path d="M95.7802 172.485L15.2635 125.997C14.0987 125.311 14.2443 124.125 15.5963 123.355L67.2634 93.5279C68.6154 92.7376 70.6746 92.6549 71.8394 93.3411L152.356 139.829C153.521 140.495 153.376 141.68 152.024 142.471L100.356 172.298C99.0042 173.067 96.9447 173.151 95.7802 172.485Z" fill="url(#paint2_linear_1_888)"/>
<path d="M152.032 141.826L100.365 171.653C99.0125 172.444 96.9538 172.527 95.7885 171.841L15.2721 125.373C14.9393 125.207 14.6689 124.895 14.5441 124.541C14.3777 125.082 14.6065 125.623 15.2721 125.997L95.7885 172.485C96.9538 173.172 99.0125 173.068 100.365 172.298L152.032 142.45C152.926 141.93 153.28 141.244 153.093 140.641C152.968 141.077 152.636 141.493 152.032 141.826Z" fill="white"/>
<g opacity="0.4">
<path d="M53.6642 118.449L50.9394 116.889C50.7106 116.765 50.7522 116.535 51.0018 116.39L54.205 114.539C54.4754 114.393 54.7874 114.373 55.0578 114.497L57.7826 116.057C57.9906 116.182 57.9698 116.411 57.7202 116.557L54.517 118.407C54.2466 118.574 53.9346 118.574 53.6642 118.449Z" fill="#06033E"/>
<path d="M57.8661 120.886L55.1413 119.326C54.9333 119.201 54.9541 118.973 55.2037 118.827L58.4069 116.976C58.6773 116.83 58.9893 116.809 59.2597 116.934L61.9845 118.494C62.1925 118.619 62.1717 118.848 61.9221 118.993L58.7189 120.845C58.4485 120.99 58.1365 121.011 57.8661 120.886Z" fill="#06033E"/>
<path d="M62.0613 123.294L59.3365 121.734C59.1285 121.609 59.1493 121.381 59.3989 121.235L62.6021 119.384C62.8725 119.238 63.1845 119.217 63.4549 119.342L66.1797 120.902C66.3877 121.027 66.3669 121.256 66.1173 121.401L62.9141 123.253C62.6437 123.419 62.3317 123.419 62.0613 123.294Z" fill="#06033E"/>
<path d="M67.867 121.297L65.1422 119.737C64.9342 119.612 64.955 119.383 65.2046 119.238L67.9086 117.678C68.179 117.532 68.491 117.511 68.7614 117.636L71.4862 119.196C71.6942 119.321 71.6734 119.55 71.4238 119.695L68.7198 121.255C68.4494 121.401 68.1374 121.422 67.867 121.297Z" fill="#06033E"/>
<path d="M72.0774 123.733L69.3526 122.152C69.1446 122.027 69.1654 121.798 69.415 121.653L72.119 120.093C72.3894 119.947 72.7014 119.926 72.9718 120.051L75.6966 121.611C75.9046 121.736 75.8838 121.965 75.6342 122.11L72.9302 123.67C72.6598 123.837 72.3478 123.858 72.0774 123.733Z" fill="#06033E"/>
<path d="M76.2578 126.142L73.5329 124.582C73.3249 124.458 73.3457 124.228 73.5953 124.083L76.2996 122.523C76.5698 122.378 76.8818 122.356 77.1521 122.482L79.8773 124.042C80.0853 124.166 80.0641 124.395 79.8143 124.54L77.1103 126.1C76.8613 126.267 76.5493 126.267 76.2578 126.142Z" fill="#06033E"/>
<path d="M80.4535 128.58L77.7283 127.02C77.5203 126.895 77.5415 126.666 77.7913 126.52L80.474 124.96C80.7443 124.815 81.0563 124.794 81.3273 124.919L84.0518 126.479C84.2598 126.604 84.2393 126.832 83.9895 126.978L81.2855 128.538C81.0563 128.684 80.7238 128.704 80.4535 128.58Z" fill="#06033E"/>
<path d="M84.6492 130.995L81.9239 129.435C81.7159 129.31 81.7372 129.081 81.9862 128.936L84.6902 127.376C84.9612 127.23 85.2732 127.209 85.5434 127.334L88.2679 128.894C88.4759 129.019 88.4554 129.248 88.2057 129.393L85.5017 130.953C85.2314 131.12 84.9194 131.12 84.6492 130.995Z" fill="#06033E"/>
<path d="M88.8592 133.425L86.134 131.865C85.926 131.741 85.9472 131.511 86.1962 131.366L88.9002 129.806C89.1712 129.661 89.4832 129.639 89.7535 129.765L92.478 131.325C92.686 131.449 92.6655 131.678 92.4157 131.823L89.7322 133.383C89.4415 133.529 89.1295 133.55 88.8592 133.425Z" fill="#06033E"/>
<path d="M93.0542 135.841L90.3297 134.281C90.1217 134.155 90.1422 133.927 90.3919 133.781L93.0959 132.221C93.3662 132.075 93.6782 132.055 93.9492 132.179L96.6737 133.739C96.8817 133.865 96.8612 134.093 96.6114 134.239L93.9074 135.799C93.6372 135.965 93.3252 135.965 93.0542 135.841Z" fill="#06033E"/>
<path d="M97.2651 138.271L94.5398 136.711C94.3318 136.586 94.3531 136.357 94.6028 136.211L97.3068 134.651C97.5771 134.506 97.8891 134.485 98.1593 134.61L100.884 136.17C101.092 136.295 101.071 136.523 100.822 136.669L98.1176 138.229C97.8473 138.375 97.5353 138.395 97.2651 138.271Z" fill="#06033E"/>
<path d="M101.446 140.686L98.7203 139.126C98.5123 139.001 98.5335 138.772 98.7825 138.627L101.487 137.067C101.758 136.921 102.07 136.9 102.34 137.025L105.064 138.585C105.272 138.71 105.252 138.939 105.002 139.084L102.298 140.644C102.048 140.811 101.716 140.811 101.446 140.686Z" fill="#06033E"/>
<path d="M105.64 143.116L102.916 141.556C102.708 141.431 102.728 141.202 102.978 141.057L105.682 139.497C105.952 139.351 106.264 139.33 106.535 139.455L109.26 141.015C109.468 141.14 109.447 141.369 109.197 141.514L106.493 143.074C106.223 143.22 105.911 143.241 105.64 143.116Z" fill="#06033E"/>
<path d="M74.0508 120.158L71.3468 118.577C71.1388 118.452 71.1596 118.224 71.4092 118.078L74.0924 116.518C74.3628 116.372 74.6748 116.352 74.9452 116.476L77.6698 118.036C77.8778 118.161 77.8573 118.39 77.6076 118.536L74.9244 120.096C74.654 120.262 74.3212 120.282 74.0508 120.158Z" fill="#06033E"/>
<path d="M69.7874 117.698L67.0626 116.117C66.8546 115.993 66.8754 115.764 67.125 115.618L69.829 114.058C70.0994 113.913 70.4114 113.892 70.6818 114.017L73.4066 115.577C73.6146 115.701 73.5938 115.93 73.3442 116.076L70.6402 117.636C70.3906 117.802 70.0786 117.823 69.7874 117.698Z" fill="#06033E"/>
<path d="M65.5212 115.225L59.6764 111.855C59.4684 111.731 59.4892 111.502 59.7388 111.356L62.4428 109.796C62.7132 109.651 63.0252 109.63 63.2956 109.755L69.1404 113.124C69.3484 113.249 69.3276 113.478 69.078 113.623L66.374 115.183C66.1036 115.35 65.7916 115.35 65.5212 115.225Z" fill="#06033E"/>
<path d="M68.5109 112.23L63.7685 109.485C63.5605 109.359 63.5813 109.131 63.8309 108.985L66.5349 107.425C66.8053 107.279 67.1173 107.259 67.3877 107.383L72.1301 110.129C72.3381 110.254 72.3173 110.483 72.0677 110.629L69.3637 112.189C69.0933 112.334 68.7813 112.355 68.5109 112.23Z" fill="#06033E"/>
<path d="M78.2521 122.567L75.5276 121.007C75.3196 120.882 75.3404 120.654 75.59 120.508L78.2938 118.948C78.5641 118.802 78.8761 118.782 79.1471 118.906L81.8716 120.466C82.0796 120.591 82.0591 120.82 81.8093 120.966L79.1053 122.526C78.8351 122.692 78.5231 122.692 78.2521 122.567Z" fill="#06033E"/>
<path d="M82.4477 125.005L79.7232 123.445C79.5152 123.32 79.5357 123.091 79.7855 122.945L82.4895 121.385C82.7597 121.24 83.0717 121.219 83.342 121.344L86.0672 122.904C86.2752 123.029 86.254 123.257 86.005 123.403L83.301 124.963C83.03 125.109 82.718 125.129 82.4477 125.005Z" fill="#06033E"/>
<path d="M86.6578 127.414L83.9333 125.854C83.7253 125.729 83.7458 125.501 83.9956 125.355L86.6791 123.815C86.9493 123.67 87.2613 123.649 87.5316 123.774L90.2561 125.334C90.4641 125.459 90.4436 125.687 90.1938 125.833L87.4898 127.393C87.2401 127.539 86.9281 127.559 86.6578 127.414Z" fill="#06033E"/>
<path d="M90.8535 129.85L88.129 128.29C87.921 128.165 87.9415 127.937 88.1912 127.791L90.8952 126.231C91.1655 126.085 91.4775 126.065 91.7477 126.189L94.473 127.749C94.681 127.874 94.6597 128.103 94.41 128.249L91.706 129.809C91.4152 129.954 91.1032 129.975 90.8535 129.85Z" fill="#06033E"/>
<path d="M95.034 132.28L92.3095 130.72C92.1015 130.595 92.122 130.367 92.3718 130.221L95.0758 128.661C95.346 128.515 95.658 128.495 95.929 128.619L98.6535 130.179C98.8615 130.304 98.841 130.533 98.5913 130.679L95.8873 132.239C95.6375 132.384 95.305 132.384 95.034 132.28Z" fill="#06033E"/>
<path d="M99.2441 134.696L96.5196 133.136C96.3116 133.011 96.3321 132.782 96.5819 132.636L99.2654 131.076C99.5356 130.931 99.8476 130.91 100.118 131.035L102.842 132.595C103.05 132.72 103.03 132.948 102.78 133.094L100.076 134.654C99.8264 134.8 99.5144 134.82 99.2441 134.696Z" fill="#06033E"/>
<path d="M103.439 137.126L100.715 135.566C100.507 135.441 100.527 135.212 100.777 135.066L103.481 133.506C103.751 133.361 104.063 133.34 104.333 133.465L107.037 135.046C107.245 135.17 107.225 135.4 106.975 135.545L104.271 137.105C104.021 137.23 103.709 137.25 103.439 137.126Z" fill="#06033E"/>
<path d="M107.635 139.541L104.91 137.981C104.702 137.856 104.723 137.628 104.972 137.482L107.676 135.922C107.947 135.776 108.259 135.756 108.529 135.88L111.254 137.44C111.462 137.565 111.441 137.794 111.191 137.94L108.508 139.5C108.217 139.645 107.905 139.666 107.635 139.541Z" fill="#06033E"/>
<path d="M111.845 141.971L109.12 140.411C108.912 140.286 108.933 140.058 109.183 139.912L111.887 138.352C112.157 138.206 112.469 138.186 112.74 138.31L115.444 139.87C115.652 139.995 115.631 140.224 115.381 140.37L112.677 141.93C112.428 142.075 112.116 142.075 111.845 141.971Z" fill="#06033E"/>
<path d="M119.288 146.281L113.36 142.849C113.152 142.724 113.173 142.495 113.422 142.349L116.126 140.789C116.397 140.644 116.709 140.623 116.979 140.748L122.907 144.18C123.115 144.305 123.094 144.533 122.845 144.679L120.162 146.239C119.891 146.385 119.558 146.405 119.288 146.281Z" fill="#06033E"/>
<path d="M127.458 141.559L122.445 138.668C122.237 138.543 122.258 138.315 122.508 138.169L125.212 136.609C125.482 136.463 125.794 136.443 126.064 136.567L131.077 139.459C131.285 139.583 131.264 139.812 131.014 139.957L128.332 141.517C128.061 141.663 127.749 141.684 127.458 141.559Z" fill="#06033E"/>
<path d="M85.5943 122.109L82.869 120.549C82.661 120.424 82.6823 120.196 82.932 120.05L85.636 118.49C85.9063 118.344 86.2183 118.324 86.4885 118.448L89.213 120.008C89.421 120.133 89.4005 120.362 89.1508 120.508L86.4468 122.068C86.197 122.213 85.885 122.234 85.5943 122.109Z" fill="#06033E"/>
<path d="M81.3105 119.613L78.5853 118.053C78.3773 117.928 78.3985 117.699 78.6475 117.553L81.3515 115.993C81.6225 115.848 81.9345 115.827 82.2048 115.952L84.9293 117.512C85.1373 117.637 85.1168 117.865 84.867 118.011L82.1835 119.571C81.8928 119.737 81.5808 119.737 81.3105 119.613Z" fill="#06033E"/>
<path d="M76.9964 117.138L74.2717 115.578C74.0637 115.454 74.0845 115.224 74.3341 115.079L77.0382 113.519C77.3084 113.374 77.6204 113.352 77.8907 113.478L80.6159 115.038C80.8239 115.162 80.8027 115.391 80.5529 115.536L77.8489 117.096C77.5787 117.242 77.2667 117.263 76.9964 117.138Z" fill="#06033E"/>
<path d="M72.6979 114.641L69.9731 113.081C69.7651 112.957 69.7859 112.728 70.0355 112.583L72.7395 111.023C73.0099 110.877 73.3219 110.856 73.5923 110.981L76.317 112.541C76.525 112.665 76.5045 112.895 76.2548 113.04L73.5507 114.6C73.2803 114.767 72.9683 114.767 72.6979 114.641Z" fill="#06033E"/>
<path d="M89.79 124.524L87.0648 122.964C86.8568 122.84 86.878 122.611 87.127 122.466L89.8105 120.906C90.0808 120.76 90.3928 120.739 90.663 120.864L93.3883 122.424C93.5963 122.548 93.575 122.778 93.326 122.923L90.622 124.483C90.3928 124.628 90.0603 124.65 89.79 124.524Z" fill="#06033E"/>
<path d="M94.0001 126.954L91.2756 125.394C91.0676 125.27 91.0881 125.041 91.3379 124.896L94.0419 123.336C94.3121 123.19 94.6241 123.169 94.8943 123.294L97.6196 124.854C97.8276 124.978 97.8063 125.208 97.5566 125.353L94.8526 126.913C94.5823 127.058 94.2703 127.08 94.0001 126.954Z" fill="#06033E"/>
<path d="M98.195 129.37L95.4705 127.81C95.2625 127.685 95.283 127.456 95.5328 127.311L98.2368 125.751C98.507 125.605 98.819 125.584 99.0901 125.709L101.815 127.269C102.023 127.394 102.002 127.623 101.752 127.768L99.0483 129.328C98.7781 129.474 98.466 129.495 98.195 129.37Z" fill="#06033E"/>
<path d="M102.391 131.8L99.6654 130.24C99.4574 130.115 99.4787 129.887 99.7284 129.741L102.411 128.181C102.681 128.035 102.993 128.015 103.264 128.139L105.989 129.699C106.197 129.824 106.176 130.053 105.927 130.199L103.223 131.759C102.973 131.904 102.661 131.925 102.391 131.8Z" fill="#06033E"/>
<path d="M106.601 134.215L103.876 132.655C103.668 132.531 103.689 132.302 103.938 132.157L106.642 130.597C106.913 130.451 107.225 130.43 107.495 130.555L110.22 132.135C110.428 132.261 110.407 132.489 110.157 132.635L107.474 134.195C107.183 134.319 106.871 134.341 106.601 134.215Z" fill="#06033E"/>
<path d="M110.781 136.645L108.057 135.085C107.849 134.961 107.869 134.732 108.119 134.587L110.823 133.027C111.093 132.881 111.405 132.86 111.675 132.985L114.401 134.545C114.609 134.669 114.587 134.899 114.338 135.044L111.634 136.604C111.385 136.749 111.073 136.771 110.781 136.645Z" fill="#06033E"/>
<path d="M114.977 139.062L112.252 137.502C112.044 137.377 112.065 137.149 112.315 137.003L115.019 135.464C115.289 135.318 115.601 135.297 115.871 135.422L118.596 136.982C118.804 137.107 118.783 137.336 118.533 137.481L115.829 139.041C115.559 139.187 115.247 139.187 114.977 139.062Z" fill="#06033E"/>
<path d="M119.187 141.498L116.462 139.938C116.254 139.814 116.275 139.585 116.525 139.439L119.229 137.879C119.499 137.734 119.811 137.713 120.081 137.838L122.806 139.398C123.014 139.522 122.993 139.751 122.744 139.897L120.04 141.457C119.769 141.602 119.457 141.623 119.187 141.498Z" fill="#06033E"/>
<path d="M123.383 143.906L120.657 142.346C120.449 142.222 120.471 141.993 120.72 141.847L123.424 140.287C123.695 140.142 124.007 140.121 124.277 140.246L127.001 141.806C127.209 141.93 127.189 142.159 126.939 142.305L124.235 143.865C123.965 144.031 123.653 144.031 123.383 143.906Z" fill="#06033E"/>
<path d="M83.3928 116.119L80.6683 114.559C80.4603 114.434 80.4808 114.205 80.7306 114.06L83.4345 112.5C83.7048 112.354 84.0168 112.333 84.2878 112.458L87.0123 114.018C87.2203 114.143 87.1998 114.372 86.9501 114.517L84.2461 116.056C83.9963 116.223 83.6638 116.244 83.3928 116.119Z" fill="#06033E"/>
<path d="M79.2124 113.704L76.4879 112.144C76.2799 112.019 76.3004 111.79 76.5501 111.644L79.2541 110.084C79.5244 109.939 79.8364 109.918 80.1066 110.043L82.8319 111.603C83.0399 111.728 83.0186 111.956 82.7689 112.102L80.0649 113.662C79.8159 113.808 79.4826 113.828 79.2124 113.704Z" fill="#06033E"/>
<path d="M75.0464 111.296L72.3216 109.736C72.1136 109.611 72.1344 109.382 72.384 109.236L75.088 107.676C75.3584 107.531 75.6704 107.51 75.9405 107.635L78.6658 109.195C78.8738 109.32 78.8525 109.548 78.6035 109.694L75.8992 111.254C75.6288 111.4 75.3168 111.42 75.0464 111.296Z" fill="#06033E"/>
<path d="M70.8661 108.88L68.1413 107.32C67.9333 107.195 67.9541 106.967 68.2037 106.821L70.9077 105.261C71.1781 105.115 71.4901 105.095 71.7605 105.219L74.4645 106.779C74.6725 106.904 74.6517 107.133 74.4021 107.279L71.6981 108.839C71.4485 108.984 71.1365 108.984 70.8661 108.88Z" fill="#06033E"/>
<path d="M75.1499 106.385L72.4251 104.825C72.2171 104.701 72.2379 104.471 72.4875 104.326L73.3819 103.806C73.6523 103.661 73.9643 103.639 74.2347 103.765L76.9593 105.325C77.1673 105.449 77.1468 105.678 76.8971 105.823L76.0028 106.343C75.7531 106.51 75.4203 106.51 75.1499 106.385Z" fill="#06033E"/>
<path d="M80.6008 109.547L77.8763 107.987C77.6683 107.862 77.6888 107.633 77.9386 107.487L78.8123 106.967C79.0826 106.822 79.3946 106.801 79.6648 106.926L82.3901 108.486C82.5981 108.611 82.5768 108.839 82.3271 108.985L81.4328 109.505C81.1831 109.651 80.8711 109.671 80.6008 109.547Z" fill="#06033E"/>
<path d="M84.7668 111.94L82.0423 110.38C81.8343 110.255 81.8548 110.026 82.1046 109.88L82.9988 109.36C83.2698 109.215 83.5818 109.194 83.8521 109.319L86.5766 110.879C86.7846 111.004 86.7641 111.232 86.5143 111.378L85.6201 111.898C85.3703 112.064 85.0378 112.064 84.7668 111.94Z" fill="#06033E"/>
<path d="M88.9185 114.355L86.1932 112.795C85.9852 112.67 86.0064 112.441 86.2554 112.296L87.1504 111.776C87.4207 111.63 87.7327 111.609 88.0029 111.734L90.7274 113.294C90.9354 113.419 90.9149 113.648 90.6652 113.793L89.7709 114.313C89.5212 114.459 89.1887 114.48 88.9185 114.355Z" fill="#06033E"/>
<path d="M93.0838 116.741L90.3593 115.181C90.1513 115.056 90.1718 114.827 90.4216 114.682L91.3158 114.162C91.5868 114.016 91.8988 113.995 92.1691 114.12L94.8936 115.701C95.1016 115.826 95.0811 116.054 94.8313 116.2L93.9371 116.72C93.6873 116.845 93.3548 116.866 93.0838 116.741Z" fill="#06033E"/>
<path d="M116.306 130.162L113.582 128.602C113.374 128.477 113.394 128.248 113.644 128.103L114.538 127.583C114.808 127.437 115.12 127.416 115.391 127.541L118.116 129.101C118.324 129.226 118.303 129.455 118.054 129.6L117.159 130.12C116.888 130.266 116.576 130.287 116.306 130.162Z" fill="#06033E"/>
<path d="M120.472 132.555L117.748 130.995C117.54 130.87 117.56 130.641 117.81 130.496L118.704 129.976C118.975 129.83 119.287 129.809 119.557 129.934L122.282 131.494C122.49 131.619 122.469 131.848 122.22 131.993L121.325 132.513C121.055 132.659 120.743 132.68 120.472 132.555Z" fill="#06033E"/>
<path d="M124.638 134.962L121.913 133.381C121.705 133.256 121.726 133.027 121.976 132.882L122.87 132.362C123.141 132.216 123.453 132.195 123.723 132.32L126.448 133.88C126.656 134.005 126.635 134.234 126.385 134.379L125.491 134.899C125.221 135.066 124.909 135.066 124.638 134.962Z" fill="#06033E"/>
<path d="M128.789 137.356L126.065 135.796C125.857 135.671 125.877 135.443 126.127 135.297L127.021 134.777C127.292 134.631 127.604 134.611 127.875 134.735L130.599 136.295C130.807 136.42 130.787 136.649 130.537 136.795L129.643 137.315C129.372 137.46 129.06 137.481 128.789 137.356Z" fill="#06033E"/>
<path d="M87.5885 118.533L84.864 116.952C84.656 116.827 84.6765 116.598 84.9262 116.453L87.6097 114.893C87.88 114.747 88.192 114.726 88.4622 114.851L91.1867 116.411C91.3947 116.536 91.3742 116.765 91.1245 116.91L88.4205 118.47C88.1707 118.637 87.8587 118.658 87.5885 118.533Z" fill="#06033E"/>
<path d="M91.7842 120.942L89.0597 119.382C88.8517 119.258 88.8722 119.028 89.1219 118.883L91.8259 117.323C92.0962 117.178 92.4082 117.156 92.6784 117.282L95.4037 118.842C95.6117 118.966 95.5904 119.195 95.3407 119.34L92.6367 120.9C92.3664 121.067 92.0544 121.067 91.7842 120.942Z" fill="#06033E"/>
<path d="M95.9942 123.38L93.2697 121.82C93.0617 121.695 93.0822 121.466 93.332 121.32L96.036 119.76C96.3062 119.615 96.6182 119.594 96.8885 119.719L99.6137 121.279C99.8217 121.404 99.8005 121.632 99.5507 121.778L96.868 123.338C96.5765 123.484 96.2645 123.504 95.9942 123.38Z" fill="#06033E"/>
<path d="M100.175 125.816L97.4503 124.235C97.2423 124.11 97.2628 123.881 97.5125 123.736L100.217 122.176C100.487 122.03 100.799 122.009 101.069 122.134L103.794 123.715C104.002 123.84 103.981 124.069 103.732 124.214L101.028 125.774C100.778 125.92 100.466 125.941 100.175 125.816Z" fill="#06033E"/>
<path d="M104.37 128.225L101.645 126.665C101.437 126.541 101.458 126.311 101.707 126.166L104.391 124.606C104.661 124.461 104.973 124.439 105.243 124.565L107.968 126.125C108.176 126.249 108.155 126.478 107.906 126.623L105.223 128.163C104.973 128.329 104.64 128.35 104.37 128.225Z" fill="#06033E"/>
<path d="M108.581 130.655L105.855 129.095C105.647 128.971 105.669 128.741 105.918 128.596L108.601 127.036C108.871 126.891 109.183 126.869 109.454 126.995L112.179 128.555C112.387 128.679 112.366 128.908 112.117 129.053L109.413 130.613C109.163 130.759 108.851 130.78 108.581 130.655Z" fill="#06033E"/>
<path d="M112.775 133.071L110.051 131.511C109.843 131.386 109.863 131.157 110.113 131.011L112.817 129.451C113.087 129.306 113.399 129.285 113.67 129.41L116.395 130.97C116.603 131.095 116.582 131.323 116.332 131.469L113.628 133.029C113.358 133.195 113.046 133.195 112.775 133.071Z" fill="#06033E"/>
<path d="M116.986 135.508L114.261 133.948C114.053 133.823 114.074 133.594 114.323 133.449L117.027 131.889C117.298 131.743 117.61 131.722 117.881 131.847L120.605 133.407C120.813 133.532 120.793 133.761 120.543 133.906L117.859 135.466C117.568 135.612 117.257 135.633 116.986 135.508Z" fill="#06033E"/>
<path d="M121.152 137.916L118.427 136.356C118.219 136.231 118.24 136.002 118.489 135.857L121.172 134.297C121.443 134.151 121.755 134.13 122.025 134.255L124.75 135.815C124.958 135.94 124.937 136.169 124.688 136.314L121.984 137.874C121.734 138.02 121.422 138.041 121.152 137.916Z" fill="#06033E"/>
<path d="M63.5922 118.823L55.5842 114.206C55.3762 114.081 55.397 113.852 55.6466 113.706L58.3298 112.167C58.6002 112.022 58.9122 112.001 59.1826 112.126L67.1906 116.743C67.3986 116.868 67.3778 117.097 67.1282 117.242L64.4242 118.802C64.1746 118.927 63.8626 118.948 63.5922 118.823Z" fill="#06033E"/>
<path d="M115.164 148.611L107.156 143.994C106.948 143.868 106.968 143.64 107.218 143.494L109.922 141.934C110.192 141.788 110.504 141.768 110.774 141.892L118.782 146.51C118.99 146.635 118.97 146.864 118.72 147.01L116.016 148.57C115.746 148.715 115.434 148.736 115.164 148.611Z" fill="#06033E"/>
<path d="M98.3582 144.264L95.6329 142.704C95.4249 142.579 95.4462 142.35 95.6959 142.205L98.8987 140.354C99.1689 140.208 99.4809 140.187 99.752 140.312L102.476 141.872C102.684 141.997 102.664 142.226 102.414 142.371L99.1902 144.222C98.9404 144.368 98.6284 144.389 98.3582 144.264Z" fill="#06033E"/>
<path d="M67.894 126.667L63.5468 124.149C63.3388 124.025 63.3596 123.796 63.6092 123.651L66.8124 121.799C67.0828 121.653 67.3948 121.633 67.6652 121.757L72.0124 124.275C72.2204 124.399 72.1996 124.628 71.95 124.773L68.7468 126.625C68.4764 126.771 68.1644 126.791 67.894 126.667Z" fill="#06033E"/>
<path d="M94.3227 141.934L89.9752 139.417C89.7672 139.292 89.7884 139.063 90.0374 138.918L93.2409 137.067C93.5112 136.921 93.8232 136.9 94.0934 137.025L98.4409 139.542C98.6489 139.667 98.6284 139.895 98.3787 140.041L95.1752 141.892C94.9049 142.038 94.5929 142.059 94.3227 141.934Z" fill="#06033E"/>
<path d="M73.9508 130.16L69.6036 127.643C69.3956 127.518 69.4164 127.29 69.666 127.144L72.8692 125.293C73.1396 125.147 73.4516 125.126 73.722 125.251L78.0691 127.768C78.2771 127.893 78.2566 128.122 78.0069 128.267L74.8036 130.118C74.5332 130.285 74.2212 130.285 73.9508 130.16Z" fill="#06033E"/>
<path d="M73.7573 125.295L92.6648 136.215C92.7893 136.257 92.8728 136.402 92.8311 136.547C92.8098 136.631 92.7476 136.693 92.6648 136.714L89.3991 138.607C89.1288 138.753 88.8168 138.753 88.5458 138.607L69.6389 127.687L73.7573 125.295Z" fill="#06033E"/>
<path d="M110.102 148.674L113.118 150.422C113.305 150.526 113.285 150.713 113.077 150.817L111.766 151.566C111.558 151.69 111.288 151.69 111.08 151.586L108.043 149.839C107.856 149.735 107.877 149.548 108.085 149.444L109.395 148.695C109.624 148.57 109.894 148.57 110.102 148.674Z" fill="#06033E"/>
<path d="M105.871 146.215L108.908 147.962C109.095 148.066 109.074 148.253 108.866 148.357L107.556 149.106C107.348 149.231 107.078 149.231 106.87 149.127L103.832 147.379C103.646 147.275 103.666 147.089 103.874 146.985L105.184 146.235C105.392 146.131 105.642 146.111 105.871 146.215Z" fill="#06033E"/>
<path d="M101.673 143.785L104.689 145.532C104.876 145.636 104.856 145.823 104.648 145.927L103.337 146.676C103.129 146.801 102.858 146.801 102.63 146.697L99.5926 144.949C99.4058 144.845 99.4263 144.659 99.6343 144.555L100.945 143.805C101.194 143.701 101.444 143.681 101.673 143.785Z" fill="#06033E"/>
<path d="M108.182 144.885L111.219 146.632C111.406 146.736 111.385 146.924 111.177 147.028L109.867 147.776C109.659 147.901 109.388 147.901 109.159 147.797L106.123 146.05C105.935 145.946 105.956 145.759 106.164 145.655L107.475 144.906C107.703 144.781 107.974 144.781 108.182 144.885Z" fill="#06033E"/>
</g>
<path d="M53.6638 118.448L50.939 116.888C50.7102 116.764 50.7518 116.535 51.0014 116.39L54.2046 114.538C54.475 114.392 54.787 114.372 55.0574 114.496L57.7822 116.056C57.9902 116.182 57.9694 116.41 57.7198 116.556L54.5166 118.407C54.2462 118.574 53.9342 118.574 53.6638 118.448Z" fill="white"/>
<path d="M57.8653 120.886L55.1405 119.326C54.9325 119.201 54.9533 118.973 55.2029 118.827L58.4061 116.976C58.6765 116.83 58.9885 116.809 59.2589 116.934L61.9837 118.494C62.1917 118.619 62.1709 118.848 61.9213 118.993L58.7181 120.845C58.4477 120.99 58.1357 121.011 57.8653 120.886Z" fill="white"/>
<path d="M62.061 123.294L59.3362 121.734C59.1282 121.609 59.149 121.381 59.3986 121.235L62.6018 119.384C62.8722 119.238 63.1842 119.217 63.4546 119.342L66.1794 120.902C66.3874 121.027 66.3666 121.256 66.117 121.401L62.9138 123.253C62.6434 123.419 62.3314 123.419 62.061 123.294Z" fill="white"/>
<path d="M67.8666 121.297L65.1418 119.737C64.9338 119.612 64.9546 119.383 65.2042 119.237L67.9082 117.677C68.1786 117.532 68.4906 117.511 68.761 117.636L71.4858 119.196C71.6938 119.321 71.673 119.549 71.4234 119.695L68.7194 121.255C68.449 121.401 68.137 121.421 67.8666 121.297Z" fill="white"/>
<path d="M72.0766 123.733L69.3518 122.152C69.1438 122.027 69.1646 121.798 69.4142 121.653L72.1182 120.093C72.3886 119.947 72.7006 119.926 72.971 120.051L75.6958 121.611C75.9038 121.736 75.883 121.965 75.6334 122.11L72.9294 123.67C72.659 123.837 72.347 123.858 72.0766 123.733Z" fill="white"/>
<path d="M76.2571 126.142L73.5326 124.582C73.3246 124.458 73.3454 124.228 73.595 124.083L76.2988 122.523C76.5691 122.378 76.8811 122.356 77.1521 122.482L79.8766 124.042C80.0846 124.166 80.0641 124.395 79.8143 124.54L77.1103 126.1C76.8606 126.267 76.5486 126.267 76.2571 126.142Z" fill="white"/>
<path d="M80.4527 128.58L77.7282 127.02C77.5202 126.895 77.5407 126.666 77.7905 126.52L80.474 124.96C80.7442 124.815 81.0562 124.794 81.3265 124.919L84.051 126.479C84.259 126.604 84.2385 126.832 83.9887 126.978L81.2847 128.538C81.0562 128.684 80.723 128.704 80.4527 128.58Z" fill="white"/>
<path d="M84.6484 130.995L81.9239 129.435C81.7159 129.31 81.7364 129.081 81.9862 128.936L84.6902 127.376C84.9604 127.23 85.2724 127.209 85.5427 127.334L88.2679 128.894C88.4759 129.019 88.4547 129.248 88.2057 129.393L85.5017 130.953C85.2307 131.12 84.9187 131.12 84.6484 130.995Z" fill="white"/>
<path d="M88.8585 133.425L86.134 131.865C85.926 131.741 85.9465 131.511 86.1962 131.366L88.9003 129.806C89.1705 129.661 89.4825 129.639 89.7527 129.765L92.478 131.325C92.686 131.449 92.6647 131.678 92.415 131.823L89.7323 133.383C89.4407 133.529 89.1287 133.55 88.8585 133.425Z" fill="white"/>
<path d="M93.0542 135.841L90.3297 134.281C90.1217 134.155 90.1422 133.927 90.3919 133.781L93.0959 132.221C93.3662 132.075 93.6782 132.055 93.9484 132.179L96.6737 133.739C96.8817 133.865 96.8604 134.093 96.6107 134.239L93.9067 135.799C93.6364 135.965 93.3244 135.965 93.0542 135.841Z" fill="white"/>
<path d="M97.2643 138.271L94.5391 136.711C94.3311 136.585 94.3523 136.357 94.6021 136.211L97.3061 134.651C97.5763 134.505 97.8883 134.485 98.1586 134.609L100.883 136.169C101.091 136.295 101.071 136.523 100.821 136.669L98.1168 138.229C97.8466 138.375 97.5346 138.395 97.2643 138.271Z" fill="white"/>
<path d="M101.445 140.686L98.7203 139.126C98.5123 139.001 98.5328 138.772 98.7826 138.627L101.487 137.067C101.757 136.921 102.069 136.9 102.339 137.025L105.064 138.585C105.272 138.71 105.251 138.939 105.002 139.084L102.298 140.644C102.048 140.811 101.715 140.811 101.445 140.686Z" fill="white"/>
<path d="M105.64 143.116L102.916 141.556C102.708 141.431 102.728 141.202 102.978 141.057L105.682 139.497C105.952 139.351 106.264 139.33 106.535 139.455L109.26 141.015C109.468 141.14 109.447 141.369 109.197 141.514L106.493 143.074C106.223 143.22 105.911 143.241 105.64 143.116Z" fill="white"/>
<path d="M74.0504 120.158L71.3464 118.577C71.1384 118.452 71.1592 118.224 71.4088 118.078L74.092 116.518C74.3624 116.372 74.6744 116.352 74.9448 116.476L77.6698 118.036C77.8778 118.161 77.8565 118.39 77.6075 118.536L74.924 120.096C74.6536 120.262 74.3208 120.282 74.0504 120.158Z" fill="white"/>
<path d="M69.787 117.698L67.0622 116.117C66.8542 115.993 66.875 115.764 67.1246 115.618L69.8286 114.058C70.099 113.913 70.411 113.892 70.6814 114.017L73.4062 115.577C73.6142 115.701 73.5934 115.93 73.3438 116.076L70.6398 117.636C70.3902 117.802 70.0782 117.823 69.787 117.698Z" fill="white"/>
<path d="M65.5208 115.225L59.676 111.855C59.468 111.731 59.4888 111.502 59.7384 111.356L62.4424 109.796C62.7128 109.651 63.0248 109.63 63.2952 109.755L69.14 113.124C69.348 113.249 69.3272 113.478 69.0776 113.623L66.3736 115.183C66.1032 115.35 65.7912 115.35 65.5208 115.225Z" fill="white"/>
<path d="M68.5104 112.23L63.768 109.485C63.56 109.359 63.5808 109.131 63.8304 108.985L66.5344 107.425C66.8048 107.279 67.1168 107.259 67.3872 107.383L72.1296 110.129C72.3376 110.254 72.3168 110.483 72.0672 110.629L69.3632 112.189C69.0928 112.334 68.7808 112.355 68.5104 112.23Z" fill="white"/>
<path d="M78.2521 122.567L75.5272 121.007C75.3192 120.882 75.34 120.654 75.5896 120.508L78.2938 118.948C78.5641 118.802 78.8761 118.782 79.1463 118.906L81.8708 120.466C82.0788 120.591 82.0583 120.82 81.8086 120.966L79.1046 122.526C78.8343 122.692 78.5223 122.692 78.2521 122.567Z" fill="white"/>
<path d="M82.447 125.005L79.7225 123.445C79.5145 123.32 79.535 123.091 79.7848 122.945L82.4888 121.385C82.759 121.24 83.071 121.219 83.3413 121.344L86.0665 122.904C86.2745 123.029 86.2532 123.257 86.0043 123.403L83.3003 124.963C83.0292 125.109 82.7172 125.129 82.447 125.005Z" fill="white"/>
<path d="M86.6578 127.414L83.9326 125.854C83.7246 125.729 83.7458 125.501 83.9948 125.355L86.6783 123.815C86.9486 123.67 87.2606 123.649 87.5308 123.774L90.2561 125.334C90.4641 125.459 90.4428 125.687 90.1938 125.833L87.4898 127.393C87.2401 127.539 86.9281 127.559 86.6578 127.414Z" fill="white"/>
<path d="M90.8528 129.85L88.1283 128.29C87.9203 128.165 87.9408 127.937 88.1905 127.791L90.8945 126.231C91.1648 126.085 91.4768 126.065 91.7478 126.189L94.4723 127.749C94.6803 127.874 94.6598 128.103 94.41 128.249L91.706 129.809C91.4145 129.954 91.1025 129.975 90.8528 129.85Z" fill="white"/>
<path d="M95.0332 132.28L92.3087 130.72C92.1007 130.595 92.1212 130.367 92.3709 130.221L95.0749 128.661C95.3452 128.515 95.6572 128.495 95.9282 128.619L98.6527 130.179C98.8607 130.304 98.8402 130.533 98.5904 130.679L95.8864 132.239C95.6367 132.384 95.3042 132.384 95.0332 132.28Z" fill="white"/>
<path d="M99.2441 134.696L96.5188 133.136C96.3108 133.011 96.3321 132.782 96.5818 132.636L99.2646 131.076C99.5348 130.931 99.8468 130.91 100.118 131.035L102.842 132.595C103.05 132.72 103.03 132.948 102.78 133.094L100.076 134.654C99.8263 134.8 99.5143 134.82 99.2441 134.696Z" fill="white"/>
<path d="M103.44 137.126L100.715 135.566C100.507 135.441 100.528 135.212 100.777 135.066L103.481 133.506C103.752 133.361 104.064 133.34 104.334 133.465L107.038 135.046C107.246 135.17 107.225 135.4 106.976 135.545L104.272 137.105C104.022 137.23 103.71 137.25 103.44 137.126Z" fill="white"/>
<path d="M107.635 139.541L104.91 137.981C104.702 137.856 104.723 137.628 104.972 137.482L107.676 135.922C107.947 135.776 108.259 135.756 108.529 135.88L111.254 137.44C111.462 137.565 111.441 137.794 111.191 137.94L108.508 139.5C108.217 139.645 107.905 139.666 107.635 139.541Z" fill="white"/>
<path d="M111.845 141.971L109.12 140.411C108.912 140.286 108.933 140.058 109.183 139.912L111.887 138.352C112.157 138.206 112.469 138.186 112.74 138.31L115.444 139.87C115.652 139.995 115.631 140.224 115.381 140.37L112.677 141.93C112.428 142.075 112.116 142.075 111.845 141.971Z" fill="white"/>
<path d="M119.288 146.281L113.36 142.849C113.152 142.724 113.172 142.495 113.422 142.349L116.126 140.789C116.396 140.644 116.708 140.623 116.979 140.748L122.907 144.18C123.115 144.305 123.094 144.533 122.844 144.679L120.162 146.239C119.891 146.385 119.558 146.405 119.288 146.281Z" fill="white"/>
<path d="M127.458 141.559L122.445 138.668C122.237 138.543 122.258 138.315 122.507 138.169L125.211 136.609C125.482 136.463 125.794 136.443 126.065 136.567L131.077 139.459C131.285 139.583 131.265 139.812 131.015 139.957L128.331 141.517C128.061 141.663 127.749 141.684 127.458 141.559Z" fill="white"/>
<path d="M85.5943 122.109L82.869 120.549C82.661 120.424 82.6823 120.196 82.932 120.05L85.636 118.49C85.9063 118.344 86.2183 118.324 86.4885 118.448L89.213 120.008C89.421 120.133 89.4005 120.362 89.1508 120.508L86.4468 122.068C86.197 122.213 85.885 122.234 85.5943 122.109Z" fill="white"/>
<path d="M81.3098 119.613L78.5853 118.053C78.3773 117.928 78.3978 117.699 78.6475 117.553L81.3515 115.993C81.6218 115.848 81.9338 115.827 82.204 115.952L84.9293 117.512C85.1373 117.637 85.116 117.865 84.867 118.011L82.1835 119.571C81.892 119.737 81.58 119.737 81.3098 119.613Z" fill="white"/>
<path d="M76.9964 117.138L74.2713 115.578C74.0633 115.454 74.0841 115.224 74.3337 115.079L77.0374 113.519C77.3084 113.374 77.6204 113.352 77.8907 113.478L80.6152 115.038C80.8232 115.162 80.8027 115.391 80.5529 115.536L77.8489 117.096C77.5787 117.242 77.2667 117.263 76.9964 117.138Z" fill="white"/>
<path d="M72.6972 114.641L69.9724 113.081C69.7644 112.957 69.7852 112.728 70.0348 112.583L72.7388 111.023C73.0092 110.877 73.3212 110.856 73.5916 110.981L76.3163 112.541C76.5243 112.665 76.5038 112.895 76.2541 113.04L73.55 114.6C73.2796 114.767 72.9676 114.767 72.6972 114.641Z" fill="white"/>
<path d="M89.7892 124.524L87.0647 122.964C86.8567 122.84 86.8772 122.611 87.1269 122.466L89.8104 120.906C90.0807 120.76 90.3927 120.739 90.6629 120.864L93.3874 122.424C93.5954 122.548 93.5749 122.778 93.3252 122.923L90.6212 124.483C90.3927 124.628 90.0594 124.65 89.7892 124.524Z" fill="white"/>
<path d="M94.0001 126.954L91.2749 125.394C91.0669 125.27 91.0881 125.041 91.3371 124.896L94.0411 123.336C94.3121 123.19 94.6241 123.169 94.8944 123.294L97.6189 124.854C97.8269 124.978 97.8064 125.208 97.5566 125.353L94.8526 126.913C94.5824 127.058 94.2704 127.08 94.0001 126.954Z" fill="white"/>
<path d="M98.195 129.37L95.4697 127.81C95.2617 127.685 95.283 127.456 95.5327 127.311L98.2367 125.751C98.507 125.605 98.819 125.584 99.0892 125.709L101.814 127.269C102.022 127.394 102.001 127.623 101.751 127.768L99.0475 129.328C98.7772 129.474 98.4652 129.495 98.195 129.37Z" fill="white"/>
<path d="M102.405 131.8L99.6806 130.24C99.4726 130.115 99.4931 129.887 99.7429 129.741L102.426 128.181C102.697 128.035 103.009 128.015 103.279 128.139L106.003 129.699C106.211 129.824 106.191 130.053 105.941 130.199L103.237 131.759C102.987 131.904 102.675 131.925 102.405 131.8Z" fill="white"/>
<path d="M106.601 134.215L103.876 132.655C103.668 132.531 103.689 132.302 103.939 132.156L106.643 130.596C106.913 130.451 107.225 130.43 107.495 130.555L110.22 132.135C110.428 132.26 110.407 132.489 110.158 132.635L107.475 134.195C107.183 134.319 106.871 134.34 106.601 134.215Z" fill="white"/>
<path d="M110.781 136.653L108.057 135.093C107.849 134.968 107.869 134.739 108.119 134.593L110.823 133.033C111.093 132.888 111.405 132.867 111.676 132.992L114.401 134.552C114.609 134.677 114.588 134.905 114.338 135.051L111.634 136.611C111.385 136.757 111.073 136.777 110.781 136.653Z" fill="white"/>
<path d="M114.977 139.062L112.252 137.502C112.044 137.377 112.065 137.149 112.315 137.003L115.019 135.464C115.289 135.318 115.601 135.297 115.871 135.422L118.596 136.982C118.804 137.107 118.783 137.336 118.533 137.481L115.829 139.041C115.559 139.187 115.247 139.187 114.977 139.062Z" fill="white"/>
<path d="M119.187 141.498L116.462 139.938C116.254 139.814 116.275 139.585 116.525 139.439L119.229 137.879C119.499 137.734 119.811 137.713 120.081 137.838L122.806 139.398C123.014 139.522 122.993 139.751 122.744 139.897L120.04 141.457C119.769 141.602 119.457 141.623 119.187 141.498Z" fill="white"/>
<path d="M123.383 143.906L120.657 142.346C120.449 142.222 120.471 141.993 120.72 141.847L123.424 140.287C123.695 140.142 124.007 140.121 124.277 140.246L127.001 141.806C127.209 141.93 127.189 142.159 126.939 142.305L124.235 143.865C123.965 144.031 123.653 144.031 123.383 143.906Z" fill="white"/>
<path d="M83.3929 116.119L80.6676 114.559C80.4596 114.434 80.4809 114.205 80.7306 114.06L83.4346 112.5C83.7049 112.354 84.0169 112.333 84.2871 112.458L87.0116 114.018C87.2196 114.143 87.1991 114.372 86.9494 114.517L84.2454 116.056C83.9956 116.223 83.6631 116.244 83.3929 116.119Z" fill="white"/>
<path d="M79.2123 113.704L76.487 112.144C76.279 112.019 76.3003 111.79 76.5493 111.644L79.2533 110.084C79.5243 109.939 79.8363 109.918 80.1065 110.043L82.831 111.603C83.039 111.728 83.0185 111.956 82.7688 112.102L80.0648 113.662C79.815 113.808 79.4825 113.828 79.2123 113.704Z" fill="white"/>
<path d="M75.0461 111.296L72.3213 109.736C72.1133 109.611 72.1341 109.382 72.3837 109.236L75.0877 107.676C75.3581 107.531 75.6701 107.51 75.9405 107.635L78.665 109.195C78.873 109.32 78.8525 109.548 78.6028 109.694L75.8989 111.254C75.6285 111.4 75.3165 111.42 75.0461 111.296Z" fill="white"/>
<path d="M70.8653 108.88L68.1405 107.32C67.9325 107.195 67.9533 106.967 68.2029 106.821L70.9069 105.261C71.1773 105.115 71.4893 105.095 71.7597 105.219L74.4637 106.779C74.6717 106.904 74.6509 107.133 74.4013 107.279L71.6973 108.839C71.4477 108.984 71.1357 108.984 70.8653 108.88Z" fill="white"/>
<path d="M75.1495 106.385L72.4247 104.825C72.2167 104.701 72.2375 104.471 72.4871 104.326L73.3815 103.806C73.6519 103.661 73.9639 103.639 74.2343 103.765L76.9592 105.325C77.1672 105.449 77.1459 105.678 76.897 105.823L76.0019 106.343C75.7527 106.51 75.4199 106.51 75.1495 106.385Z" fill="white"/>
<path d="M80.6008 109.546L77.8763 107.986C77.6683 107.862 77.6888 107.633 77.9386 107.487L78.8123 106.967C79.0826 106.822 79.3946 106.801 79.6648 106.926L82.3901 108.486C82.5981 108.61 82.5768 108.839 82.3271 108.985L81.4328 109.505C81.1831 109.65 80.8711 109.671 80.6008 109.546Z" fill="white"/>
<path d="M84.7517 111.94L82.0272 110.38C81.8192 110.255 81.8397 110.026 82.0894 109.88L82.9837 109.36C83.2547 109.215 83.5667 109.194 83.8369 109.319L86.5614 110.879C86.7694 111.004 86.7489 111.232 86.4992 111.378L85.6049 111.898C85.3552 112.064 85.0227 112.064 84.7517 111.94Z" fill="white"/>
<path d="M88.9177 114.355L86.1932 112.795C85.9852 112.67 86.0057 112.441 86.2555 112.296L87.1497 111.776C87.42 111.63 87.732 111.609 88.003 111.734L90.7275 113.294C90.9355 113.419 90.915 113.648 90.6652 113.793L89.771 114.313C89.5212 114.459 89.188 114.48 88.9177 114.355Z" fill="white"/>
<path d="M93.0838 116.741L90.3593 115.181C90.1513 115.056 90.1718 114.827 90.4216 114.682L91.3158 114.162C91.5861 114.016 91.8981 113.995 92.1683 114.12L94.8936 115.701C95.1016 115.826 95.0803 116.054 94.8313 116.2L93.9363 116.72C93.6873 116.845 93.3541 116.866 93.0838 116.741Z" fill="white"/>
<path d="M116.306 130.162L113.582 128.602C113.374 128.477 113.394 128.248 113.644 128.103L114.538 127.583C114.808 127.437 115.12 127.416 115.391 127.541L118.116 129.101C118.324 129.226 118.303 129.455 118.054 129.6L117.159 130.12C116.888 130.266 116.576 130.287 116.306 130.162Z" fill="white"/>
<path d="M120.472 132.555L117.748 130.995C117.54 130.87 117.56 130.641 117.81 130.496L118.704 129.976C118.975 129.83 119.287 129.809 119.557 129.934L122.282 131.494C122.49 131.619 122.469 131.848 122.22 131.993L121.325 132.513C121.055 132.659 120.743 132.68 120.472 132.555Z" fill="white"/>
<path d="M124.638 134.962L121.913 133.381C121.705 133.256 121.726 133.027 121.976 132.882L122.87 132.362C123.141 132.216 123.453 132.195 123.723 132.32L126.448 133.88C126.656 134.005 126.635 134.234 126.385 134.379L125.491 134.899C125.221 135.066 124.909 135.066 124.638 134.962Z" fill="white"/>
<path d="M128.789 137.356L126.065 135.796C125.857 135.671 125.877 135.442 126.127 135.297L127.021 134.777C127.291 134.631 127.603 134.61 127.874 134.735L130.599 136.295C130.807 136.42 130.786 136.649 130.537 136.794L129.642 137.314C129.371 137.46 129.059 137.481 128.789 137.356Z" fill="white"/>
<path d="M87.5885 118.533L84.8633 116.952C84.6553 116.827 84.6765 116.598 84.9263 116.453L87.609 114.893C87.8793 114.747 88.1913 114.726 88.4623 114.851L91.1868 116.411C91.3948 116.536 91.3743 116.765 91.1245 116.91L88.4205 118.47C88.1708 118.637 87.8588 118.658 87.5885 118.533Z" fill="white"/>
<path d="M91.7834 120.942L89.0589 119.382C88.8509 119.258 88.8714 119.028 89.1212 118.883L91.8252 117.323C92.0954 117.178 92.4074 117.156 92.6777 117.282L95.4029 118.842C95.6109 118.966 95.5897 119.195 95.3399 119.34L92.6359 120.9C92.3657 121.067 92.0537 121.067 91.7834 120.942Z" fill="white"/>
<path d="M95.9935 123.38L93.269 121.82C93.061 121.695 93.0815 121.466 93.3313 121.32L96.0353 119.76C96.3055 119.615 96.6175 119.594 96.8885 119.719L99.613 121.279C99.821 121.404 99.8005 121.632 99.5508 121.778L96.8673 123.338C96.5765 123.484 96.2645 123.504 95.9935 123.38Z" fill="white"/>
<path d="M100.175 125.816L97.4495 124.235C97.2415 124.11 97.2627 123.881 97.5125 123.736L100.216 122.176C100.487 122.03 100.799 122.009 101.069 122.134L103.793 123.715C104.001 123.84 103.981 124.069 103.731 124.214L101.027 125.774C100.777 125.92 100.465 125.941 100.175 125.816Z" fill="white"/>
<path d="M104.37 128.225L101.645 126.665C101.437 126.541 101.458 126.311 101.707 126.166L104.391 124.606C104.661 124.461 104.973 124.439 105.243 124.565L107.969 126.125C108.177 126.249 108.155 126.478 107.906 126.623L105.223 128.163C104.973 128.329 104.641 128.35 104.37 128.225Z" fill="white"/>
<path d="M108.581 130.663L105.855 129.103C105.647 128.977 105.669 128.749 105.918 128.603L108.601 127.043C108.871 126.897 109.183 126.877 109.454 127.001L112.179 128.561C112.387 128.687 112.366 128.915 112.117 129.061L109.413 130.621C109.163 130.767 108.851 130.787 108.581 130.663Z" fill="white"/>
<path d="M112.775 133.071L110.051 131.511C109.843 131.386 109.863 131.157 110.113 131.011L112.817 129.451C113.087 129.306 113.399 129.285 113.671 129.41L116.395 130.97C116.603 131.095 116.583 131.323 116.333 131.469L113.629 133.029C113.359 133.195 113.046 133.195 112.775 133.071Z" fill="white"/>
<path d="M116.986 135.508L114.261 133.948C114.053 133.823 114.074 133.594 114.323 133.449L117.027 131.889C117.298 131.743 117.61 131.722 117.881 131.847L120.605 133.407C120.813 133.532 120.793 133.761 120.543 133.906L117.859 135.466C117.568 135.612 117.257 135.633 116.986 135.508Z" fill="white"/>
<path d="M121.167 137.916L118.442 136.356C118.234 136.231 118.255 136.002 118.504 135.857L121.187 134.297C121.458 134.151 121.77 134.13 122.04 134.255L124.765 135.815C124.973 135.94 124.952 136.169 124.703 136.314L121.999 137.874C121.749 138.02 121.437 138.041 121.167 137.916Z" fill="white"/>
<path d="M63.5918 118.823L55.5838 114.206C55.3758 114.081 55.3966 113.852 55.6462 113.706L58.3294 112.167C58.5998 112.022 58.9118 112.001 59.1822 112.126L67.1902 116.743C67.3982 116.868 67.3774 117.097 67.1278 117.242L64.4238 118.802C64.1742 118.927 63.8622 118.948 63.5918 118.823Z" fill="white"/>
<path d="M115.164 148.611L107.156 143.994C106.948 143.868 106.968 143.64 107.218 143.494L109.922 141.934C110.192 141.788 110.504 141.768 110.774 141.892L118.782 146.51C118.99 146.635 118.97 146.864 118.72 147.01L116.016 148.57C115.746 148.715 115.434 148.736 115.164 148.611Z" fill="white"/>
<path d="M98.3574 144.264L95.6329 142.704C95.4249 142.579 95.4454 142.35 95.6952 142.205L98.8987 140.354C99.1689 140.208 99.4809 140.187 99.7512 140.312L102.476 141.872C102.684 141.997 102.663 142.226 102.413 142.371L99.1894 144.222C98.9396 144.368 98.6276 144.389 98.3574 144.264Z" fill="white"/>
<path d="M67.8937 126.667L63.5465 124.149C63.3385 124.025 63.3593 123.796 63.6089 123.651L66.8121 121.799C67.0825 121.653 67.3945 121.633 67.6649 121.757L72.0121 124.275C72.2201 124.399 72.1993 124.628 71.9497 124.773L68.7465 126.625C68.4761 126.771 68.1641 126.791 67.8937 126.667Z" fill="white"/>
<path d="M94.3219 141.934L89.9752 139.417C89.7672 139.292 89.7877 139.063 90.0374 138.918L93.2409 137.067C93.5112 136.921 93.8232 136.9 94.0934 137.025L98.4409 139.542C98.6489 139.667 98.6277 139.895 98.3779 140.041L95.1752 141.892C94.9049 142.038 94.5929 142.059 94.3219 141.934Z" fill="white"/>
<path d="M73.9503 130.16L69.6031 127.643C69.3951 127.518 69.4159 127.29 69.6655 127.144L72.8687 125.293C73.1391 125.147 73.4511 125.126 73.7215 125.251L78.069 127.768C78.277 127.893 78.2558 128.122 78.006 128.267L74.8031 130.118C74.5327 130.285 74.2207 130.285 73.9503 130.16Z" fill="white"/>
<path d="M73.757 125.295L92.664 136.215C92.7893 136.257 92.872 136.402 92.8303 136.547C92.8098 136.631 92.7475 136.693 92.664 136.714L89.3982 138.607C89.128 138.753 88.816 138.753 88.5458 138.607L69.6385 127.687L73.757 125.295Z" fill="white"/>
<path d="M110.087 148.674L113.103 150.422C113.291 150.526 113.27 150.713 113.062 150.817L111.751 151.566C111.543 151.69 111.273 151.69 111.065 151.586L108.029 149.839C107.841 149.735 107.862 149.548 108.07 149.444L109.381 148.695C109.609 148.57 109.879 148.57 110.087 148.674Z" fill="white"/>
<path d="M105.871 146.215L108.908 147.962C109.095 148.066 109.075 148.253 108.867 148.357L107.556 149.106C107.348 149.231 107.077 149.231 106.869 149.127L103.833 147.379C103.645 147.275 103.667 147.089 103.875 146.985L105.185 146.235C105.393 146.131 105.643 146.111 105.871 146.215Z" fill="white"/>
<path d="M101.673 143.785L104.689 145.532C104.877 145.636 104.856 145.823 104.648 145.927L103.337 146.676C103.129 146.801 102.859 146.801 102.63 146.697L99.5933 144.949C99.4058 144.845 99.4271 144.659 99.6351 144.555L100.945 143.805C101.195 143.701 101.445 143.681 101.673 143.785Z" fill="white"/>
<path d="M108.182 144.885L111.219 146.632C111.406 146.736 111.385 146.924 111.177 147.028L109.867 147.776C109.659 147.901 109.388 147.901 109.159 147.797L106.123 146.05C105.935 145.946 105.956 145.759 106.164 145.655L107.475 144.906C107.703 144.781 107.974 144.781 108.182 144.885Z" fill="white"/>
<path d="M152.603 139.976L72.4188 93.6752C71.15 92.9472 70.5052 91.1792 70.942 89.7232L89.0794 30.8387C89.5371 29.3827 90.9104 28.7795 92.1789 29.5075L172.363 75.8083C173.631 76.5364 174.277 78.3044 173.839 79.7604L155.702 138.624C155.265 140.101 153.871 140.704 152.603 139.976Z" fill="url(#paint3_linear_1_888)"/>
<path d="M151.854 137.921L74.0624 92.9722C72.856 92.2647 72.232 90.5802 72.648 89.1865L89.9949 32.9016C90.4322 31.508 91.7629 30.9464 92.9487 31.6328L170.741 76.582C171.947 77.2887 172.571 78.974 172.155 80.3669L154.808 136.652C154.392 138.046 153.061 138.607 151.854 137.921Z" fill="url(#paint4_linear_1_888)"/>
<path opacity="0.4" d="M151.854 137.921L74.0624 92.9722C72.856 92.2647 72.232 90.5802 72.648 89.1865L89.9949 32.9016C90.4322 31.508 91.7629 30.9464 92.9487 31.6328L170.741 76.582C171.947 77.2887 172.571 78.974 172.155 80.3669L154.808 136.652C154.392 138.046 153.061 138.607 151.854 137.921Z" fill="#06033E"/>
<path d="M151.854 137.921L74.0624 92.9722C72.856 92.2647 72.232 90.5802 72.648 89.1865L89.9949 32.9016C90.4322 31.508 91.7629 30.9464 92.9487 31.6328L170.741 76.582C171.947 77.2887 172.571 78.974 172.155 80.3669L154.808 136.652C154.392 138.046 153.061 138.607 151.854 137.921Z" fill="black"/>
<g opacity="0.3">
<path d="M110.32 58.0439L101.417 52.6775C101.146 52.5111 100.834 52.5943 100.752 52.8439C100.689 53.1559 100.814 53.4679 101.084 53.6135L109.986 58.9799C110.257 59.1463 110.569 59.0631 110.652 58.8135C110.736 58.5015 110.59 58.1895 110.32 58.0439Z" fill="white"/>
<path d="M135.19 73.0006L120.422 64.119C120.152 63.9526 119.84 64.0358 119.756 64.2854C119.674 64.5974 119.819 64.9094 120.09 65.055L134.858 73.9366C135.128 74.103 135.44 74.0198 135.523 73.7702C135.586 73.4582 135.46 73.167 135.19 73.0006Z" fill="white"/>
<path d="M117.493 62.347L113.353 59.8718C113.083 59.7054 112.771 59.7886 112.688 60.0382C112.625 60.3502 112.75 60.6622 113.021 60.8078L117.139 63.283C117.409 63.4494 117.721 63.3662 117.805 63.1166C117.888 62.8254 117.763 62.5134 117.493 62.347Z" fill="white"/>
<path d="M101.354 62.9117L98.4622 61.1645C98.192 60.9981 97.88 61.0813 97.7965 61.3309C97.7342 61.6429 97.8595 61.9548 98.1297 62.1004L101.02 63.8477C101.291 64.0141 101.603 63.9309 101.686 63.6813C101.748 63.3693 101.624 63.0573 101.354 62.9117Z" fill="white"/>
<path d="M113.875 70.4618L103.662 64.3258C103.392 64.1594 103.08 64.2426 102.996 64.4922C102.934 64.8042 103.059 65.1162 103.329 65.2618L113.563 71.3978C113.833 71.5642 114.145 71.481 114.228 71.2314C114.291 70.9194 114.166 70.6074 113.875 70.4618Z" fill="white"/>
<path d="M119.458 73.7917L116.567 72.0445C116.296 71.8781 115.984 71.9613 115.901 72.2109C115.818 72.5229 115.963 72.8349 116.234 72.9805L119.125 74.7277C119.395 74.8941 119.707 74.8109 119.791 74.5613C119.874 74.2701 119.728 73.9581 119.458 73.7917Z" fill="white"/>
<path d="M131.987 81.3637L121.773 75.2281C121.503 75.0617 121.191 75.1449 121.108 75.3945C121.045 75.7065 121.171 76.0187 121.441 76.1637L131.653 82.2997C131.924 82.4667 132.236 82.3832 132.319 82.1334C132.381 81.8214 132.257 81.5094 131.987 81.3637Z" fill="white"/>
<path d="M112.563 74.7849L96.9629 65.4041C96.6927 65.2377 96.3806 65.3209 96.2979 65.5705C96.2144 65.8825 96.3602 66.1945 96.6304 66.3401L112.23 75.7209C112.501 75.8873 112.813 75.8041 112.896 75.5545C112.979 75.2425 112.834 74.9305 112.563 74.7849Z" fill="white"/>
<path d="M127.716 83.8748L116.005 76.8233C115.735 76.6571 115.423 76.7406 115.34 76.9896C115.256 77.3016 115.402 77.6136 115.672 77.7593L127.383 84.8108C127.653 84.9771 127.965 84.8936 128.048 84.6446C128.132 84.3326 127.986 84.0206 127.716 83.8748Z" fill="white"/>
<path d="M104.396 74.9955L95.4933 69.6292C95.2223 69.4628 94.9103 69.5459 94.8275 69.7955C94.7653 70.1075 94.8898 70.4196 95.16 70.5652L104.062 75.9108C104.333 76.0771 104.645 75.9936 104.728 75.7443C104.812 75.4531 104.666 75.1411 104.396 74.9955Z" fill="white"/>
<path d="M118.454 83.4588L107.43 76.8233C107.16 76.6571 106.848 76.7406 106.764 76.9896C106.702 77.3016 106.826 77.6136 107.097 77.7593L118.121 84.3948C118.392 84.5611 118.704 84.4776 118.786 84.2286C118.87 83.9166 118.724 83.6046 118.454 83.4588Z" fill="white"/>
<path d="M142.755 77.5552L138.637 75.0803C138.366 74.9139 138.054 74.9971 137.971 75.2467C137.888 75.5587 138.034 75.8707 138.304 76.0164L142.422 78.4912C142.693 78.6582 143.005 78.5747 143.088 78.3249C143.172 78.0129 143.026 77.7009 142.755 77.5552Z" fill="white"/>
<path d="M152.168 83.2152L145.824 79.4089C145.554 79.2427 145.242 79.3254 145.158 79.5752C145.096 79.8872 145.22 80.1992 145.491 80.3449L151.814 84.1512C152.084 84.3174 152.396 84.2347 152.48 83.9849C152.584 83.6934 152.438 83.3814 152.168 83.2152Z" fill="white"/>
<path d="M141.798 82.0894L158.355 92.0521C158.625 92.1979 158.771 92.5099 158.688 92.8219C158.605 93.0716 158.293 93.1544 158.022 92.9881L141.465 83.0459C141.195 82.9001 141.049 82.5881 141.133 82.2761C141.216 82.0059 141.528 81.9224 141.798 82.0894Z" fill="white"/>
<path d="M136.377 84.2324L152.933 94.1952C153.203 94.3409 153.349 94.6529 153.266 94.9649C153.183 95.2147 152.871 95.2974 152.601 95.1312L136.043 85.1684C135.773 85.0227 135.627 84.7107 135.711 84.3987C135.815 84.1489 136.106 84.0654 136.377 84.2324Z" fill="white"/>
<path d="M109.135 62.457L123.903 71.3386C124.174 71.4842 124.319 71.7962 124.237 72.1082C124.153 72.3578 123.841 72.441 123.571 72.2746L108.803 63.393C108.533 63.2474 108.387 62.9354 108.471 62.6234C108.553 62.3738 108.865 62.2906 109.135 62.457Z" fill="white"/>
<path d="M134.619 77.7837L138.738 80.2592C139.008 80.4049 139.132 80.7169 139.07 81.0289C138.987 81.2779 138.675 81.3614 138.404 81.1952L134.286 78.7197C134.016 78.5739 133.87 78.2619 133.954 77.9499C134.058 77.7009 134.348 77.6174 134.619 77.7837Z" fill="white"/>
<path d="M127.351 73.4184L131.469 75.8936C131.739 76.0392 131.885 76.3512 131.801 76.6632C131.719 76.9129 131.407 76.9957 131.136 76.8294L127.017 74.3544C126.747 74.2088 126.601 73.8968 126.685 73.5848C126.789 73.3352 127.08 73.252 127.351 73.4184Z" fill="white"/>
<path d="M99.9409 56.9172L106.285 60.7236C106.555 60.8692 106.701 61.1812 106.618 61.4932C106.535 61.7428 106.223 61.826 105.952 61.6596L99.6289 57.8532C99.3587 57.7076 99.2129 57.3956 99.2964 57.0836C99.3587 56.834 99.6707 56.7508 99.9409 56.9172Z" fill="white"/>
<path d="M102.911 79.2427L94.0085 73.8764C93.7382 73.71 93.4262 73.7932 93.3427 74.0428C93.26 74.3548 93.4057 74.6668 93.676 74.8124L102.578 80.1787C102.848 80.3449 103.16 80.2622 103.244 80.0124C103.327 79.7004 103.182 79.3884 102.911 79.2427Z" fill="white"/>
<path d="M127.774 94.1921L113.006 85.3103C112.736 85.1441 112.424 85.2268 112.341 85.4766C112.258 85.7886 112.404 86.1006 112.674 86.2463L127.442 95.1281C127.712 95.2943 128.024 95.2108 128.108 94.9618C128.19 94.6498 128.045 94.3378 127.774 94.1921Z" fill="white"/>
<path d="M110.077 83.5462L105.937 81.0707C105.667 80.9044 105.355 80.9872 105.272 81.2369C105.209 81.5489 105.334 81.8609 105.605 82.0067L109.744 84.4822C110.014 84.6484 110.326 84.5649 110.409 84.3152C110.493 84.0244 110.347 83.6912 110.077 83.5462Z" fill="white"/>
<path d="M93.9302 84.0882L91.0395 82.3414C90.7685 82.1744 90.4565 82.2579 90.3737 82.5077C90.2902 82.8197 90.436 83.1317 90.7062 83.2774L93.5977 85.0242C93.868 85.1904 94.18 85.1077 94.2635 84.8579C94.3462 84.5664 94.2005 84.2544 93.9302 84.0882Z" fill="white"/>
<path d="M106.467 91.6536L96.2539 85.5176C95.9837 85.3506 95.6717 85.4341 95.5882 85.6838C95.5055 85.9958 95.6512 86.3078 95.9215 86.4536L106.134 92.5896C106.404 92.7558 106.716 92.6723 106.8 92.4226C106.862 92.1106 106.737 91.7986 106.467 91.6536Z" fill="white"/>
<path d="M112.042 94.9831L109.151 93.2356C108.88 93.0693 108.568 93.1529 108.485 93.4026C108.402 93.7146 108.547 94.0266 108.818 94.1716L111.709 95.9191C111.979 96.0854 112.291 96.0026 112.375 95.7529C112.437 95.4409 112.312 95.1289 112.042 94.9831Z" fill="white"/>
<path d="M124.571 102.533L114.357 96.3974C114.087 96.2311 113.775 96.3139 113.692 96.5636C113.629 96.8756 113.755 97.1876 114.025 97.3334L124.237 103.469C124.508 103.636 124.82 103.553 124.903 103.303C124.987 103.012 124.841 102.7 124.571 102.533Z" fill="white"/>
<path d="M105.133 95.9616L89.5326 86.5811C89.2624 86.4141 88.9504 86.4976 88.8669 86.7474C88.7834 87.0594 88.9291 87.3714 89.1994 87.5171L104.799 96.8976C105.07 97.0639 105.382 96.9811 105.465 96.7314C105.549 96.4399 105.403 96.1279 105.133 95.9616Z" fill="white"/>
<path d="M130.83 111.417L108.574 98.0227C108.304 97.8556 107.992 97.9391 107.909 98.1889C107.825 98.5009 107.971 98.8129 108.241 98.9586L130.518 112.353C130.789 112.52 131.101 112.437 131.184 112.187C131.246 111.896 131.101 111.584 130.83 111.417Z" fill="white"/>
<path d="M96.9872 96.1947L88.085 90.8277C87.814 90.6615 87.502 90.745 87.4192 90.9947C87.3357 91.3067 87.4815 91.6187 87.7517 91.7637L96.654 97.1307C96.925 97.297 97.237 97.2135 97.3197 96.9637C97.382 96.6517 97.2575 96.3397 96.9872 96.1947Z" fill="white"/>
<path d="M104.139 100.497L100.021 98.0227C99.7504 97.8556 99.4384 97.9391 99.3549 98.1889C99.2722 98.5009 99.4179 98.8129 99.6882 98.9586L103.827 101.433C104.098 101.6 104.41 101.517 104.493 101.267C104.555 100.976 104.41 100.643 104.139 100.497Z" fill="white"/>
<path d="M135.347 98.7324L131.228 96.2569C130.958 96.0907 130.646 96.1742 130.563 96.4232C130.5 96.7352 130.625 97.0472 130.895 97.1929L135.035 99.6889C135.305 99.8552 135.617 99.7724 135.7 99.5227C135.763 99.2107 135.617 98.8987 135.347 98.7324Z" fill="white"/>
<path d="M135.901 88.7826L131.782 86.3079C131.512 86.1409 131.2 86.2244 131.117 86.4741C131.034 86.7861 131.179 87.0981 131.45 87.2439L135.568 89.7186C135.838 89.8849 136.15 89.8021 136.234 89.5524C136.317 89.2609 136.171 88.9489 135.901 88.7826Z" fill="white"/>
<path d="M144.766 104.407L138.422 100.6C138.152 100.434 137.84 100.517 137.757 100.767C137.694 101.079 137.819 101.391 138.089 101.536L144.433 105.343C144.704 105.509 145.016 105.426 145.099 105.176C145.182 104.864 145.037 104.552 144.766 104.407Z" fill="white"/>
<path d="M134.367 103.281L150.924 113.245C151.195 113.39 151.34 113.702 151.257 114.014C151.173 114.264 150.861 114.347 150.591 114.181L134.035 104.217C133.764 104.072 133.619 103.76 133.701 103.448C133.805 103.198 134.097 103.115 134.367 103.281Z" fill="white"/>
<path d="M101.705 83.6487L116.473 92.5304C116.743 92.6754 116.889 92.9874 116.806 93.2994C116.723 93.5492 116.411 93.6327 116.141 93.4664L101.373 84.5847C101.102 84.4389 100.957 84.1269 101.039 83.8149C101.143 83.5652 101.435 83.4824 101.705 83.6487Z" fill="white"/>
<path d="M127.203 98.9807L131.321 101.455C131.592 101.601 131.737 101.913 131.654 102.225C131.571 102.475 131.259 102.558 130.988 102.391L126.87 99.9167C126.6 99.7709 126.454 99.4589 126.537 99.1469C126.62 98.8767 126.912 98.8137 127.203 98.9807Z" fill="white"/>
<path d="M119.949 94.6096L124.068 97.0851C124.339 97.2309 124.484 97.5429 124.401 97.8549C124.317 98.1046 124.005 98.1874 123.735 98.0211L119.617 95.5456C119.347 95.4006 119.201 95.0886 119.284 94.7766C119.367 94.5269 119.659 94.4434 119.949 94.6096Z" fill="white"/>
<path d="M92.516 78.1161L98.86 81.9224C99.131 82.0681 99.276 82.3801 99.1932 82.6921C99.1097 82.9419 98.7977 83.0246 98.5275 82.8584L92.1835 79.0521C91.9132 78.9064 91.7675 78.5944 91.851 78.2824C91.955 78.0326 92.2457 77.9499 92.516 78.1161Z" fill="white"/>
</g>
<path d="M111.824 103.143L59.159 72.733C58.327 72.2546 57.8902 71.0898 58.2022 70.133L70.0998 31.4866C70.391 30.5298 71.3062 30.1346 72.1382 30.613L124.804 61.0018C125.636 61.4802 126.072 62.645 125.76 63.6018L113.842 102.269C113.551 103.226 112.636 103.621 111.824 103.143Z" fill="#F4F4F4"/>
<path d="M124.8 60.9971L72.1346 30.6083C71.677 30.3171 71.0946 30.3379 70.6578 30.6499C70.9282 30.6499 71.1778 30.7123 71.4066 30.8371L124.072 61.2467C124.904 61.7251 125.341 62.8899 125.029 63.8467L113.132 102.514C113.048 102.847 112.84 103.117 112.57 103.325C113.132 103.304 113.631 102.93 113.839 102.264L125.736 63.5971C126.048 62.6403 125.612 61.4755 124.8 60.9971Z" fill="#BADE98"/>
<path d="M74.1474 153.205C73.461 153.225 72.7954 153.059 72.1922 152.747L51.101 140.579C50.5394 140.247 50.2274 139.789 50.2274 139.289C50.2274 138.687 50.6434 138.104 51.3922 137.667L62.2498 131.385C63.581 130.616 65.5154 130.553 66.6802 131.219L87.7714 143.408C88.3332 143.72 88.6452 144.199 88.6452 144.697C88.6452 145.301 88.2292 145.883 87.4799 146.32L76.6229 152.581C75.8738 152.997 75.021 153.225 74.1474 153.205ZM64.7458 131.365C63.9762 131.365 63.2274 131.552 62.5618 131.927L51.7042 138.187C51.1634 138.499 50.8514 138.895 50.8514 139.269C50.8514 139.643 51.1634 139.893 51.413 140.039L72.5042 152.207C73.461 152.768 75.2082 152.685 76.3314 152.04L87.1892 145.779C87.7297 145.467 88.0417 145.072 88.0417 144.697C88.0417 144.323 87.7297 144.073 87.4799 143.928L66.389 131.76C65.8898 131.489 65.3282 131.365 64.7458 131.365Z" fill="white"/>
<path d="M84.9703 50.8905L81.7258 49.0185C81.4138 48.8105 81.268 48.4361 81.372 48.0825C81.4343 47.8121 81.684 47.6665 81.9543 47.7081C82.0165 47.7289 82.0583 47.7497 82.1205 47.7705L85.3658 49.6425C85.6778 49.8505 85.8228 50.2249 85.7188 50.5785C85.6565 50.8489 85.4068 50.9945 85.1365 50.9529C85.0538 50.9321 85.012 50.9113 84.9703 50.8905Z" fill="black"/>
<path d="M92.705 55.3667L87.9005 52.6003C87.5885 52.3923 87.4427 52.0179 87.5467 51.6643C87.609 51.4147 87.8587 51.2483 88.1085 51.2899C88.1707 51.3107 88.2125 51.3315 88.2747 51.3523L93.0792 54.1187C93.3912 54.3267 93.537 54.7011 93.433 55.0547C93.3707 55.3043 93.121 55.4707 92.8712 55.4291C92.809 55.4291 92.7672 55.4083 92.705 55.3667Z" fill="black"/>
<path d="M78.3962 65.39L75.1517 63.518C74.8397 63.31 74.6941 62.9356 74.7981 62.582C74.8605 62.3116 75.1101 62.166 75.3805 62.2076C75.4429 62.2284 75.4845 62.2492 75.5469 62.27L78.7917 64.142C79.1037 64.35 79.2495 64.7244 79.1455 65.078C79.0832 65.3484 78.8335 65.494 78.5632 65.4524C78.5002 65.4316 78.438 65.4108 78.3962 65.39Z" fill="black"/>
<path d="M85.3043 69.3638L80.499 66.5974C80.187 66.3894 80.042 66.015 80.146 65.6614C80.2083 65.4118 80.458 65.2454 80.707 65.287C80.77 65.3078 80.811 65.3286 80.874 65.3494L85.6785 68.1158C85.9905 68.3238 86.1363 68.6982 86.0323 69.0518C85.97 69.3222 85.7203 69.4886 85.45 69.4262C85.4083 69.4262 85.3665 69.4054 85.3043 69.3638Z" fill="black"/>
<path d="M75.2103 48.3133L73.1719 47.1485C72.8599 46.9405 72.7143 46.5661 72.8183 46.2125C72.8807 45.9421 73.1303 45.7757 73.4007 45.8381C73.4631 45.8589 73.5047 45.8797 73.5671 45.9005L75.6055 47.0653C75.9177 47.2733 76.0634 47.6477 75.9594 48.0013C75.8967 48.2717 75.6471 48.4173 75.3767 48.3757C75.3143 48.3757 75.2519 48.3341 75.2103 48.3133Z" fill="black"/>
<path d="M81.3265 54.8853L75.1072 51.3077C74.7952 51.0997 74.6496 50.7253 74.7536 50.3717C74.816 50.1221 75.0656 49.9557 75.3152 49.9973C75.3776 50.0181 75.4192 50.0389 75.4816 50.0597L81.7008 53.6373C82.0128 53.8453 82.1585 54.2197 82.0545 54.5733C81.9923 54.8437 81.7425 55.0101 81.4723 54.9477C81.4305 54.9477 81.3683 54.9269 81.3265 54.8853Z" fill="black"/>
<path d="M75.6093 57.6718L73.5709 56.507C73.2589 56.299 73.1133 55.9246 73.2173 55.571C73.2797 55.3006 73.5293 55.1342 73.7997 55.1966C73.8621 55.2174 73.9037 55.2382 73.9661 55.259L76.0043 56.4238C76.3163 56.6318 76.4621 57.0062 76.3581 57.3598C76.2958 57.6302 76.0461 57.7758 75.7757 57.7342C75.6925 57.7342 75.6509 57.6926 75.6093 57.6718Z" fill="black"/>
<path d="M86.0468 75.891L80.6175 72.7502C80.3055 72.5422 80.1597 72.1678 80.2637 71.8142C80.3268 71.5646 80.5757 71.3982 80.8255 71.4398C80.8877 71.4606 80.9295 71.4814 80.9917 71.5022L86.421 74.643C86.733 74.851 86.8787 75.2254 86.7747 75.579C86.7117 75.8286 86.4628 75.9951 86.213 75.9534C86.1508 75.9534 86.109 75.9329 86.0468 75.891Z" fill="black"/>
<path d="M73.3155 62.4572L72.0051 61.7084C71.6931 61.5004 71.5475 61.126 71.6515 60.7724C71.7139 60.502 71.9635 60.3564 72.2339 60.398C72.2963 60.4188 72.3379 60.4396 72.4003 60.4604L73.7107 61.2092C74.0227 61.4172 74.1683 61.7916 74.0643 62.1452C74.0019 62.4156 73.7523 62.582 73.4819 62.5196C73.4195 62.5196 73.3571 62.4988 73.3155 62.4572Z" fill="black"/>
<path d="M72.0763 67.8209L70.4539 66.8849C70.1419 66.6769 69.9963 66.3025 70.1003 65.9489C70.1627 65.6785 70.4123 65.5121 70.6827 65.5745C70.7451 65.5953 70.7867 65.6161 70.8491 65.6369L72.4715 66.5729C72.7835 66.7809 72.9291 67.1553 72.8251 67.5089C72.7627 67.7793 72.5131 67.9457 72.2427 67.8833C72.1803 67.8833 72.1387 67.8625 72.0763 67.8209Z" fill="black"/>
<path d="M78.3962 71.4659L74.1324 68.9907C73.8204 68.7827 73.6748 68.4083 73.7788 68.0547C73.8412 67.8051 74.0908 67.6387 74.3404 67.6803C74.4028 67.7011 74.4444 67.7219 74.5068 67.7427L78.7705 70.2179C79.0825 70.4259 79.2282 70.8003 79.1242 71.1539C79.062 71.4035 78.8122 71.5699 78.5625 71.5283C78.5002 71.5283 78.438 71.5075 78.3962 71.4659Z" fill="black"/>
<path d="M72.7642 71.275L69.6858 69.507C69.3738 69.299 69.2282 68.9246 69.3322 68.571C69.3946 68.3006 69.6442 68.1342 69.9146 68.1966C69.977 68.2174 70.0186 68.2382 70.081 68.259L73.1595 70.027C73.4715 70.235 73.617 70.6094 73.513 70.963C73.4506 71.2334 73.2011 71.379 72.9307 71.3374C72.8683 71.3166 72.8058 71.2958 72.7642 71.275Z" fill="black"/>
<path d="M90.704 78.5989L88.728 77.4549C88.416 77.2469 88.2702 76.8727 88.3742 76.5189C88.4365 76.2487 88.6862 76.0817 88.9565 76.1447C89.0187 76.1652 89.0605 76.1857 89.1227 76.2069L91.0987 77.3509C91.4107 77.5589 91.5565 77.9332 91.4525 78.2869C91.3902 78.5572 91.1405 78.7234 90.8702 78.6612C90.808 78.6612 90.7662 78.6407 90.704 78.5989Z" fill="black"/>
<path d="M83.1659 62.0416L77.7366 58.9008C77.4246 58.6928 77.2789 58.3184 77.3829 57.9648C77.4459 57.7152 77.6949 57.5488 77.9446 57.5904C78.0069 57.6112 78.0486 57.632 78.1109 57.6528L83.5401 60.7936C83.8521 61.0016 83.9979 61.376 83.8939 61.7296C83.8521 62 83.5819 62.1664 83.3321 62.104C83.2699 62.104 83.2281 62.0832 83.1659 62.0416Z" fill="black"/>
<path d="M83.8035 59.3553L74.3392 53.8849C74.0272 53.6769 73.8816 53.3025 73.9856 52.9489C74.048 52.6785 74.2976 52.5121 74.568 52.5745C74.6304 52.5953 74.672 52.6161 74.7344 52.6369L84.1982 58.1073C84.5102 58.3153 84.656 58.6897 84.552 59.0433C84.4897 59.3137 84.24 59.4801 83.9697 59.4177C83.9075 59.4177 83.8445 59.3969 83.8035 59.3553Z" fill="url(#paint5_linear_1_888)"/>
<path d="M78.2315 62.227L72.8028 59.0862C72.4908 58.8782 72.3452 58.5038 72.4492 58.1502C72.5116 57.8798 72.7612 57.7342 73.0316 57.7758C73.094 57.7966 73.1356 57.8174 73.198 57.8382L78.627 60.979C78.939 61.187 79.0848 61.5614 78.9808 61.915C78.9178 62.1646 78.6688 62.331 78.3978 62.2686C78.315 62.2894 78.2733 62.2686 78.2315 62.227Z" fill="url(#paint6_linear_1_888)"/>
<path d="M87.2772 64.4112L85.3012 63.288C84.9892 63.08 84.8435 62.7056 84.9475 62.352C85.0097 62.0816 85.2595 61.9152 85.5297 61.9776C85.592 61.9984 85.6337 62.0192 85.696 62.04L87.672 63.184C87.984 63.392 88.1297 63.7664 88.0257 64.12C87.9635 64.3696 87.7137 64.536 87.4435 64.4736C87.3812 64.4736 87.3182 64.4528 87.2772 64.4112Z" fill="url(#paint7_linear_1_888)"/>
<path d="M107.355 63.8089L95.6861 57.0697C95.3741 56.8617 95.2283 56.4873 95.3323 56.1337C95.3946 55.8633 95.6443 55.7177 95.9146 55.7593C95.9768 55.7801 96.0186 55.8009 96.0808 55.8217L107.771 62.5609C108.083 62.7689 108.228 63.1433 108.124 63.4969C108.083 63.7673 107.812 63.9337 107.563 63.8713C107.48 63.8713 107.417 63.8505 107.355 63.8089Z" fill="url(#paint8_linear_1_888)"/>
<path d="M77.7677 68.0725L71.2367 64.3077C70.9247 64.0997 70.7791 63.7253 70.8831 63.3717C70.9455 63.1221 71.1951 62.9557 71.4447 62.9973C71.5071 63.0181 71.5487 63.0389 71.6111 63.0597L78.1427 66.8245C78.4547 67.0325 78.5997 67.4069 78.4957 67.7605C78.4547 68.0309 78.1837 68.1973 77.9347 68.1349C77.8717 68.1349 77.8095 68.1141 77.7677 68.0725Z" fill="url(#paint9_linear_1_888)"/>
<path d="M78.7455 47.2928L73.9404 44.5264C73.6284 44.3184 73.4828 43.944 73.5868 43.5904C73.6492 43.32 73.8988 43.1536 74.1692 43.216C74.2316 43.2368 74.2732 43.2576 74.3356 43.2784L79.1402 46.0448C79.4522 46.2528 79.598 46.6272 79.494 46.9808C79.4317 47.2304 79.182 47.3968 78.9322 47.3552C78.8495 47.3552 78.7865 47.3344 78.7455 47.2928Z" fill="url(#paint10_linear_1_888)"/>
<path d="M71.7589 73.7296L66.1845 70.5264C65.8725 70.3184 65.7269 69.944 65.8309 69.5904C65.8933 69.32 66.1429 69.1536 66.4133 69.216C66.4757 69.2368 66.5173 69.2576 66.5797 69.2784L72.1333 72.4816C72.4453 72.6896 72.5909 73.064 72.4869 73.4176C72.4245 73.6672 72.1749 73.8336 71.9253 73.792C71.8629 73.792 71.8005 73.7712 71.7589 73.7296Z" fill="url(#paint11_linear_1_888)"/>
<path d="M108.653 57.7945L106.283 56.4217C106.053 56.2761 105.949 56.0057 106.012 55.7353C106.053 55.5481 106.241 55.4233 106.428 55.4649C106.469 55.4649 106.511 55.4857 106.532 55.5065L108.903 56.8793C109.132 57.0249 109.236 57.2953 109.173 57.5657C109.132 57.7529 108.945 57.8777 108.757 57.8361C108.737 57.8361 108.695 57.8361 108.653 57.7945Z" fill="black"/>
<path d="M113.218 60.4165L110.847 59.0437C110.618 58.8981 110.514 58.6277 110.577 58.3573C110.618 58.1701 110.806 58.0453 110.993 58.0869C111.034 58.0869 111.076 58.1077 111.097 58.1285L113.468 59.5013C113.697 59.6469 113.801 59.9173 113.738 60.1877C113.697 60.3749 113.51 60.4997 113.322 60.4581C113.281 60.4581 113.239 60.4581 113.218 60.4165Z" fill="black"/>
<path d="M117.754 63.0387L115.382 61.6659C115.154 61.5203 115.05 61.2499 115.112 60.9795C115.154 60.7923 115.341 60.6675 115.528 60.7091C115.57 60.7091 115.612 60.7299 115.632 60.7507L118.004 62.1235C118.232 62.2691 118.336 62.5395 118.274 62.8099C118.232 62.9971 118.045 63.1219 117.858 63.0803C117.837 63.0803 117.796 63.0803 117.754 63.0387Z" fill="black"/>
<path d="M119.98 64.3297L119.918 64.2881C119.689 64.1425 119.585 63.8721 119.647 63.6017C119.689 63.4145 119.876 63.2897 120.063 63.3313C120.105 63.3313 120.147 63.3521 120.188 63.3729L120.251 63.4145C120.479 63.5601 120.583 63.8305 120.521 64.1009C120.479 64.2881 120.292 64.4129 120.105 64.3713C120.063 64.3713 120.022 64.3505 119.98 64.3297Z" fill="url(#paint12_linear_1_888)"/>
<path d="M182.002 102.493L138.738 77.5127C138.031 77.0549 137.719 76.1812 137.948 75.37L147.724 43.6084C147.973 42.818 148.722 42.506 149.388 42.9012L192.652 67.882C193.359 68.3396 193.671 69.2132 193.442 70.0244L183.666 101.765C183.437 102.555 182.689 102.889 182.002 102.493Z" fill="#F4F4F4"/>
<path d="M192.656 67.8851L149.392 42.9043C149.018 42.6755 148.539 42.6755 148.186 42.9459C148.414 42.9459 148.622 42.9875 148.81 43.1123L192.074 68.0723C192.78 68.5299 193.092 69.4035 192.864 70.2147L183.088 101.976C183.004 102.246 182.859 102.476 182.63 102.642C183.13 102.6 183.546 102.246 183.67 101.768L193.446 70.0067C193.675 69.1955 193.363 68.3427 192.656 67.8851Z" fill="#BADE98"/>
<path d="M147.114 65.0148L149.527 66.3876L148.737 69.0292L146.323 67.6564L147.114 65.0148Z" fill="black"/>
<path d="M171.156 78.2642C170.886 78.8464 170.428 79.3042 169.825 79.5539C168.806 80.0739 167.62 79.9487 166.289 79.1789C165.166 78.5139 164.251 77.5362 163.71 76.3299C163.107 75.0608 163.065 73.5424 163.585 71.7536C164.084 70.0896 164.833 69.0288 165.873 68.5712C166.913 68.1136 168.015 68.2176 169.243 68.9248C169.95 69.32 170.574 69.84 171.073 70.4848C171.572 71.1504 171.926 71.92 172.092 72.7312C172.259 73.5008 172.279 74.312 172.155 75.1024C172.03 75.768 171.863 76.4127 171.655 77.0579L165.707 73.688C165.457 74.6656 165.519 75.4976 165.915 76.1842C166.164 76.6002 166.518 76.9539 166.934 77.1824C167.391 77.4527 167.828 77.5149 168.203 77.3904C168.431 77.3069 168.66 77.1619 168.827 76.9744L171.156 78.2642ZM169.783 74.0416C169.95 73.4384 169.908 72.7936 169.679 72.2112C169.471 71.6912 169.097 71.2752 168.619 71.0048C168.099 70.7136 167.641 70.6512 167.225 70.8592C166.809 71.0672 166.497 71.4416 166.227 72.024L169.783 74.0416Z" fill="black"/>
<path d="M176.461 82.4864L175.9 84.3797L174.819 83.8179C173.737 83.2562 173.051 82.6322 172.801 81.9459C172.635 81.4464 172.635 80.8847 172.821 80.3859L174.589 74.4578L173.383 73.7714L173.924 71.9826L175.131 72.669L175.921 69.9858L178.167 71.2546L177.377 73.9378L178.791 74.749L178.251 76.5379L176.836 75.7266L175.317 80.8224C175.193 81.2179 175.172 81.4882 175.235 81.6339C175.297 81.7797 175.567 81.9877 176.025 82.2579L176.253 82.3824L176.461 82.4864Z" fill="black"/>
<path d="M160.495 76.1416L157.915 74.6232L155.482 62.5384L152.882 71.6696L150.49 70.2552L154.151 57.4216L156.855 59.0024L159.205 70.8584L161.763 61.8936L164.155 63.308L160.495 76.1416Z" fill="black"/>
<defs>
<linearGradient id="paint0_linear_1_888" x1="72.1868" y1="84.448" x2="177.187" y2="84.448" gradientUnits="userSpaceOnUse">
<stop stop-color="#DA9A0E"/>
<stop offset="0.18" stop-color="#D6910E"/>
<stop offset="0.47" stop-color="#CC7A0D"/>
<stop offset="0.82" stop-color="#BB530C"/>
<stop offset="1" stop-color="#B13E0B"/>
</linearGradient>
<linearGradient id="paint1_linear_1_888" x1="14.4919" y1="135.294" x2="153.115" y2="135.294" gradientUnits="userSpaceOnUse">
<stop stop-color="#E9A41C"/>
<stop offset="0.21" stop-color="#E4961C"/>
<stop offset="0.61" stop-color="#D9731D"/>
<stop offset="1" stop-color="#CB4A1D"/>
</linearGradient>
<linearGradient id="paint2_linear_1_888" x1="14.4675" y1="132.906" x2="153.143" y2="132.906" gradientUnits="userSpaceOnUse">
<stop stop-color="#FFB500"/>
<stop offset="0.17" stop-color="#FFAC00"/>
<stop offset="0.45" stop-color="#FF9500"/>
<stop offset="0.79" stop-color="#FF6E00"/>
<stop offset="0.97" stop-color="#FF5700"/>
</linearGradient>
<linearGradient id="paint3_linear_1_888" x1="70.8028" y1="84.7441" x2="173.983" y2="84.7441" gradientUnits="userSpaceOnUse">
<stop stop-color="#FFB500"/>
<stop offset="0.19" stop-color="#FFA900"/>
<stop offset="0.52" stop-color="#FF8A00"/>
<stop offset="0.96" stop-color="#FF5800"/>
<stop offset="0.97" stop-color="#FF5700"/>
</linearGradient>
<linearGradient id="paint4_linear_1_888" x1="72.5178" y1="84.7676" x2="172.289" y2="84.7676" gradientUnits="userSpaceOnUse">
<stop stop-color="#3919BA"/>
<stop offset="1" stop-color="#6507F9"/>
</linearGradient>
<linearGradient id="paint5_linear_1_888" x1="73.9482" y1="56.0075" x2="84.5664" y2="56.0075" gradientUnits="userSpaceOnUse">
<stop stop-color="#FFB500"/>
<stop offset="0.17" stop-color="#FFAC00"/>
<stop offset="0.45" stop-color="#FF9500"/>
<stop offset="0.79" stop-color="#FF6E00"/>
<stop offset="0.97" stop-color="#FF5700"/>
</linearGradient>
<linearGradient id="paint6_linear_1_888" x1="72.399" y1="60.0436" x2="78.9838" y2="60.0436" gradientUnits="userSpaceOnUse">
<stop stop-color="#FFB500"/>
<stop offset="0.17" stop-color="#FFAC00"/>
<stop offset="0.45" stop-color="#FF9500"/>
<stop offset="0.79" stop-color="#FF6E00"/>
<stop offset="0.97" stop-color="#FF5700"/>
</linearGradient>
<linearGradient id="paint7_linear_1_888" x1="84.9163" y1="63.2323" x2="88.0424" y2="63.2323" gradientUnits="userSpaceOnUse">
<stop stop-color="#FFB500"/>
<stop offset="0.17" stop-color="#FFAC00"/>
<stop offset="0.45" stop-color="#FF9500"/>
<stop offset="0.79" stop-color="#FF6E00"/>
<stop offset="0.97" stop-color="#FF5700"/>
</linearGradient>
<linearGradient id="paint8_linear_1_888" x1="95.2944" y1="59.8273" x2="108.133" y2="59.8273" gradientUnits="userSpaceOnUse">
<stop stop-color="#FFB500"/>
<stop offset="0.17" stop-color="#FFAC00"/>
<stop offset="0.45" stop-color="#FF9500"/>
<stop offset="0.79" stop-color="#FF6E00"/>
<stop offset="0.97" stop-color="#FF5700"/>
</linearGradient>
<linearGradient id="paint9_linear_1_888" x1="70.8428" y1="65.5677" x2="78.5238" y2="65.5677" gradientUnits="userSpaceOnUse">
<stop stop-color="#FFB500"/>
<stop offset="0.17" stop-color="#FFAC00"/>
<stop offset="0.45" stop-color="#FF9500"/>
<stop offset="0.79" stop-color="#FF6E00"/>
<stop offset="0.97" stop-color="#FF5700"/>
</linearGradient>
<linearGradient id="paint10_linear_1_888" x1="73.5556" y1="45.2957" x2="79.5084" y2="45.2957" gradientUnits="userSpaceOnUse">
<stop stop-color="#FFB500"/>
<stop offset="0.17" stop-color="#FFAC00"/>
<stop offset="0.45" stop-color="#FF9500"/>
<stop offset="0.79" stop-color="#FF6E00"/>
<stop offset="0.97" stop-color="#FF5700"/>
</linearGradient>
<linearGradient id="paint11_linear_1_888" x1="65.804" y1="71.5092" x2="72.5152" y2="71.5092" gradientUnits="userSpaceOnUse">
<stop stop-color="#FFB500"/>
<stop offset="0.17" stop-color="#FFAC00"/>
<stop offset="0.45" stop-color="#FF9500"/>
<stop offset="0.79" stop-color="#FF6E00"/>
<stop offset="0.97" stop-color="#FF5700"/>
</linearGradient>
<linearGradient id="paint12_linear_1_888" x1="119.622" y1="63.8555" x2="120.54" y2="63.8555" gradientUnits="userSpaceOnUse">
<stop stop-color="#FFB500"/>
<stop offset="0.17" stop-color="#FFAC00"/>
<stop offset="0.45" stop-color="#FF9500"/>
<stop offset="0.79" stop-color="#FF6E00"/>
<stop offset="0.97" stop-color="#FF5700"/>
</linearGradient>
</defs>
</svg>
