<svg width="86" height="32" viewBox="0 0 86 32" fill="none" xmlns="http://www.w3.org/2000/svg">
<path d="M73.1531 23.952C73.1531 24.6704 73.0133 24.9192 72.2364 24.9093C69.7638 24.8794 69.7638 24.9093 69.7638 22.4395C69.7638 17.0355 69.7638 11.6322 69.7638 6.22952C69.7638 4.38662 68.9649 3.79162 67.1674 4.27922C66.8179 4.37472 66.4844 4.53192 66.1429 4.65932C65.332 4.96182 65.0484 5.49122 65.0544 6.40072C65.1043 12.2339 65.0544 18.0671 65.1003 23.9022C65.1003 24.6983 64.8626 24.8814 64.1017 24.8675C61.7889 24.8237 61.7889 24.8675 61.7889 22.5449C61.7889 17.141 61.7889 11.7383 61.7889 6.33702C61.7889 4.36082 60.99 3.76372 59.0966 4.29912C57.3371 4.79662 57.1094 5.09512 57.1094 6.89622C57.1094 12.5324 57.0854 18.1666 57.1333 23.8007C57.1333 24.7102 56.8777 24.8933 56.0229 24.8695C53.746 24.8097 53.744 24.8515 53.744 22.6265C53.744 15.8301 53.76 9.03572 53.7261 2.24122C53.7261 1.41732 53.9258 1.08492 54.7626 1.21432C55.0609 1.24322 55.3612 1.24322 55.6594 1.21432C56.5601 1.17652 57.5328 1.03922 57.0794 2.66712C58.6173 1.38552 60.1192 0.784421 61.8728 1.00532C62.8294 1.12472 63.7162 1.45712 64.2475 2.29692C64.629 2.89402 64.8806 2.70892 65.306 2.37852C66.73 1.27002 68.3298 0.730721 70.1533 1.05712C71.6992 1.33772 72.6378 2.27112 72.9694 3.77962C73.0816 4.33172 73.1351 4.89412 73.1292 5.45732C73.1392 11.6229 73.1232 17.7884 73.1531 23.952Z" fill="#464648"/>
<path d="M38.1968 4.95802C37.9971 2.17172 35.9819 0.603519 33.2037 1.01942C32.2448 1.16162 31.3381 1.54522 30.5694 2.13392C30.2678 2.36082 29.8803 2.53202 29.9123 1.95082C29.9562 1.15482 29.5128 1.19852 28.9776 1.21652C28.4797 1.25632 27.9795 1.25632 27.4816 1.21652C26.6828 1.11302 26.483 1.41552 26.483 2.21152C26.521 6.85262 26.501 11.4937 26.501 16.1427V28.4818C26.501 31.1108 26.501 31.0889 29.1833 31.0372C29.7825 31.0272 29.8903 30.8262 29.8823 30.2948C29.8544 28.4062 29.8663 26.5135 29.8823 24.6248C29.8823 24.3442 29.7385 23.9581 30.0281 23.8049C30.3177 23.6516 30.5334 24.0298 30.7711 24.179C32.4987 25.2597 34.3281 25.5602 36.1736 24.6308C37.9212 23.7512 38.2287 22.0675 38.2407 20.3022C38.2407 20.0375 38.2407 19.7728 38.2407 19.5061C38.2407 15.8256 38.2407 12.1451 38.2407 8.46472C38.2387 7.27652 38.2807 6.11232 38.1968 4.95802ZM34.8994 19.6852C34.8994 21.55 34.1264 22.1889 32.265 21.8744C31.8744 21.8 31.4924 21.6867 31.1246 21.5361C30.2458 21.1998 29.7904 20.6684 29.8404 19.6036C29.9402 17.4144 29.8703 15.2253 29.8703 13.046C29.8703 10.7295 29.8923 8.40892 29.8544 6.09242C29.8284 5.83202 29.8845 5.57002 30.0147 5.34292C30.145 5.11572 30.3431 4.93452 30.5813 4.82462C31.2966 4.39872 32.1092 4.16172 32.9421 4.13602C34.2503 4.13602 34.8614 4.67142 34.8874 5.97892C34.9233 7.83382 34.9014 9.68862 34.9014 11.5514C34.9014 14.2521 34.9073 16.9687 34.8994 19.6832V19.6852Z" fill="#464648"/>
<path d="M51.7 6.06339C51.6601 2.62239 49.8745 0.974587 46.4473 0.950687C41.8097 0.918787 40.2839 2.43339 40.2819 7.07049C40.2819 9.57009 40.2819 9.55019 42.7724 9.52629C43.3716 9.52629 43.6013 9.37909 43.5713 8.75219C43.5234 7.82669 43.5314 6.89529 43.5713 5.96589C43.6332 4.58469 44.3422 4.00959 45.9021 4.00759C47.4619 4.00559 48.1829 4.56679 48.2388 5.94999C48.2868 7.10829 48.2208 8.27249 48.2728 9.43079C48.2987 10.0099 48.073 10.2408 47.5458 10.408C46.0578 10.8836 44.5759 11.3851 43.1119 11.9245C41.4263 12.5434 40.3757 13.7475 40.3278 15.5605C40.2532 17.7105 40.2925 19.8629 40.4456 22.0087C40.5914 23.8754 41.7998 24.8884 43.6652 25.0835C45.3888 25.2626 46.8607 24.6854 48.4286 23.4336C47.8693 25.1113 48.8699 24.8586 49.6748 24.8486C50.1422 24.8486 50.6095 24.8168 51.0729 24.8486C51.6181 24.8964 51.738 24.6496 51.736 24.1581C51.728 18.1318 51.7699 12.0956 51.7 6.06339ZM47.4759 21.3599C46.8273 21.7015 46.1186 21.915 45.3888 21.9888C44.2504 22.0684 43.6232 21.5131 43.6013 20.3688C43.5753 19.0433 43.6013 17.7159 43.6013 16.3884C43.5793 15.9529 43.697 15.5217 43.9371 15.1571C44.1773 14.7926 44.5276 14.5136 44.9374 14.3604C45.8222 13.9823 46.7349 13.6719 47.6317 13.3156C48.121 13.1166 48.2808 13.2818 48.2708 13.7873C48.2488 14.8819 48.2708 15.9765 48.2708 17.0691C48.2708 18.0642 48.2228 19.0592 48.2868 20.0543C48.3207 20.729 48.0511 21.0832 47.4759 21.3599Z" fill="#464648"/>
<path d="M22.1458 17.192C21.315 17.1721 20.8996 17.3154 21.0394 18.2527C21.0947 18.8145 21.098 19.3801 21.0494 19.9424C20.9994 21.4549 20.3503 22.0002 18.6307 21.9962C16.9111 21.9923 16.282 21.433 16.26 19.8946C16.238 18.3562 16.292 16.776 16.236 15.2197C16.2101 14.4814 16.4977 14.346 17.1588 14.358C19.2539 14.3938 21.3529 14.3401 23.448 14.3898C24.173 14.4057 24.3268 14.1669 24.3168 13.4903C24.2769 11.102 24.3168 8.7138 24.2969 6.3256C24.2689 2.6637 22.5673 0.968095 18.9063 0.950195H18.3072C14.6942 0.960095 12.9147 2.6896 12.8687 6.3237C12.8428 8.0133 12.8507 9.7069 12.8547 11.3926C12.8547 11.9897 12.8547 12.5867 12.8547 13.1838C12.8547 13.5559 12.8547 13.9281 12.8547 14.3022C12.8547 16.382 12.8288 18.4637 12.8667 20.5434C12.9147 23.0888 14.3786 24.6869 16.9011 25.0551C18.0212 25.2243 19.1604 25.2243 20.2804 25.0551C22.5053 24.7148 23.8754 23.3774 24.199 21.1643C24.2732 20.5703 24.3053 19.9718 24.2949 19.3732C24.3128 17.2099 24.3048 17.2477 22.1458 17.192ZM16.292 6.047C16.3359 4.6081 17.0549 4.0807 18.8045 4.1026C20.3423 4.1225 20.9835 4.6997 21.0214 6.1406C21.0394 6.8351 21.0214 7.5337 21.0214 8.2243C21.0214 8.9845 20.9954 9.7467 21.0214 10.507C21.0454 11.0304 20.8476 11.1996 20.3344 11.1876C19.2079 11.1598 18.0775 11.1598 16.9391 11.1876C16.4338 11.1996 16.234 11.0443 16.244 10.513C16.298 9.0144 16.248 7.5178 16.292 6.0371V6.047Z" fill="#464648"/>
<path d="M8.63141 22.534C8.19601 22.534 8.0522 22.2256 7.8485 22.0365C5.4678 19.8194 3.107 17.5785 0.710405 15.3774C0.225005 14.9316 0.127204 14.452 0.0453045 13.831C-0.180396 12.1215 0.444704 10.9413 1.7529 9.82278C4.0657 7.83258 6.2167 5.66538 8.6214 3.39258C8.6214 4.93498 8.6334 6.26438 8.6214 7.59378C8.6214 7.91818 8.29981 8.08338 8.08811 8.28438C6.67011 9.63568 5.27 11.007 3.8121 12.3145C3.1969 12.8638 3.04511 13.1862 3.77211 13.8091C5.25211 15.0808 6.63021 16.474 8.08011 17.7954C8.27101 17.9491 8.42191 18.1464 8.51991 18.3706C8.61801 18.5947 8.6603 18.8391 8.6434 19.0831C8.6054 20.2274 8.63141 21.3738 8.63141 22.534Z" fill="#39C2D7"/>
<path d="M84.191 16.488C82.016 18.2234 80.087 20.2693 78.045 22.16C77.886 22.3073 77.772 22.5441 77.39 22.5302C77.39 21.2246 77.39 19.9171 77.39 18.6115C77.39 18.2135 77.698 18.0443 77.932 17.8154C79.431 16.4044 80.927 14.9834 82.449 13.6062C82.913 13.1883 82.911 12.9475 82.449 12.5296C80.935 11.1364 79.469 9.68764 77.961 8.29054C77.757 8.12304 77.596 7.90914 77.492 7.66664C77.387 7.42424 77.343 7.16044 77.362 6.89744C77.408 5.81274 77.374 4.72614 77.374 3.36084C80.266 6.09334 82.967 8.64474 85.663 11.1882C85.91 11.423 85.904 11.6977 85.94 11.9982C86.168 13.8252 85.747 15.2461 84.191 16.488Z" fill="#39C2D7"/>
</svg>
