<svg width="69" height="46" viewBox="0 0 69 46" fill="none" xmlns="http://www.w3.org/2000/svg">
<path d="M68.664 13.8509L66.845 14.1673C63.14 14.8124 59.692 15.7967 56.554 16.9553V6.97317L55.586 7.41088C53.386 8.40349 51.299 9.4407 49.31 10.5339L49.243 0.075716L48.19 0.751978C43.067 4.0389 38.369 7.7739 34.174 11.8854C30.133 8.04772 25.579 4.32102 20.5786 0.769611L19.4944 0V10.8399C17.3282 9.61703 15.1073 8.50306 12.8399 7.50734L11.8724 7.08208L11.9179 16.3641C8.59943 15.219 5.25823 14.4712 1.94693 14.133L0.317627 13.9671L13.3603 30.3426L13.3025 18.3555C15.5441 19.2341 17.6184 20.237 19.4955 21.2711V31.6484L19.6307 31.832C23.4655 37.0181 33.554 45.4537 33.982 45.8105L34.418 46.1746L34.857 45.8126C35.285 45.4599 45.381 37.1114 49.218 31.7231L49.444 31.3352L49.383 21.6736C51.146 20.7422 53.085 19.8211 55.181 18.9685V30.3934L68.664 13.8509ZM56.554 18.4292C59.223 17.4189 62.127 16.5332 65.23 15.8828L56.554 26.5267V18.4292ZM3.46583 15.7117C6.46313 16.1452 9.29633 16.8993 11.923 17.839L11.9643 26.3815L3.46583 15.7117ZM47.875 2.60133L47.888 11.3336C44.819 13.1031 41.984 15.0219 39.318 17.1399C38.737 16.4989 38.141 15.859 37.527 15.22C36.759 14.4193 35.966 13.6238 35.155 12.8313C38.982 9.08182 43.211 5.68288 47.875 2.60133ZM24.7706 22.8871C23.4861 22.0169 22.1831 21.2058 20.8677 20.4548V13.2452C23.4169 14.7937 25.8826 16.4989 28.2491 18.3514C27.0452 19.8149 25.8846 21.3271 24.7706 22.8871ZM29.316 19.1998C30.657 20.2879 31.965 21.4236 33.237 22.6039C32.008 23.8486 30.81 25.1545 29.634 26.5277C28.5454 25.6285 27.294 24.6576 25.896 23.6661C26.9905 22.132 28.1293 20.6426 29.316 19.1998ZM38.257 17.9998C36.867 19.1511 35.524 20.3584 34.216 21.6331C32.914 20.4227 31.575 19.2589 30.202 18.1439C31.478 16.6452 32.807 15.1951 34.189 13.7928C35.621 15.1869 36.978 16.5892 38.257 17.9998ZM38.05 27.482C36.209 28.9662 34.937 30.1663 34.279 30.8156C33.646 30.1497 32.427 28.9226 30.686 27.4176C31.845 26.0651 33.029 24.7779 34.24 23.552C35.552 24.8142 36.822 26.1242 38.05 27.482ZM29.795 28.4756C32.316 30.66 33.728 32.2479 33.749 32.2718L34.249 32.8392L34.765 32.2863C34.786 32.2635 36.261 30.6963 38.969 28.5161C39.831 29.5035 40.67 30.5148 41.486 31.5478L34.463 38.2181L27.3312 31.5955C28.1438 30.5179 28.9636 29.4786 29.795 28.4756ZM35.219 22.5822C36.5 21.3365 37.817 20.1561 39.177 19.0308C40.573 20.6208 41.87 22.2181 43.063 23.8175C42.934 23.9025 42.809 23.9866 42.685 24.0695C41.361 24.9595 40.175 25.8235 39.134 26.6263C37.873 25.2291 36.567 23.8808 35.219 22.5822ZM40.24 18.1719C42.635 16.2749 45.17 14.5407 47.893 12.932L47.905 20.9019C46.566 21.6342 45.333 22.3664 44.216 23.0728C42.998 21.4381 41.672 19.8035 40.24 18.1719ZM20.8677 2.67497C25.4149 5.96915 29.542 9.37639 33.206 12.849C32.49 13.575 31.788 14.3104 31.102 15.0582C30.434 15.7884 29.778 16.5342 29.134 17.2914C26.4928 15.2221 23.7308 13.3313 20.8677 11.6354V2.67497ZM15.2766 17.6627C14.6169 17.3806 13.955 17.113 13.2922 16.8619L13.255 9.20629C15.3799 10.1771 17.4614 11.2537 19.4924 12.4289V19.6946C18.0975 18.9478 16.6901 18.2684 15.2766 17.6627ZM23.9797 24.0146C22.8955 25.5859 21.8568 27.1998 20.8687 28.8542V22.0522C21.989 22.7118 23.0298 23.3736 23.9797 24.0146ZM34.421 44.3792C32.465 42.7196 24.4639 35.8388 21.0029 31.3653C22.2894 29.0876 23.6565 26.899 25.1051 24.7956C26.4608 25.7581 27.6802 26.7051 28.7437 27.5857C27.769 28.7629 26.8087 29.9879 25.8578 31.2657L25.4871 31.7636L34.473 40.109L43.34 31.6878L42.956 31.1931C42.02 29.9868 41.051 28.8096 40.053 27.6635C41.054 26.8918 42.19 26.0651 43.45 25.2188C43.589 25.1244 43.733 25.0289 43.877 24.9335C45.385 27.0432 46.711 29.1571 47.846 31.2647C44.401 35.8854 36.382 42.731 34.421 44.3792ZM47.916 28.5959C47.045 27.1303 46.083 25.6606 45.03 24.1888C45.917 23.6298 46.878 23.0541 47.907 22.4764L47.916 28.5959ZM49.37 20.1229L49.318 12.1084C51.18 11.0619 53.128 10.0672 55.179 9.11502V17.4822C53.089 18.3099 51.147 19.2081 49.37 20.1229Z" fill="#BA8D5B"/>
</svg>
