<svg width="119" height="32" viewBox="0 0 119 32" fill="none" xmlns="http://www.w3.org/2000/svg">
<path fill-rule="evenodd" clip-rule="evenodd" d="M0.0234375 13.2141H7.5158V11.4312C7.5158 9.2587 9.2835 7.4923 11.4547 7.4923H21.8327V0H11.4547C5.1519 0 0.0234375 5.127 0.0234375 11.4299V13.2141ZM0.0234375 32H7.5158V23.9625C7.5158 21.79 9.2835 20.0236 11.4547 20.0236H21.8327V12.5313H11.4547C5.1519 12.5313 0.0234375 17.6597 0.0234375 23.9625V32ZM33.6094 5.5993H35.0288V14.2233H37.1532V5.5993H39.2073V3.9444H37.1229V2.9752C37.1229 2.0651 37.5538 1.6053 38.4735 1.6053C38.7585 1.6053 39.0421 1.626 39.2472 1.6645V0.0977001C38.9732 0.0496001 38.4941 0 38.0632 0C35.9691 0 35.0288 0.9403 35.0288 2.9366V3.9444H33.6094V5.5993ZM41.7102 0C41.0343 0 40.4863 0.5383 40.4863 1.2143C40.4863 1.8793 41.0343 2.4176 41.7102 2.419C42.3959 2.419 42.9438 1.8793 42.9438 1.2143C42.9438 0.5383 42.3959 0 41.7102 0ZM40.6529 3.9251V14.2233H42.7676V3.9251H40.6529ZM43.8691 9.0744C43.8691 5.8252 45.5915 3.7587 48.1756 3.7587C49.6543 3.7587 50.8287 4.5022 51.4055 5.638H51.4441V0.0979004H53.5684V14.2221H51.5143V12.4708H51.4757C50.8686 13.6452 49.6942 14.3997 48.1963 14.3997C45.5915 14.3997 43.8691 12.3235 43.8691 9.0744ZM46.032 9.0744C46.032 11.2469 47.0797 12.6085 48.7539 12.6085C50.3785 12.6085 51.4647 11.229 51.4647 9.0744C51.4647 6.9404 50.3785 5.5402 48.7539 5.5402C47.0797 5.5402 46.032 6.9115 46.032 9.0744ZM59.5546 3.7399C56.6179 3.7399 54.6698 5.7665 54.6698 9.0749C54.6698 12.3929 56.6083 14.4195 59.5546 14.4195C62.5008 14.4195 64.4393 12.3929 64.4393 9.0749C64.4393 5.7665 62.4912 3.7399 59.5546 3.7399ZM59.5546 5.4829C61.2094 5.4829 62.2861 6.7936 62.2861 9.0749C62.2861 11.3644 61.2191 12.6765 59.5546 12.6765C57.8997 12.6765 56.8231 11.3658 56.8231 9.0749C56.8231 6.795 57.8997 5.4829 59.5546 5.4829ZM72.7812 3.7399C75.0722 3.7399 76.6775 5.0217 76.7449 6.8528H74.7583C74.6605 5.9235 73.9061 5.3452 72.722 5.3452C71.5766 5.3452 70.8139 5.9028 70.8139 6.7151C70.8139 7.3512 71.3233 7.7821 72.3903 8.0464L74.1222 8.4484C76.197 8.9482 76.9804 9.7302 76.9804 11.2474C76.9804 13.1267 75.2277 14.4195 72.7028 14.4195C70.2659 14.4195 68.651 13.157 68.4844 11.268H70.5784C70.745 12.2566 71.5078 12.8045 72.8005 12.8045C74.0726 12.8045 74.856 12.2758 74.856 11.4443C74.856 10.7889 74.465 10.4268 73.3884 10.1529L71.5477 9.7027C69.6877 9.2525 68.7487 8.2832 68.7487 6.8445C68.7473 5.0024 70.3733 3.7399 72.7812 3.7399ZM80.7649 3.9258V1.4889H78.6406V3.9258H77.1427V5.5999H78.6406V11.5103C78.6406 13.497 79.4543 14.29 81.5387 14.29C82.0081 14.29 82.4776 14.2515 82.713 14.1923V12.5181C82.5754 12.5484 82.2326 12.5677 82.0178 12.5677C81.1559 12.5677 80.7649 12.1671 80.7649 11.2763V5.5999H82.7227V3.9258H80.7649ZM92.68 14.2236H90.6545V12.4806H90.6049C90.0377 13.7142 88.99 14.4094 87.4136 14.4094C85.1722 14.4094 83.801 12.9514 83.801 10.5917V3.9254H85.9157V10.18C85.9157 11.7468 86.6591 12.588 88.1185 12.588C89.6453 12.588 90.565 11.5306 90.565 9.9253V3.9254H92.68V14.2236ZM98.012 3.7587C95.427 3.7587 93.705 5.8252 93.705 9.0744C93.705 12.3235 95.427 14.3997 98.031 14.3997C99.529 14.3997 100.703 13.6452 101.31 12.4708H101.349V14.2221H103.404V0.0979004H101.28V5.638H101.241C100.665 4.5022 99.49 3.7587 98.012 3.7587ZM98.59 12.6085C96.916 12.6085 95.868 11.2469 95.868 9.0744C95.868 6.9115 96.916 5.5402 98.59 5.5402C100.214 5.5402 101.301 6.9404 101.301 9.0744C101.301 11.229 100.214 12.6085 98.59 12.6085ZM104.869 1.2143C104.869 0.5383 105.417 0 106.093 0C106.779 0 107.327 0.5383 107.327 1.2143C107.327 1.8793 106.779 2.419 106.093 2.419C105.417 2.4176 104.869 1.8793 104.869 1.2143ZM107.15 3.9251V14.2233H105.036V3.9251H107.15ZM113.137 3.7399C110.2 3.7399 108.252 5.7665 108.252 9.0749C108.252 12.3929 110.191 14.4195 113.137 14.4195C116.083 14.4195 118.022 12.3929 118.022 9.0749C118.022 5.7665 116.074 3.7399 113.137 3.7399ZM113.136 5.4829C114.79 5.4829 115.867 6.7936 115.867 9.0749C115.867 11.3644 114.8 12.6765 113.136 12.6765C111.481 12.6765 110.404 11.3658 110.404 9.0749C110.404 6.795 111.481 5.4829 113.136 5.4829ZM73.5447 20.9118C73.5447 20.7273 73.6948 20.58 73.8779 20.58C74.0651 20.58 74.2138 20.7273 74.2138 20.9118C74.2138 21.0936 74.0638 21.2409 73.8779 21.2409C73.6948 21.2409 73.5447 21.0936 73.5447 20.9118ZM73.5902 21.6511H74.167V24.4597H73.5902V21.6511ZM70.5101 21.6057C69.8052 21.6057 69.3358 22.1688 69.3358 23.0554C69.3358 23.942 69.8066 24.5079 70.5156 24.5079C70.9245 24.5079 71.2453 24.3028 71.4105 23.982H71.4215V24.4597H71.9819V20.6062H71.4023V22.1178H71.3913C71.2343 21.8081 70.9135 21.6057 70.5101 21.6057ZM70.6685 24.0191C70.2127 24.0191 69.9264 23.6488 69.9264 23.0554C69.9264 22.4662 70.2114 22.0917 70.6685 22.0917C71.1118 22.0917 71.4078 22.473 71.4078 23.0554C71.4078 23.6433 71.1118 24.0191 70.6685 24.0191ZM35.952 24.4598H36.5178L37.3507 21.5548H37.3769L38.2098 24.4598H38.7729L39.8138 20.6062H39.1915L38.4783 23.6241H38.4563L37.6399 20.6062H37.085L36.27 23.6241H36.2493L35.5362 20.6062H34.9139L35.952 24.4598ZM41.0549 24.5134C41.6992 24.5134 42.1852 24.1472 42.265 23.635V23.6337H41.7157C41.6386 23.8801 41.3963 24.0453 41.0673 24.0453C40.6047 24.0453 40.3114 23.7218 40.3114 23.233V23.1986H42.2953V23.0017C42.2953 22.1509 41.8093 21.6002 41.0301 21.6002C40.2371 21.6002 39.7304 22.1881 39.7304 23.0692C39.7304 23.9558 40.2302 24.5134 41.0549 24.5134ZM41.7198 22.7966H40.3155C40.3445 22.3726 40.6294 22.0655 41.0315 22.0655C41.4335 22.0655 41.7061 22.3671 41.7198 22.7966ZM43.6287 23.6633C43.6287 23.1718 44.0046 22.8702 44.6723 22.8331L45.4405 22.7876V22.5715C45.4405 22.259 45.2299 22.0717 44.8774 22.0717C44.5443 22.0717 44.335 22.2314 44.2841 22.4834H43.7389C43.7705 21.9767 44.2028 21.6022 44.8981 21.6022C45.5796 21.6022 46.0146 21.963 46.0146 22.5261V24.4618H45.4626V23.9992H45.4488C45.2863 24.3117 44.9311 24.5086 44.5622 24.5086C44.0128 24.5086 43.6287 24.1671 43.6287 23.6633ZM45.4419 23.4086V23.1869L44.7508 23.2296C44.4066 23.253 44.2111 23.4058 44.2111 23.6467C44.2111 23.8918 44.4135 24.0529 44.7232 24.0529C45.1266 24.0529 45.4419 23.7748 45.4419 23.4086ZM47.072 21.6516H46.5227V24.4615H47.0995V22.7792C47.0995 22.3813 47.3281 22.1335 47.6998 22.1335C47.8113 22.1335 47.9132 22.1458 47.9586 22.1651V21.6282C47.916 21.6199 47.8444 21.6062 47.7618 21.6062C47.43 21.6062 47.1794 21.8003 47.0858 22.1293H47.072V21.6516ZM50.5483 23.635C50.4685 24.1472 49.9825 24.5134 49.3382 24.5134C48.5135 24.5134 48.0137 23.9558 48.0137 23.0692C48.0137 22.1881 48.5204 21.6002 49.3134 21.6002C50.0926 21.6002 50.5786 22.1509 50.5786 23.0017V23.1986H48.5947V23.233C48.5947 23.7218 48.888 24.0453 49.3505 24.0453C49.6796 24.0453 49.9219 23.8801 49.999 23.6337H50.5483V23.635ZM48.5988 22.7966H50.0031C49.9894 22.3671 49.7168 22.0655 49.3148 22.0655C48.9127 22.0655 48.6278 22.3726 48.5988 22.7966ZM53.2266 24.5135C53.8709 24.5135 54.3569 24.1473 54.4368 23.6351V23.6338H53.8874C53.8103 23.8802 53.568 24.0454 53.239 24.0454C52.7764 24.0454 52.4831 23.7219 52.4831 23.2331V23.1987H54.4671V23.0018C54.4671 22.151 53.9811 21.6003 53.2018 21.6003C52.4088 21.6003 51.9022 22.1882 51.9022 23.0693C51.9022 23.9559 52.4019 24.5135 53.2266 24.5135ZM53.8916 22.7967H52.4873C52.5162 22.3727 52.8012 22.0656 53.2032 22.0656C53.6052 22.0656 53.8778 22.3671 53.8916 22.7967ZM54.8586 21.6514H55.4079V22.1209H55.4217C55.5745 21.8001 55.8733 21.6032 56.3056 21.6032C56.9251 21.6032 57.2803 21.9984 57.2803 22.6413V24.46H56.7007V22.7542C56.7007 22.3329 56.5025 22.1002 56.1032 22.1002C55.6971 22.1002 55.4355 22.388 55.4355 22.8244V24.4614H54.8586V21.6514ZM58.3362 24.6791H57.7566C57.8282 25.1665 58.3197 25.5175 58.9833 25.5175C59.7845 25.5175 60.3022 25.0797 60.3022 24.4092V21.6516H59.7419V22.1321H59.7308C59.5601 21.8072 59.2338 21.6062 58.8359 21.6062C58.1145 21.6062 57.6561 22.161 57.6561 23.0449C57.6561 23.9205 58.1173 24.4712 58.8222 24.4712C59.2228 24.4712 59.5546 24.2702 59.7116 23.9659H59.7226V24.4285C59.7226 24.8126 59.4555 25.0687 59.0039 25.0687C58.6749 25.0687 58.4188 24.9145 58.3362 24.6791ZM58.9764 22.0935C59.428 22.0935 59.724 22.4721 59.724 23.049C59.724 23.6272 59.428 23.9935 58.9764 23.9948C58.5331 23.9948 58.2453 23.6369 58.2453 23.049C58.2453 22.4653 58.5331 22.0935 58.9764 22.0935ZM60.7029 23.6633C60.7029 23.1718 61.0788 22.8702 61.7465 22.8331L62.5148 22.7876V22.5715C62.5148 22.259 62.3041 22.0717 61.9517 22.0717C61.6185 22.0717 61.4092 22.2314 61.3583 22.4834H60.8131C60.8447 21.9767 61.277 21.6022 61.9723 21.6022C62.6538 21.6022 63.0889 21.963 63.0889 22.5261V24.4618H62.5368V23.9992H62.523C62.3606 24.3117 62.0054 24.5086 61.6364 24.5086C61.0884 24.5086 60.7029 24.1671 60.7029 23.6633ZM62.5161 23.4086V23.1869L61.825 23.2296C61.4808 23.253 61.2853 23.4058 61.2853 23.6467C61.2853 23.8918 61.4877 24.0529 61.7975 24.0529C62.2009 24.0529 62.5161 23.7748 62.5161 23.4086ZM64.1485 24.6792H63.5689C63.6419 25.1665 64.1334 25.5176 64.7956 25.5176C65.5969 25.5176 66.1145 25.0798 66.1145 24.4093V21.6517H65.5542V22.1322H65.5432C65.3725 21.8072 65.0462 21.6062 64.6483 21.6062C63.9269 21.6062 63.4684 22.1611 63.4684 23.045C63.4684 23.9206 63.9296 24.4713 64.6345 24.4713C65.0352 24.4713 65.367 24.2703 65.5239 23.966H65.5349V24.4286C65.5349 24.8127 65.2678 25.0688 64.8163 25.0688C64.4872 25.0688 64.2311 24.9146 64.1485 24.6792ZM64.7901 22.0936C65.2417 22.0936 65.5377 22.4722 65.5377 23.0491C65.5377 23.6273 65.2417 23.9935 64.7901 23.9949C64.3468 23.9949 64.059 23.637 64.059 23.0491C64.059 22.4653 64.3468 22.0936 64.7901 22.0936ZM69.0383 23.6351C68.9585 24.1473 68.4725 24.5135 67.8282 24.5135C67.0035 24.5135 66.5037 23.9559 66.5037 23.0693C66.5037 22.1882 67.0104 21.6003 67.8034 21.6003C68.5826 21.6003 69.0686 22.151 69.0686 23.0018V23.1987H67.0847V23.2331C67.0847 23.7219 67.378 24.0454 67.8405 24.0454C68.1696 24.0454 68.4119 23.8802 68.489 23.6338H69.0383V23.6351ZM67.0888 22.7967H68.4931C68.4794 22.3671 68.2068 22.0656 67.8047 22.0656C67.4027 22.0656 67.1178 22.3727 67.0888 22.7967ZM75.2536 21.6514H74.7043V24.4614H75.2812V22.8244C75.2812 22.388 75.5428 22.1002 75.9489 22.1002C76.3482 22.1002 76.5464 22.3329 76.5464 22.7542V24.46H77.126V22.6413C77.126 21.9984 76.7708 21.6032 76.1513 21.6032C75.719 21.6032 75.4202 21.8001 75.2674 22.1209H75.2536V21.6514ZM79.4258 20.9863V21.6513H79.96V22.1083H79.4258V23.6572C79.4258 23.9009 79.5332 24.0096 79.7673 24.0096C79.8265 24.0096 79.9201 24.0041 79.9573 23.9959V24.453C79.8925 24.4695 79.7645 24.4791 79.6365 24.4791C79.0679 24.4791 78.8462 24.263 78.8462 23.7205V22.1083H78.4373V21.6513H78.8462V20.9863H79.4258ZM80.9698 20.6072H80.3998V24.4608H80.9766V22.8376C80.9766 22.3943 81.2382 22.101 81.665 22.101C82.0712 22.101 82.2791 22.3488 82.2791 22.7633V24.4608H82.8587V22.6504C82.8587 22.0157 82.4897 21.604 81.8729 21.604C81.4461 21.604 81.1377 21.7926 80.9835 22.1217H80.9698V20.6072ZM85.7688 23.6351C85.6889 24.1473 85.203 24.5135 84.5586 24.5135C83.7339 24.5135 83.2342 23.9559 83.2342 23.0693C83.2342 22.1882 83.7408 21.6003 84.5338 21.6003C85.3131 21.6003 85.7991 22.151 85.7991 23.0018V23.1987H83.8152V23.2331C83.8152 23.7219 84.1084 24.0454 84.571 24.0454C84.9001 24.0454 85.1424 23.8802 85.2195 23.6338H85.7688V23.6351ZM83.8193 22.7967H85.2236C85.2098 22.3671 84.9372 22.0656 84.5352 22.0656C84.1332 22.0656 83.8482 22.3727 83.8193 22.7967ZM88.1762 22.8331C87.5085 22.8702 87.1326 23.1718 87.1326 23.6633C87.1326 24.1671 87.5181 24.5086 88.0661 24.5086C88.435 24.5086 88.7903 24.3117 88.9527 23.9992H88.9665V24.4618H89.5186V22.5261C89.5186 21.963 89.0835 21.6022 88.402 21.6022C87.7067 21.6022 87.2744 21.9767 87.2428 22.4834H87.788C87.8389 22.2314 88.0482 22.0717 88.3813 22.0717C88.7338 22.0717 88.9444 22.259 88.9444 22.5715V22.7876L88.1762 22.8331ZM88.9458 23.1869V23.4086C88.9458 23.7748 88.6305 24.0529 88.2271 24.0529C87.9174 24.0529 87.715 23.8918 87.715 23.6467C87.715 23.4058 87.9105 23.253 88.2547 23.2296L88.9458 23.1869ZM90.0266 21.6514H90.5759V22.1209H90.5897C90.7425 21.8001 91.041 21.6032 91.474 21.6032C92.093 21.6032 92.448 21.9984 92.448 22.6413V24.46H91.869V22.7542C91.869 22.3329 91.67 22.1002 91.271 22.1002C90.865 22.1002 90.6034 22.388 90.6034 22.8244V24.4614H90.0266V21.6514ZM93.877 22.8331C93.21 22.8702 92.834 23.1718 92.834 23.6633C92.834 24.1671 93.219 24.5086 93.767 24.5086C94.136 24.5086 94.491 24.3117 94.654 23.9992H94.668V24.4618H95.22V22.5261C95.22 21.963 94.785 21.6022 94.103 21.6022C93.408 21.6022 92.976 21.9767 92.944 22.4834H93.489C93.54 22.2314 93.749 22.0717 94.083 22.0717C94.435 22.0717 94.646 22.259 94.646 22.5715V22.7876L93.877 22.8331ZM94.647 23.1869V23.4086C94.647 23.7748 94.332 24.0529 93.928 24.0529C93.619 24.0529 93.416 23.8918 93.416 23.6467C93.416 23.4058 93.612 23.253 93.956 23.2296L94.647 23.1869ZM96.473 20.9863V21.6513H97.007V22.1083H96.473V23.6572C96.473 23.9009 96.58 24.0096 96.814 24.0096C96.873 24.0096 96.967 24.0041 97.004 23.9959V24.453C96.939 24.4695 96.811 24.4791 96.683 24.4791C96.115 24.4791 95.893 24.263 95.893 23.7205V22.1083H95.484V21.6513H95.893V20.9863H96.473ZM98.565 21.6003C97.764 21.6003 97.232 22.1524 97.232 23.0555C97.232 23.9614 97.761 24.5135 98.565 24.5135C99.369 24.5135 99.898 23.9601 99.898 23.0555C99.898 22.1524 99.366 21.6003 98.565 21.6003ZM98.565 22.0753C99.017 22.0753 99.31 22.4332 99.31 23.0555C99.31 23.6806 99.018 24.0385 98.565 24.0385C98.113 24.0385 97.82 23.6806 97.82 23.0555C97.82 22.4332 98.113 22.0753 98.565 22.0753ZM100.291 21.6514H100.842V22.1236H100.855C100.981 21.8111 101.274 21.6032 101.654 21.6032C102.043 21.6032 102.327 21.8042 102.439 22.1539H102.452C102.597 21.8125 102.927 21.6032 103.328 21.6032C103.883 21.6032 104.246 21.9722 104.246 22.5298V24.46H103.667V22.6688C103.667 22.3054 103.471 22.0975 103.13 22.0975C102.788 22.0975 102.55 22.3508 102.55 22.706V24.46H101.984V22.6262C101.984 22.3026 101.779 22.0975 101.453 22.0975C101.111 22.0975 100.868 22.3646 100.868 22.7253V24.4614H100.291V21.6514ZM104.786 25.026V25.4927C104.829 25.501 104.976 25.5065 105.023 25.5079C105.608 25.5079 105.882 25.289 106.123 24.6075L107.178 21.6516H106.569L105.856 23.937H105.848L105.135 21.6516H104.51L105.524 24.4629C105.524 24.4629 105.516 24.4931 105.505 24.5271C105.491 24.5751 105.473 24.6332 105.473 24.6364C105.385 24.9255 105.243 25.037 104.974 25.037C104.925 25.037 104.829 25.037 104.786 25.026ZM34.9549 29.5372C34.9549 28.6354 35.4863 28.082 36.2876 28.082C37.0889 28.082 37.6203 28.6341 37.6203 29.5372C37.6203 30.4417 37.0916 30.9952 36.2876 30.9952C35.4836 30.9952 34.9549 30.4431 34.9549 29.5372ZM37.0324 29.5372C37.0324 28.9149 36.7392 28.557 36.2876 28.557C35.836 28.557 35.5428 28.9149 35.5428 29.5372C35.5428 30.1623 35.836 30.5202 36.2876 30.5202C36.7419 30.5202 37.0324 30.1623 37.0324 29.5372ZM37.7929 28.5891H38.1798V30.9406H38.7594V28.5877H39.3197V28.1361H38.7511V27.8718C38.7511 27.6226 38.8695 27.4973 39.1201 27.4973C39.1972 27.4973 39.2743 27.5028 39.3308 27.5139V27.0871C39.255 27.0747 39.1242 27.0609 39.0072 27.0609C38.4359 27.0609 38.1798 27.317 38.1798 27.8622V28.1375H37.7929V28.5891ZM43.1813 30.9421H42.6292V30.4671H42.6154C42.4613 30.803 42.1749 30.993 41.7453 30.993C41.1341 30.993 40.7596 30.5951 40.7596 29.9522V28.1335H41.3364V29.8393C41.3364 30.2661 41.5388 30.496 41.9367 30.496C42.3539 30.496 42.6044 30.2083 42.6044 29.7705V28.1335H43.1813V30.9421ZM45.8258 28.9314C45.8079 28.4317 45.3701 28.082 44.7451 28.082C44.0884 28.082 43.645 28.4262 43.6423 28.9259C43.6423 29.3183 43.8997 29.5827 44.4064 29.7052L44.9089 29.8277C45.2022 29.9021 45.3095 30.0012 45.3095 30.1802C45.3095 30.4073 45.0961 30.5519 44.7492 30.5519C44.3968 30.5519 44.1889 30.4032 44.1434 30.1334H43.5721C43.6175 30.6496 44.0581 30.9938 44.723 30.9938C45.4114 30.9938 45.8892 30.6414 45.8892 30.1292C45.8892 29.7148 45.6758 29.5014 45.1099 29.3651L44.6377 29.2564C44.3472 29.1834 44.2081 29.0664 44.2081 28.8929C44.2081 28.6726 44.416 28.5198 44.7286 28.5198C45.0507 28.5198 45.2572 28.6781 45.2834 28.9314H45.8258ZM48.6926 30.1168C48.6128 30.629 48.1268 30.9952 47.4825 30.9952C46.6578 30.9952 46.158 30.4376 46.158 29.551C46.158 28.6699 46.6647 28.082 47.4577 28.082C48.2369 28.082 48.7229 28.6327 48.7229 29.4835V29.6804H46.739V29.7148C46.739 30.2036 47.0323 30.5271 47.4949 30.5271C47.8239 30.5271 48.0662 30.3619 48.1433 30.1155H48.6926V30.1168ZM46.7431 29.2784H48.1474C48.1337 28.8488 47.8611 28.5473 47.4591 28.5473C47.057 28.5473 46.772 28.8543 46.7431 29.2784ZM49.6677 28.1325H49.1184V30.9425H49.6952V29.2601C49.6952 28.8622 49.9238 28.6144 50.2955 28.6144C50.407 28.6144 50.5089 28.6268 50.5543 28.6461V28.1091C50.5117 28.1009 50.4401 28.0871 50.3575 28.0871C50.0257 28.0871 49.7751 28.2812 49.6815 28.6103H49.6677V28.1325ZM51.8846 27.3928C51.8846 27.2083 52.0346 27.061 52.2178 27.061C52.405 27.061 52.5537 27.2083 52.5537 27.3928C52.5537 27.5745 52.4036 27.7218 52.2178 27.7218C52.0333 27.7218 51.8846 27.5745 51.8846 27.3928ZM51.93 28.1321H52.5069V30.9407H51.93V28.1321ZM53.5935 28.1324H53.0442V30.9423H53.621V29.3054C53.621 28.8689 53.8826 28.5812 54.2887 28.5812C54.688 28.5812 54.8863 28.8139 54.8863 29.2352V30.941H55.4659V29.1223C55.4659 28.4793 55.1107 28.0842 54.4911 28.0842C54.0588 28.0842 53.7601 28.2811 53.6073 28.6018H53.5935V28.1324ZM56.711 27.4672V28.1322H57.2452V28.5893H56.711V30.1381C56.711 30.3818 56.8184 30.4906 57.0524 30.4906C57.1116 30.4906 57.2052 30.4851 57.2424 30.4768V30.9339C57.1777 30.9504 57.0497 30.9601 56.9216 30.9601C56.353 30.9601 56.1314 30.7439 56.1314 30.2015V28.5893H55.7225V28.1322H56.1314V27.4672H56.711ZM58.7948 30.9953C59.4392 30.9953 59.9252 30.6291 60.005 30.1169V30.1155H59.4571C59.38 30.362 59.1377 30.5272 58.8086 30.5272C58.346 30.5272 58.0528 30.2037 58.0528 29.7149V29.6805H60.0353V29.4836C60.0353 28.6328 59.5493 28.0821 58.7701 28.0821C57.9771 28.0821 57.4704 28.6699 57.4704 29.5511C57.4704 30.4377 57.9702 30.9953 58.7948 30.9953ZM59.4598 29.2785H58.0555C58.0844 28.8544 58.3694 28.5474 58.7714 28.5474C59.1735 28.5474 59.4461 28.8489 59.4598 29.2785ZM60.4309 28.1325H60.9802V28.6103H60.994C61.0876 28.2812 61.3382 28.0871 61.67 28.0871C61.7526 28.0871 61.8242 28.1009 61.8668 28.1091V28.6461C61.8214 28.6268 61.7195 28.6144 61.608 28.6144C61.2363 28.6144 61.0077 28.8622 61.0077 29.2601V30.9425H60.4309V28.1325ZM61.949 28.5892H62.3359V30.9407H62.9155V28.5878H63.4759V28.1362H62.9073V27.8719C62.9073 27.6227 63.0257 27.4974 63.2762 27.4974C63.3533 27.4974 63.4304 27.5029 63.4869 27.5139V27.0871C63.4112 27.0748 63.2804 27.061 63.1633 27.061C62.592 27.061 62.3359 27.3171 62.3359 27.8623V28.1376H61.949V28.5892ZM63.609 30.1441C63.609 29.6526 63.9849 29.3511 64.6526 29.3139L65.4208 29.2685V29.0523C65.4208 28.7398 65.2102 28.5526 64.8577 28.5526C64.5246 28.5526 64.3153 28.7123 64.2644 28.9642H63.7192C63.7508 28.4576 64.1831 28.0831 64.8784 28.0831C65.5599 28.0831 65.995 28.4438 65.995 29.0069V30.9426H65.4429V30.48H65.4291C65.2666 30.7925 64.9114 30.9894 64.5425 30.9894C63.9931 30.9894 63.609 30.648 63.609 30.1441ZM65.4222 29.8894V29.6677L64.7311 29.7104C64.3869 29.7338 64.1914 29.8866 64.1914 30.1276C64.1914 30.3726 64.3938 30.5337 64.7036 30.5337C65.1069 30.5337 65.4222 30.2556 65.4222 29.8894ZM67.7019 28.5626C68.0777 28.5626 68.3021 28.8007 68.3613 29.0995H68.9107C68.8611 28.546 68.4205 28.0821 67.6964 28.0821C66.8978 28.0821 66.3747 28.6452 66.3747 29.5373C66.3747 30.4446 66.8978 30.9953 67.7019 30.9953C68.3765 30.9953 68.8542 30.5891 68.9162 29.9916H68.3613C68.2952 30.3166 68.0626 30.5121 67.7074 30.5121C67.2585 30.5121 66.9625 30.1541 66.9625 29.5373C66.9625 28.9343 67.2558 28.5626 67.7019 28.5626ZM71.679 30.1168C71.5991 30.629 71.1131 30.9952 70.4688 30.9952C69.6441 30.9952 69.1443 30.4376 69.1443 29.551C69.1443 28.6699 69.651 28.082 70.444 28.082C71.2233 28.082 71.7092 28.6327 71.7092 29.4835V29.6804H69.7253V29.7148C69.7253 30.2036 70.0186 30.5271 70.4812 30.5271C70.8102 30.5271 71.0525 30.3619 71.1296 30.1155H71.679V30.1168ZM69.7295 29.2784H71.1338C71.12 28.8488 70.8474 28.5473 70.4454 28.5473C70.0434 28.5473 69.7598 28.8543 69.7295 29.2784ZM74.0881 29.3139C73.4204 29.3511 73.0445 29.6526 73.0445 30.1441C73.0445 30.648 73.4287 30.9894 73.978 30.9894C74.347 30.9894 74.7022 30.7925 74.8646 30.48H74.8784V30.9426H75.4305V29.0069C75.4305 28.4438 74.9954 28.0831 74.3139 28.0831C73.6187 28.0831 73.1864 28.4576 73.1547 28.9642H73.6999C73.7508 28.7123 73.9601 28.5526 74.2933 28.5526C74.6457 28.5526 74.8564 28.7398 74.8564 29.0523V29.2685L74.0881 29.3139ZM74.8564 29.6677V29.8894C74.8564 30.2556 74.5425 30.5337 74.1377 30.5337C73.8279 30.5337 73.6255 30.3726 73.6255 30.1276C73.6255 29.8866 73.821 29.7338 74.1652 29.7104L74.8564 29.6677ZM75.9345 28.1323H76.4839V28.6017H76.4976C76.6505 28.281 76.9492 28.0841 77.3815 28.0841C78.0011 28.0841 78.3563 28.4792 78.3563 29.1222V30.9409H77.7766V29.2351C77.7766 28.8138 77.5784 28.5811 77.1791 28.5811C76.773 28.5811 76.5114 28.8688 76.5114 29.3053V30.9422H75.9345V28.1323ZM79.9064 28.0876C79.2015 28.0876 78.7321 28.6507 78.7321 29.5374C78.7321 30.424 79.2015 30.9899 79.9119 30.9899C80.3208 30.9899 80.6416 30.7847 80.8068 30.4639H80.8179V30.9417H81.3782V27.0881H80.7986V28.5998H80.7876C80.6306 28.29 80.3098 28.0876 79.9064 28.0876ZM80.0648 30.5011C79.6091 30.5011 79.3227 30.1308 79.3227 29.5374C79.3227 28.9481 79.6077 28.5736 80.0648 28.5736C80.5081 28.5736 80.8041 28.955 80.8041 29.5374C80.8041 30.1252 80.5081 30.5011 80.0648 30.5011ZM82.8416 29.5373C82.8416 28.6507 83.3111 28.0876 84.016 28.0876C84.4194 28.0876 84.7402 28.29 84.8971 28.5998H84.9081V27.0881H85.4877V30.9416H84.9274V30.4639H84.9164C84.7512 30.7847 84.4304 30.9898 84.0215 30.9898C83.3125 30.9898 82.8416 30.424 82.8416 29.5373ZM83.4322 29.5373C83.4322 30.1307 83.7186 30.5011 84.1743 30.5011C84.6176 30.5011 84.9136 30.1252 84.9136 29.5373C84.9136 28.955 84.6176 28.5736 84.1743 28.5736C83.7172 28.5736 83.4322 28.9481 83.4322 29.5373ZM86.3309 27.0609C86.1478 27.0609 85.9977 27.2082 85.9977 27.3927C85.9977 27.5744 86.1464 27.7217 86.3309 27.7217C86.5168 27.7217 86.6668 27.5744 86.6668 27.3927C86.6668 27.2082 86.5181 27.0609 86.3309 27.0609ZM86.62 28.132H86.0432V30.9406H86.62V28.132ZM87.1316 31.16H87.7112C87.7938 31.3955 88.0499 31.5497 88.3789 31.5497C88.8305 31.5497 89.0976 31.2936 89.0976 30.9095V30.4469H89.0866C88.9296 30.7511 88.5978 30.9521 88.1972 30.9521C87.4923 30.9521 87.0311 30.4014 87.0311 29.5258C87.0311 28.6419 87.4895 28.0871 88.2109 28.0871C88.6088 28.0871 88.9351 28.2881 89.1058 28.613H89.1169V28.1325H89.6772V30.8902C89.6772 31.5607 89.1595 31.9985 88.3583 31.9985C87.696 31.9985 87.2045 31.646 87.1316 31.16ZM89.1003 29.5286C89.1003 28.9517 88.8043 28.5731 88.3528 28.5731C87.9094 28.5731 87.6217 28.9448 87.6217 29.5286C87.6217 30.1165 87.9094 30.4744 88.3528 30.4744C88.803 30.4744 89.1003 30.1082 89.1003 29.5286ZM90.4971 27.061C90.3139 27.061 90.1639 27.2083 90.1639 27.3928C90.1639 27.5745 90.3126 27.7218 90.4971 27.7218C90.6829 27.7218 90.833 27.5745 90.833 27.3928C90.833 27.2083 90.6843 27.061 90.4971 27.061ZM90.7862 28.1321H90.2093V30.9407H90.7862V28.1321ZM92.07 27.4672V28.1322H92.605V28.5893H92.07V30.1381C92.07 30.3818 92.178 30.4906 92.412 30.4906C92.471 30.4906 92.565 30.4851 92.602 30.4768V30.9339C92.537 30.9504 92.409 30.9601 92.281 30.9601C91.712 30.9601 91.491 30.7439 91.491 30.2015V28.5893H91.082V28.1322H91.491V27.4672H92.07ZM93.911 29.3138C93.243 29.351 92.867 29.6525 92.867 30.144C92.867 30.6479 93.251 30.9893 93.8 30.9893C94.169 30.9893 94.525 30.7924 94.687 30.4799H94.701V30.9425H95.253V29.0068C95.253 28.4437 94.818 28.083 94.136 28.083C93.441 28.083 93.009 28.4574 92.977 28.9641H93.522C93.573 28.7121 93.783 28.5524 94.116 28.5524C94.468 28.5524 94.679 28.7397 94.679 29.0522V29.2683L93.911 29.3138ZM94.68 29.6676V29.8893C94.68 30.2555 94.365 30.5336 93.962 30.5336C93.652 30.5336 93.449 30.3725 93.449 30.1274C93.449 29.8865 93.645 29.7337 93.989 29.7103L94.68 29.6676ZM95.777 27.0891H96.354V30.9427H95.777V27.0891ZM98.529 30.4639H98.54C98.713 30.7902 99.03 30.9899 99.443 30.9885C100.156 30.9885 100.615 30.4281 100.615 29.536C100.615 28.6466 100.153 28.0863 99.446 28.0863C99.048 28.0863 98.727 28.2831 98.559 28.6094H98.545V27.0881H97.969V30.9417H98.529V30.4639ZM99.287 30.5011C98.85 30.5011 98.543 30.1225 98.543 29.5374C98.543 28.9578 98.85 28.5736 99.287 28.5736C99.74 28.5736 100.021 28.9467 100.021 29.5374C100.021 30.1321 99.742 30.5011 99.287 30.5011ZM101.009 28.1325H101.559V28.6103H101.572C101.666 28.2812 101.917 28.0871 102.248 28.0871C102.331 28.0871 102.403 28.1009 102.445 28.1091V28.6461C102.4 28.6268 102.298 28.6144 102.186 28.6144C101.815 28.6144 101.586 28.8622 101.586 29.2601V30.9425H101.009V28.1325ZM103.621 29.3139C102.954 29.3511 102.578 29.6526 102.578 30.1441C102.578 30.648 102.963 30.9894 103.511 30.9894C103.88 30.9894 104.236 30.7925 104.398 30.48H104.412V30.9426H104.964V29.0069C104.964 28.4438 104.529 28.0831 103.847 28.0831C103.152 28.0831 102.72 28.4576 102.688 28.9642H103.233C103.284 28.7123 103.493 28.5526 103.827 28.5526C104.179 28.5526 104.39 28.7398 104.39 29.0523V29.2685L103.621 29.3139ZM104.391 29.6677V29.8894C104.391 30.2556 104.076 30.5337 103.672 30.5337C103.363 30.5337 103.16 30.3726 103.16 30.1276C103.16 29.8866 103.356 29.7338 103.7 29.7104L104.391 29.6677ZM105.47 28.1324H106.019V28.6018H106.033C106.186 28.2811 106.485 28.0842 106.917 28.0842C107.536 28.0842 107.892 28.4793 107.892 29.1223V30.941H107.312V29.2352C107.312 28.8139 107.114 28.5812 106.715 28.5812C106.308 28.5812 106.047 28.8689 106.047 29.3054V30.9423H105.47V28.1324ZM109.438 28.0876C108.733 28.0876 108.263 28.6507 108.263 29.5373C108.263 30.424 108.733 30.9898 109.443 30.9898C109.852 30.9898 110.173 30.7847 110.338 30.4639H110.349V30.9416H110.91V27.0881H110.33V28.5998H110.319C110.162 28.29 109.841 28.0876 109.438 28.0876ZM109.595 30.5011C109.139 30.5011 108.853 30.1307 108.853 29.5373C108.853 28.9481 109.139 28.5736 109.595 28.5736C110.038 28.5736 110.334 28.955 110.334 29.5373C110.334 30.1252 110.038 30.5011 109.595 30.5011ZM111.42 27.3928C111.42 27.2083 111.57 27.061 111.753 27.061C111.94 27.061 112.089 27.2083 112.089 27.3928C112.089 27.5745 111.939 27.7218 111.753 27.7218C111.57 27.7218 111.42 27.5745 111.42 27.3928ZM111.465 28.1321H112.042V30.9407H111.465V28.1321ZM113.129 28.1323H112.579V30.9422H113.156V29.3053C113.156 28.8688 113.418 28.5811 113.824 28.5811C114.223 28.5811 114.421 28.8138 114.421 29.2351V30.9409H115.001V29.1222C115.001 28.4792 114.646 28.0841 114.026 28.0841C113.594 28.0841 113.295 28.281 113.142 28.6017H113.129V28.1323ZM115.477 31.16H116.057C116.139 31.3955 116.396 31.5497 116.725 31.5497C117.176 31.5497 117.443 31.2936 117.443 30.9095V30.4469H117.432C117.275 30.7511 116.944 30.9521 116.543 30.9521C115.838 30.9521 115.377 30.4014 115.377 29.5258C115.377 28.6419 115.835 28.0871 116.557 28.0871C116.955 28.0871 117.281 28.2881 117.452 28.613H117.461V28.1325H118.022V30.8902C118.022 31.5607 117.504 31.9985 116.703 31.9985C116.04 31.9985 115.549 31.646 115.477 31.16ZM117.445 29.5286C117.445 28.9517 117.149 28.5731 116.697 28.5731C116.254 28.5731 115.966 28.9448 115.966 29.5286C115.966 30.1165 116.254 30.4744 116.697 30.4744C117.149 30.4744 117.445 30.1082 117.445 29.5286Z" fill="black"/>
</svg>
