<svg width="93" height="32" viewBox="0 0 93 32" fill="none" xmlns="http://www.w3.org/2000/svg">
<path d="M7.62939e-06 27.3747C0.459508 27.3393 0.930207 27.33 1.37671 27.2631C2.36091 27.118 2.90421 26.5189 3.02881 25.5496C3.10321 25.0019 3.14421 24.4502 3.15161 23.8975C3.15161 18.8482 3.17581 13.8007 3.13671 8.75138C3.13671 7.87328 3.35631 7.52728 4.26981 7.61468C5.07071 7.68448 5.87621 7.68448 6.67721 7.61468C7.44191 7.55518 7.60741 7.86958 7.60741 8.56728C7.58331 12.4463 7.59631 16.3235 7.59441 20.2026C7.59441 21.9273 7.61671 23.6519 7.57581 25.3747C7.47721 29.5477 5.38051 31.624 1.19441 31.7487C0.794408 31.7598 0.396307 31.7914 -0.00369263 31.8156L7.62939e-06 27.3747Z" fill="#2A43D4"/>
<path d="M69.0234 15.5886C68.6011 13.4677 67.509 12.1226 65.5425 11.611C63.7248 11.1403 62.1751 11.6891 60.9453 13.0658C59.4141 14.7775 59.5072 17.4454 61.109 19.1216C61.8775 19.9415 62.925 20.4441 64.0453 20.5306C65.1657 20.617 66.2779 20.281 67.163 19.5886C67.6655 19.1789 68.1421 18.7384 68.59 18.2696C71.4662 15.3858 74.3109 12.4649 77.2244 9.6184C79.756 7.1421 82.845 6.4184 86.207 7.3728C89.569 8.3272 91.65 10.6454 92.506 14.0221C92.666 14.6487 92.751 15.2919 92.759 15.9384C92.787 18.4947 92.759 21.0528 92.783 23.611C92.783 24.2156 92.597 24.4351 91.991 24.4147C91.003 24.3793 90.011 24.3793 89.023 24.4147C88.408 24.4351 88.229 24.1914 88.236 23.5998C88.261 21.1663 88.249 18.731 88.236 16.2956C88.236 14.13 87.193 12.4891 85.373 11.7542C83.513 11.01 81.695 11.4342 80.142 12.9933C77.0923 16.0575 74.0281 19.1049 70.9993 22.1877C67.0923 26.1598 60.6216 25.7635 57.3044 21.6128C55.1686 18.943 54.6588 15.9291 55.8774 12.7589C57.1072 9.5551 59.5109 7.6128 62.9472 7.0621C66.7314 6.4575 70.3723 8.1263 72.2644 11.2277C72.5769 11.7375 72.5732 12.0705 72.1248 12.4947C71.0979 13.4658 70.1174 14.4891 69.0234 15.5886Z" fill="#2A43D4"/>
<path d="M23.5089 9.222L23.695 7.6871H28.1024V24.4759H23.6968C23.6429 24.0071 23.5926 23.5643 23.5108 22.9355C21.215 24.8927 18.6847 25.3969 15.9257 24.6099C14.0652 24.0778 12.6382 22.9355 11.5554 21.3559C9.10332 17.7801 9.43641 12.8778 12.361 9.7429C13.0454 8.983 13.8729 8.3655 14.7961 7.9256C15.7193 7.4857 16.7202 7.232 17.7415 7.1792C19.8717 7.0452 21.7675 7.6499 23.5089 9.222ZM18.9992 20.6173C21.7061 20.6266 23.6317 18.7122 23.6075 16.0387C23.5852 13.4173 21.6596 11.4676 19.0606 11.4341C16.4615 11.4006 14.4615 13.395 14.4671 16.0703C14.4726 18.7457 16.3219 20.608 18.9992 20.6173Z" fill="#2A43D4"/>
<path d="M37.3098 7.59464C38.3982 7.59464 39.2559 7.61884 40.1117 7.59464C40.7201 7.57234 41.0233 7.72854 40.9843 8.41324C40.935 9.33724 40.935 10.2631 40.9843 11.1871C41.014 11.8178 40.7554 11.989 40.1694 11.9648C39.308 11.9295 38.4466 11.9555 37.4326 11.9555V13.096C37.4326 16.5174 37.401 19.9388 37.455 23.3602C37.4698 24.2513 37.1647 24.4876 36.3387 24.4281C35.5337 24.3654 34.7251 24.3654 33.9201 24.4281C33.0289 24.5062 32.8317 24.1285 32.841 23.3118C32.8764 19.963 32.8578 16.5936 32.854 13.2336C32.854 11.9778 32.854 11.9778 31.5722 11.9741C30.3443 11.9741 30.3443 11.9741 30.3424 10.7853C30.3424 9.98344 30.3629 9.18164 30.3424 8.38164C30.3238 7.82344 30.5284 7.63744 31.0977 7.62254C32.6996 7.58904 32.6996 7.56484 32.9303 5.92764C33.3973 2.64204 35.8457 0.547139 39.3489 0.439239C39.8401 0.424339 40.3312 0.439239 40.895 0.439239V4.68114C39.7992 4.86714 38.4764 4.68114 37.801 5.87374C37.548 6.32574 37.5052 6.88394 37.3098 7.59464Z" fill="#2A43D4"/>
<path d="M42.4372 11.9679V7.62737C43.107 7.62737 43.7395 7.59387 44.3777 7.62737C45.0753 7.67387 45.3953 7.46557 45.3674 6.69717C45.3358 5.88037 45.1516 4.83667 45.5665 4.30087C45.9814 3.76507 47.0549 3.70927 47.8493 3.46177C48.4893 3.26277 49.1367 3.08967 49.8958 2.87207C49.8958 4.22277 49.9293 5.45067 49.8828 6.67487C49.8549 7.37067 50.1191 7.61627 50.7907 7.58457C51.4995 7.55107 52.2121 7.59577 52.9228 7.57527C53.4251 7.56037 53.6577 7.73897 53.6465 8.26737C53.6223 9.25347 53.6167 10.2395 53.6465 11.2237C53.6651 11.819 53.3823 11.9567 52.8558 11.9381C52.0837 11.9121 51.3098 11.9493 50.5377 11.927C50.0558 11.9139 49.8865 12.113 49.8902 12.58C49.9051 14.673 49.8809 16.7679 49.9051 18.8609C49.9163 19.8321 50.3925 20.3065 51.3935 20.3735C52.093 20.42 52.7981 20.3735 53.626 20.3735C53.626 21.6758 53.6465 22.8721 53.6019 24.0609C53.6019 24.2321 53.2912 24.5037 53.094 24.5372C51.3581 24.8293 49.6242 24.7474 47.9925 24.0888C46.0446 23.3018 45.4363 21.5939 45.3767 19.6832C45.306 17.406 45.3339 15.1251 45.36 12.8479C45.36 12.1837 45.1739 11.8823 44.467 11.9344C43.827 12.0051 43.1814 11.9679 42.4372 11.9679Z" fill="#2A43D4"/>
<path d="M79.047 16.4258C79.047 19.0751 79.06 21.5569 79.023 24.0369C79.023 24.223 78.675 24.5411 78.48 24.5486C77.3079 24.5988 76.1321 24.6044 74.9619 24.5486C74.7516 24.5374 74.4037 24.1765 74.387 23.9588C74.3355 23.13 74.3287 22.299 74.3665 21.4695C74.3594 21.2563 74.425 21.047 74.5526 20.876C76.0019 19.4193 77.4661 17.9867 79.047 16.4258Z" fill="#2A43D4"/>
<path d="M8.1061 3.04963C8.0865 3.78013 7.785 4.47473 7.2649 4.98793C6.7447 5.50113 6.0461 5.79323 5.3154 5.80313C4.9537 5.80563 4.5951 5.73593 4.2606 5.59813C3.9261 5.46033 3.6224 5.25723 3.3674 5.00063C3.1124 4.74403 2.9111 4.43913 2.7754 4.10383C2.6396 3.76853 2.5721 3.40953 2.5768 3.04773C2.5917 2.31773 2.8862 1.62123 3.3996 1.10193C3.913 0.582727 4.6061 0.280227 5.3359 0.257027C6.7666 0.238427 8.1006 1.58173 8.1061 3.04963Z" fill="#2A43D4"/>
<path d="M77.7059 6.9075L74.3757 10.2117C74.3757 9.1642 74.3552 8.2173 74.3999 7.274C74.3999 7.1438 74.7329 6.9317 74.919 6.9242C75.7971 6.8833 76.679 6.9075 77.7059 6.9075Z" fill="#2A43D4"/>
</svg>
