<svg width="90" height="35" viewBox="0 0 90 35" fill="none" xmlns="http://www.w3.org/2000/svg">
<mask id="mask0_4_325" style="mask-type:luminance" maskUnits="userSpaceOnUse" x="0" y="0" width="90" height="35">
<path d="M0 0H90V35H0V0Z" fill="white"/>
</mask>
<g mask="url(#mask0_4_325)">
<path d="M72.365 35C82.104 35 90 27.165 90 17.5C90 7.835 82.104 0 72.365 0C62.625 0 54.73 7.835 54.73 17.5C54.73 27.165 62.625 35 72.365 35ZM49.257 25.345C49.74 25.345 50.205 25.155 50.547 24.815C50.7159 24.6474 50.85 24.448 50.9416 24.2283C51.0331 24.0086 51.0802 23.773 51.0802 23.535C51.0802 23.297 51.0331 23.0614 50.9416 22.8417C50.85 22.622 50.7159 22.4226 50.547 22.255C50.2039 21.9147 49.7402 21.7238 49.257 21.7238C48.7738 21.7238 48.3101 21.9147 47.967 22.255C47.798 22.4226 47.6639 22.622 47.5724 22.8417C47.4809 23.0614 47.4338 23.297 47.4338 23.535C47.4338 23.773 47.4809 24.0086 47.5724 24.2283C47.6639 24.448 47.798 24.6474 47.967 24.815C48.309 25.155 48.773 25.345 49.257 25.345ZM41.136 10.045H45.306V25.463H41.46L35.109 17.008L35.159 25.342H30.979V9.945H34.836L41.136 18.892V10.045ZM22.327 25.723C18.31 25.723 15.543 23.108 15.543 19.333V10.045H19.723V19.342C19.723 20.895 20.803 21.967 22.327 21.967C23.862 21.967 24.942 20.895 24.942 19.351V10.045H29.122V19.332C29.122 23.11 26.355 25.723 22.327 25.723ZM9.09199 17.54L15.139 25.344H9.88799L5.38799 19.111H5.22799V25.342H1.04599V10.045H5.22599V16.417H5.33599L9.58599 10.045H14.412L9.09199 17.54Z" fill="#0C2F75"/>
<path d="M86.605 25.339V21.642H80.658L87.059 10.042H74.986V13.728H80.204L73.774 25.338L86.605 25.339ZM72.845 19.329V10.04H68.665V19.347C68.665 20.89 67.585 21.962 66.05 21.962C64.526 21.962 63.446 20.89 63.446 19.337V10.04H59.266V19.327C59.266 23.105 62.032 25.719 66.05 25.719C70.078 25.719 72.845 23.104 72.845 19.327V19.329Z" fill="white"/>
</g>
</svg>
