<svg width="72" height="42" viewBox="0 0 72 42" fill="none" xmlns="http://www.w3.org/2000/svg">
<mask id="mask0_4_263" style="mask-type:luminance" maskUnits="userSpaceOnUse" x="0" y="0" width="72" height="42">
<path d="M71.8239 0H0.176788V42H71.8239V0Z" fill="white"/>
</mask>
<g mask="url(#mask0_4_263)">
<path d="M27.3671 42.0002C26.9382 41.8897 26.5072 41.7872 26.0805 41.6677C24.9494 41.3501 24.0683 40.6966 23.7868 39.543C23.3858 37.9003 24.2285 36.0141 25.896 35.4796C26.4435 35.3038 27.0332 35.228 27.6098 35.1806C28.2445 35.1282 28.8863 35.1502 29.5248 35.1611C29.8428 35.1663 29.9696 35.0665 29.923 34.7352C29.8284 34.0459 29.4264 33.6133 28.7117 33.6224C28.0105 33.6312 27.3098 33.7416 26.6098 33.8177C26.2459 33.8569 25.8832 33.9111 25.5223 33.9725C25.2573 34.0176 25.1087 33.9172 25.0526 33.6628C24.9552 33.2193 24.8247 32.7806 24.7748 32.3307C24.7561 32.1634 24.8869 31.8534 25.0128 31.8153C27.0537 31.2005 29.1179 30.8568 31.1843 31.6797C32.1116 32.049 32.6346 32.7818 32.7666 33.7635C32.8421 34.2966 32.8858 34.8337 32.8974 35.3719C32.9195 36.9624 32.9155 38.5534 32.9198 40.1445C32.9219 40.9214 32.8113 41.1386 32.0764 41.3753C31.4361 41.5816 30.7631 41.6862 30.1053 41.8392C29.8979 41.8876 29.693 41.9472 29.4868 42.0017L27.3671 42.0002ZM29.912 38.2811H29.9135C29.9135 37.9991 29.9368 37.7141 29.9019 37.436C29.8887 37.3302 29.7414 37.1552 29.6568 37.1568C28.9963 37.1689 28.3309 37.175 27.6787 37.2654C27.1662 37.3365 26.8111 37.8242 26.7817 38.328C26.7486 38.8905 26.9753 39.3155 27.5516 39.4502C28.065 39.5719 28.6217 39.5823 29.1513 39.5415C29.912 39.484 29.9089 39.4454 29.9108 38.6836C29.9123 38.5501 29.912 38.4156 29.912 38.2811Z" fill="black"/>
<path d="M57.8004 41.9999C57.4542 41.894 57.1068 41.7915 56.7619 41.682C55.1348 41.1648 54.247 39.9991 53.9649 38.3886C53.8178 37.5492 53.8117 36.6807 53.7973 35.8246C53.7667 33.7365 55.4084 31.7804 57.4717 31.3746C58.8123 31.1108 60.114 31.1312 61.3495 31.7883C62.6022 32.4551 63.282 33.5464 63.5246 34.8867C63.6744 35.7118 63.7198 36.5651 63.7185 37.4056C63.7158 39.4913 62.3139 41.2467 60.2803 41.7915C60.0242 41.86 59.7687 41.9302 59.5126 41.9999H57.8004ZM56.7689 36.5934C56.8388 37.0424 56.9052 37.492 56.9797 37.9405C57.1142 38.7478 57.7523 39.3882 58.4664 39.439C59.3971 39.505 60.1244 39.018 60.4001 38.1638C60.7466 37.0902 60.72 36.0154 60.3802 34.9555C60.1887 34.3574 59.8288 33.8527 59.1367 33.7605C58.3843 33.6601 57.7364 33.8701 57.3075 34.5418C56.9077 35.1672 56.8152 35.8651 56.7689 36.5934Z" fill="black"/>
<path d="M49.1512 41.9997C48.8477 41.8959 48.5437 41.7931 48.2408 41.6879C47.4749 41.4223 46.9369 40.924 46.8747 40.1038C46.7672 38.6822 46.7136 37.2557 46.6667 35.8305C46.6471 35.2391 46.6946 34.644 46.728 34.0523C46.7433 33.7816 46.6272 33.6928 46.3714 33.6955C46.0611 33.6989 45.7418 33.7223 45.4425 33.6608C44.8167 33.5327 45.0648 33.0025 45.0385 32.6289C45.0155 32.3086 44.9144 31.8988 45.456 31.8188C45.7075 31.7823 45.9425 31.6363 46.1937 31.5982C46.7111 31.5198 46.8466 31.1991 46.8438 30.74C46.8416 30.3899 46.8401 30.0331 46.9051 29.692C46.9406 29.5095 47.0843 29.2661 47.2421 29.2053C47.8453 28.9698 48.4714 28.7903 49.0933 28.6042C49.4365 28.5013 49.6405 28.6002 49.6356 29.0045C49.6282 29.664 49.658 30.3245 49.6451 30.984C49.6374 31.368 49.7722 31.5103 50.1723 31.489C50.7002 31.461 51.2323 31.482 51.7601 31.5194C51.8717 31.5271 52.0564 31.6831 52.0637 31.7814C52.0999 32.263 52.0898 32.7485 52.0913 33.2325C52.0913 33.554 51.9195 33.6888 51.6011 33.683C51.0849 33.6751 50.5681 33.6885 50.0519 33.6776C49.756 33.6712 49.6445 33.7859 49.6463 34.0849C49.6555 35.5147 49.642 36.9445 49.6494 38.3743C49.6531 39.1547 49.9637 39.4449 50.7608 39.4114C51.1254 39.3959 51.4869 39.3165 51.8514 39.2897C52.4271 39.2462 52.5141 39.2897 52.6455 39.8373C52.7451 40.2529 52.7772 40.6867 52.8112 41.115C52.8358 41.4217 52.6887 41.6298 52.36 41.6821C52.0392 41.7329 51.7185 41.7858 51.4008 41.8509C51.2191 41.8883 51.0433 41.9522 50.8647 42.003L49.1512 41.9997Z" fill="black"/>
<path d="M25.841 21.5302C26.17 21.0161 26.476 20.5457 26.7747 20.0699C29.4496 15.8144 32.1237 11.5581 34.7972 7.30109C36.0805 5.25859 37.3739 3.22189 38.6422 1.17019C39.0157 0.565793 39.5613 0.232292 40.2046 0.0245922C40.6335 -0.114208 41.4221 0.356192 41.6932 0.890992C42.4417 2.36579 43.1872 3.84219 43.9296 5.32009C45.6498 8.72849 47.3703 12.1369 49.091 15.5453C50.5786 18.4987 52.0631 21.4537 53.5445 24.4105C53.7436 24.806 53.9675 25.1923 54.1412 25.5991C54.3149 26.0058 54.2175 26.2154 53.7773 26.233C52.7473 26.2738 51.7146 26.2677 50.6831 26.244C50.2597 26.234 49.9604 25.9626 49.7702 25.589C49.2825 24.6309 48.7959 23.6725 48.3104 22.7136C46.554 19.2477 44.7976 15.7818 43.0411 12.3158C42.0982 10.4579 41.1418 8.60709 40.204 6.74619C40.0407 6.42159 39.9261 6.47239 39.7681 6.72639C39.0048 7.94819 38.2403 9.16999 37.4744 10.3919C35.7131 13.1988 33.9515 16.0063 32.1898 18.8144C30.8183 21.0078 29.4633 23.2116 28.0884 25.4019C27.8825 25.7296 27.6203 26.0317 27.3436 26.3048C26.9181 26.7253 26.3743 26.7916 25.8802 26.4995C25.2907 26.15 24.7356 25.7308 24.2109 25.2885C21.6543 23.1331 19.1134 20.9604 16.5658 18.7935C16.0821 18.3825 16.0144 18.3922 15.7197 18.9742C14.9489 20.4977 14.1946 22.0294 13.4254 23.5538C12.3293 25.7256 11.2197 27.8916 10.126 30.064C8.37669 33.5347 6.63049 37.0069 4.88729 40.4807C4.78089 40.6977 4.66279 40.9089 4.53379 41.1134C4.30919 41.4615 4.00439 41.6787 3.56269 41.6747C2.59829 41.6662 1.63259 41.6863 0.669486 41.6586C0.168586 41.6443 0.074487 41.5065 0.276687 41.0547C0.694287 40.1247 1.14459 39.2081 1.60319 38.2967C3.02959 35.462 4.46169 32.63 5.89949 29.8006C7.50909 26.6236 9.11949 23.4471 10.7307 20.2713C11.7074 18.3414 12.6736 16.4078 13.6524 14.4779C13.7813 14.2258 13.9347 13.9869 14.1104 13.7645C14.7277 12.9811 15.5334 12.8558 16.3115 13.4782C17.3682 14.3239 18.3905 15.2122 19.4219 16.089C21.4426 17.8066 23.4614 19.5266 25.4782 21.2491C25.5689 21.3276 25.6682 21.3972 25.841 21.5302Z" fill="#FF0000"/>
<path d="M38.4414 34.8448C38.5455 34.6903 38.6381 34.5266 38.7554 34.383C39.3191 33.6919 39.9146 33.025 40.4492 32.3144C40.887 31.7312 41.4182 31.4531 42.1535 31.4957C42.7355 31.5292 43.3216 31.493 43.9055 31.5064C44.0694 31.5103 44.2318 31.5806 44.5066 31.6481C44.195 32.0524 43.9551 32.3865 43.6917 32.7019C43.1032 33.408 42.4969 34.0983 41.9173 34.8123C41.8318 34.9179 41.7947 35.1469 41.8517 35.2686C42.5337 36.7431 43.2392 38.2073 43.9349 39.6764C44.1761 40.1861 44.4102 40.699 44.6371 41.2151C44.7713 41.5193 44.6536 41.6909 44.3258 41.6961C43.5651 41.7079 42.8042 41.7049 42.0435 41.7119C41.7145 41.7149 41.5184 41.5479 41.3928 41.2589C40.9388 40.2136 40.4804 39.17 40.0176 38.1279C39.9156 37.8986 39.7817 37.6832 39.6193 37.382C38.9947 38.0933 38.1761 38.5824 38.2214 39.6372C38.2438 40.1622 38.2383 40.6891 38.2352 41.2151C38.2334 41.5437 38.0934 41.7575 37.7236 41.753C37.1256 41.746 36.527 41.7557 35.9296 41.7335C35.3475 41.7119 35.2556 41.5954 35.2538 41.0283C35.2446 36.8873 35.2344 32.7464 35.2232 28.6054C35.2232 28.4165 35.2176 28.2275 35.2232 28.0389C35.2323 27.756 35.3843 27.5625 35.6658 27.5558C36.4127 27.5385 37.1602 27.5415 37.9074 27.5558C38.2337 27.5616 38.2349 27.8229 38.2352 28.0587C38.2364 29.2863 38.2364 30.5139 38.2352 31.7415C38.2352 32.6049 38.2352 33.4683 38.2374 34.3316C38.2374 34.4688 38.2591 34.6054 38.2711 34.7429L38.4414 34.8448Z" fill="black"/>
<path d="M13.4825 37.7651C13.435 36.3244 13.3367 34.9359 13.36 33.5511C13.379 32.4687 13.4739 31.3748 13.6731 30.3113C13.8964 29.119 15.0418 28.2167 16.3736 28.1793C18.5042 28.1185 20.638 28.1574 22.7702 28.1458C23.0505 28.1443 23.174 28.2715 23.1798 28.5264C23.1933 29.1044 23.2028 29.6846 23.2012 30.2635C23.2012 30.5409 23.0631 30.725 22.765 30.7502C22.4669 30.7755 22.1707 30.8166 21.8738 30.8144C20.5966 30.805 19.3197 30.7651 18.0444 30.7688C16.7691 30.7724 16.5203 31.0325 16.5151 32.2899C16.5151 32.5865 16.5325 32.8843 16.5114 33.1794C16.4897 33.4857 16.6324 33.5947 16.9152 33.5928C17.6354 33.588 18.355 33.5794 19.0756 33.5849C20.0253 33.5925 20.975 33.6202 21.9262 33.6223C22.2571 33.6223 22.4194 33.8003 22.4237 34.0808C22.4335 34.6448 22.413 35.2089 22.3624 35.7707C22.3514 35.8897 22.1694 36.0634 22.042 36.088C21.6956 36.1513 21.3437 36.1806 20.9915 36.1753C19.7823 36.168 18.5732 36.1263 17.3643 36.1291C16.5145 36.1312 16.5234 36.154 16.5243 36.9979C16.5243 38.3997 16.5053 39.8022 16.5148 41.204C16.5172 41.5481 16.3922 41.7136 16.0531 41.7099C15.2835 41.7023 14.5137 41.6986 13.7453 41.6621C13.6534 41.6579 13.4975 41.4611 13.496 41.3515C13.4758 40.1389 13.4825 38.926 13.4825 37.7651Z" fill="black"/>
<path d="M68.582 38.068C68.582 39.0649 68.577 40.0618 68.584 41.0588C68.588 41.4679 68.466 41.7232 67.9932 41.728C67.4384 41.7329 66.8839 41.8016 66.33 41.7965C65.7761 41.7913 65.6422 41.6626 65.5715 41.1147C65.5271 40.771 65.5335 40.4196 65.5347 40.0716C65.5378 39.1428 65.55 38.214 65.5601 37.285C65.5724 36.1271 65.5295 34.9647 65.6159 33.812C65.6983 32.7169 66.3554 31.9581 67.3756 31.5374C68.697 30.9923 70.069 30.9634 71.448 31.2454C71.607 31.2779 71.822 31.5657 71.822 31.7349C71.822 32.3631 71.756 32.9931 71.676 33.6173C71.665 33.7086 71.442 33.8303 71.312 33.8358C70.662 33.8695 70.01 33.8577 69.36 33.886C68.858 33.9079 68.62 34.0962 68.603 34.5969C68.569 35.6185 68.596 36.6418 68.598 37.6643C68.598 37.799 68.598 37.9337 68.598 38.0686L68.582 38.068Z" fill="black"/>
</g>
</svg>
