<svg width="52" height="41" viewBox="0 0 52 41" fill="none" xmlns="http://www.w3.org/2000/svg">
<path d="M13.8975 32.8104C14.2829 33.4865 14.2829 33.4858 13.5814 33.7985C12.1812 34.4218 10.7624 34.5213 9.35809 33.8513C8.03599 33.2205 7.50049 32.0575 7.41959 30.6696C7.36469 29.7385 7.40859 28.8025 7.40859 27.8685H7.39559C7.39559 26.9346 7.38599 26 7.40099 25.0661C7.40649 24.7767 7.32699 24.6656 7.02249 24.6779C6.46639 24.6999 5.90889 24.6656 5.35279 24.6903C5.04359 24.7047 4.96329 24.5929 4.98049 24.3029C5.00239 23.9119 5.00239 23.5199 4.98049 23.1289C4.96329 22.8245 5.04149 22.6983 5.37679 22.7175C5.93159 22.747 6.48969 22.7141 7.04649 22.7299C7.32079 22.7381 7.40579 22.6421 7.40039 22.3664C7.38459 21.475 7.41539 20.5884 7.38599 19.7004C7.37289 19.3089 7.50799 19.2115 7.87349 19.2321C8.38439 19.2616 8.89729 19.2492 9.40809 19.2321C9.68239 19.2252 9.77639 19.3294 9.77289 19.603C9.76059 20.5068 9.78049 21.4106 9.76129 22.3143C9.75509 22.6263 9.84009 22.734 10.1631 22.7292C11.1862 22.7113 12.2093 22.7333 13.2317 22.7168C13.5258 22.712 13.6321 22.7943 13.6157 23.0953C13.5934 23.5168 13.5934 23.9391 13.6157 24.3605C13.6287 24.6279 13.5252 24.6903 13.2776 24.6875C12.2696 24.6773 11.2609 24.7061 10.2543 24.6738C9.83879 24.6594 9.75509 24.8 9.76059 25.1847C9.78049 26.781 9.78459 28.3787 9.76399 29.975C9.74069 31.7085 10.8577 32.3798 12.513 31.9457C13.3167 31.7352 13.3071 31.6989 13.7034 32.4552C13.7665 32.5745 13.8312 32.6929 13.8975 32.8104Z" fill="#FBE500"/>
<path d="M26.7169 22.8467C26.733 22.9499 26.7437 23.0538 26.7491 23.158C26.7491 26.6323 26.7491 30.1038 26.7491 33.5725C26.7438 33.6768 26.7331 33.7807 26.7169 33.8838C26.6702 34.0306 26.5468 33.9778 26.4515 33.9798C26.1052 33.9839 25.7589 33.986 25.4133 33.9798C25.0986 33.9743 24.7173 34.0642 24.4876 33.9188C24.2469 33.7673 24.4334 33.3606 24.3916 33.0685C24.382 33 24.3758 32.8985 24.3313 32.8704C24.2051 32.7915 24.1523 32.9328 24.0796 32.9931C22.4161 34.3707 20.5139 34.6429 18.5253 33.9963C16.5813 33.3634 15.3498 31.9392 14.9178 29.9465C14.4117 27.6096 14.8581 25.4833 16.6931 23.8005C18.0021 22.5985 19.5587 22.2234 21.2874 22.4799C22.3365 22.6335 23.2821 23.0168 24.0851 23.7237C24.1482 23.78 24.2017 23.8849 24.3045 23.8478C24.4417 23.7992 24.3806 23.6682 24.3861 23.5736C24.4279 22.7233 24.4273 22.7233 25.3002 22.7233C25.6924 22.7233 26.0833 22.7233 26.4748 22.7233C26.577 22.724 26.7031 22.6821 26.7169 22.8467Z" fill="#FBE500"/>
<path d="M36.1723 28.7925C37.4237 30.4834 38.6601 32.184 39.9739 33.9805C39.0139 33.9805 38.1588 33.9805 37.3065 33.9805C37.1007 33.9805 37.0322 33.8235 36.9348 33.6939C36.1024 32.5508 35.2624 31.4132 34.4464 30.2585C34.2461 29.9753 34.1419 29.9808 33.9465 30.253C33.1353 31.3913 32.3008 32.5158 31.4923 33.6548C31.3133 33.9078 31.1227 33.9976 30.8196 33.9867C30.0688 33.9661 29.3158 33.9798 28.5362 33.9798C28.5712 33.685 28.7776 33.5135 28.9174 33.3202C30.0036 31.8233 31.0953 30.3312 32.2089 28.8514C32.429 28.5579 32.4146 28.3639 32.2041 28.0677C31.0212 26.4179 29.8624 24.7502 28.6973 23.086C28.6288 22.9907 28.5766 22.8844 28.4724 22.7075C29.3968 22.7075 30.2621 22.6979 31.1261 22.7137C31.3469 22.7185 31.423 22.953 31.5307 23.108C32.3446 24.2826 33.1579 25.4579 33.9547 26.6435C34.146 26.928 34.2331 26.9397 34.4347 26.64C35.2452 25.4311 36.0962 24.2462 36.9115 23.0401C37.0877 22.7795 37.2804 22.6924 37.5807 22.702C38.1677 22.7226 38.7547 22.702 39.3417 22.7116C39.5158 22.7116 39.7689 22.6163 39.847 22.7713C39.9382 22.9523 39.703 23.1038 39.5974 23.2554C38.4585 24.9011 37.3181 26.5413 36.1579 28.1698C35.9803 28.4167 36.0029 28.5634 36.1723 28.7925Z" fill="#FBE500"/>
<path d="M43.9125 33.5613C43.9125 33.9041 43.8117 34.0063 43.4771 33.9878C42.9815 33.9576 42.4846 33.9576 41.9891 33.9878C41.6229 34.0132 41.5345 33.8863 41.5365 33.5346C41.5516 31.3965 41.5441 29.2585 41.5441 27.1198C41.5441 25.795 41.5543 24.4695 41.5365 23.1427C41.5324 22.8074 41.6236 22.6922 41.9678 22.7128C42.4786 22.7388 42.9903 22.7388 43.5011 22.7128C43.8206 22.6977 43.9125 22.8081 43.9125 23.1242C43.9002 24.8714 43.9063 26.6213 43.9063 28.3643C43.905 30.0985 43.8961 31.8299 43.9125 33.5613Z" fill="#FBE500"/>
<path d="M41.1929 19.6224C41.197 18.7995 41.8923 18.144 42.7488 18.1529C42.9439 18.1535 43.1371 18.1925 43.3172 18.2679C43.4972 18.3432 43.6606 18.4533 43.798 18.5919C43.9354 18.7306 44.0441 18.8949 44.1179 19.0756C44.1917 19.2563 44.229 19.4498 44.2278 19.645C44.2182 20.5049 43.5833 21.085 42.6596 21.0754C42.4679 21.0763 42.2779 21.0394 42.1004 20.9669C41.9229 20.8944 41.7615 20.7876 41.6253 20.6527C41.4891 20.5177 41.3808 20.3573 41.3066 20.1805C41.2324 20.0038 41.1938 19.8141 41.1929 19.6224Z" fill="#FBE500"/>
<path d="M51.2222 20.9829C51.2222 20.3465 51.1612 19.7177 50.9582 19.1129C50.1422 16.6663 48.0151 15.1406 45.4252 15.14C42.5346 15.14 39.6439 15.14 36.7529 15.14C35.1881 15.14 33.6226 15.14 32.0565 15.14C31.8199 15.14 31.621 15.1482 31.7822 14.7971C32.9644 12.169 34.1397 9.53797 35.3081 6.90397C36.286 4.70967 37.2569 2.51537 38.2396 0.321171C38.3465 0.0818709 38.3177 -0.00322922 38.0428 0.00157078C37.3804 0.0118708 36.7173 0.00987078 36.0542 0.00157078C35.8293 -0.00252922 35.7072 0.0756709 35.614 0.293071C35.219 1.21807 34.8 2.13347 34.3913 3.05167C33.6599 4.69737 32.9285 6.34167 32.197 7.98457C32.1486 7.97787 32.1032 7.95697 32.0666 7.92447C32.03 7.89207 32.0038 7.84947 31.9913 7.80217C30.925 5.33917 29.8512 2.87537 28.7993 0.40347C28.6732 0.10657 28.5202 -0.0121291 28.1966 0.000970921C27.5952 0.0255709 26.9918 0.0214709 26.3897 0.000970921C26.0325 -0.00932908 26.027 0.10377 26.1566 0.39657C27.6919 3.85457 29.2142 7.31877 30.7509 10.7768C30.8284 10.9517 30.814 11.0662 30.7385 11.2321C30.2167 12.3793 29.6935 13.5272 29.2101 14.6908C29.0633 15.0453 28.8816 15.1475 28.5093 15.1468C20.9207 15.1358 13.3321 15.1336 5.74359 15.14C2.66879 15.1427 0.102192 17.5152 0.0575925 20.5714C-0.0146075 25.4399 -0.0189042 30.3085 0.0445958 35.177C0.0870958 38.384 2.6298 40.7442 5.8361 40.7442C18.995 40.7442 32.1538 40.7229 45.312 40.76C48.5074 40.7689 51.2619 38.2722 51.2297 34.8629C51.1852 30.2399 51.2181 25.6121 51.2222 20.9829ZM4.98109 23.1291C4.96389 22.8247 5.04209 22.6985 5.37739 22.7177C5.93209 22.7472 6.49029 22.7143 7.04709 22.73C7.32139 22.7383 7.4064 22.6423 7.4009 22.3666C7.3852 21.4752 7.416 20.5886 7.3865 19.7006C7.3735 19.3091 7.50859 19.2117 7.87409 19.2323C8.38489 19.2617 8.89789 19.2494 9.40869 19.2323C9.68299 19.2254 9.77689 19.3296 9.77349 19.6032C9.76119 20.507 9.7811 21.4107 9.7619 22.3145C9.7557 22.6265 9.84069 22.7342 10.1637 22.7294C11.1868 22.7115 12.2099 22.7335 13.2323 22.717C13.5264 22.7122 13.6327 22.7945 13.6163 23.0955C13.594 23.5169 13.594 23.9392 13.6163 24.3606C13.6293 24.6281 13.5257 24.6905 13.2782 24.6877C12.2702 24.6774 11.2615 24.7062 10.2549 24.674C9.8393 24.6596 9.75569 24.8002 9.76119 25.1849C9.78109 26.7812 9.78519 28.3789 9.76459 29.9752C9.74129 31.7087 10.8583 32.38 12.5136 31.9459C13.3173 31.7354 13.3077 31.6991 13.704 32.4554C13.7671 32.5747 13.8318 32.6931 13.8981 32.8106C14.2835 33.4867 14.2835 33.486 13.582 33.7987C12.1817 34.422 10.763 34.5214 9.35869 33.8515C8.03659 33.2206 7.5011 32.0577 7.4201 30.6698C7.3653 29.7386 7.40919 28.8026 7.40919 27.8687H7.39609C7.39609 26.9348 7.38649 26.0002 7.40159 25.0662C7.40709 24.7769 7.3276 24.6658 7.0231 24.6781C6.467 24.7001 5.9095 24.6658 5.3534 24.6905C5.0441 24.7049 4.96389 24.5931 4.98109 24.303C5.00299 23.912 5.00299 23.5201 4.98109 23.1291ZM24.3916 23.5735C24.4334 22.7232 24.4327 22.7232 25.3056 22.7232C25.6978 22.7232 26.0887 22.7232 26.4802 22.7232C26.5769 22.7232 26.7031 22.682 26.7168 22.8466C26.7329 22.9498 26.7437 23.0537 26.7491 23.1579C26.7491 26.6322 26.7491 30.1037 26.7491 33.5724C26.7438 33.6767 26.733 33.7806 26.7168 33.8837C26.6702 34.0305 26.5468 33.9777 26.4515 33.9797C26.1052 33.9838 25.7589 33.9859 25.4133 33.9797C25.0985 33.9742 24.7173 34.0641 24.4876 33.9187C24.2469 33.7672 24.4334 33.3605 24.3916 33.0684C24.382 32.9998 24.3758 32.8984 24.3312 32.8703C24.2051 32.7914 24.1523 32.9326 24.0796 32.993C22.416 34.3706 20.5139 34.6428 18.5253 33.9962C16.5813 33.3633 15.3497 31.9391 14.9177 29.9464C14.4117 27.6095 14.8581 25.4831 16.6931 23.8004C18.0021 22.5984 19.5587 22.2233 21.2873 22.4798C22.3365 22.6334 23.2821 23.0167 24.0851 23.7236C24.1481 23.7799 24.2016 23.8848 24.3045 23.8477C24.4444 23.7997 24.3861 23.6688 24.3916 23.5735ZM36.1721 28.7924C37.4236 30.4833 38.6599 32.1839 39.9737 33.9804C39.0137 33.9804 38.1586 33.9804 37.3063 33.9804C37.1006 33.9804 37.032 33.8234 36.9346 33.6938C36.1022 32.5507 35.2622 31.4131 34.4462 30.2584C34.246 29.9752 34.1417 29.9807 33.9463 30.2529C33.1351 31.3912 32.3006 32.5157 31.4921 33.6547C31.3132 33.9077 31.1225 33.9976 30.8194 33.9866C30.0686 33.966 29.3157 33.9797 28.536 33.9797C28.571 33.6849 28.7774 33.5134 28.9173 33.3201C30.0034 31.8232 31.0951 30.3311 32.2087 28.8513C32.4288 28.5578 32.4144 28.3638 32.2039 28.0676C31.021 26.4178 29.8622 24.7501 28.6972 23.0859C28.6286 22.9906 28.5765 22.8843 28.4722 22.7074C29.3966 22.7074 30.262 22.6978 31.126 22.7136C31.3468 22.7184 31.4229 22.9529 31.5305 23.1079C32.3445 24.2825 33.1577 25.4578 33.9545 26.6434C34.1458 26.9279 34.2329 26.9396 34.4345 26.6399C35.245 25.431 36.096 24.2461 36.9113 23.04C37.0876 22.7794 37.2802 22.6923 37.5806 22.7019C38.1676 22.7225 38.7545 22.7019 39.3415 22.7115C39.5157 22.7115 39.7687 22.6162 39.8469 22.7712C39.9381 22.9522 39.7029 23.1037 39.5973 23.2553C38.4583 24.901 37.318 26.5412 36.1577 28.1697C35.9801 28.4166 36.0028 28.5633 36.1721 28.7924ZM41.544 27.1213C41.544 25.7965 41.5543 24.471 41.5365 23.1442C41.5324 22.8089 41.6236 22.6937 41.9678 22.7143C42.4785 22.7403 42.9903 22.7403 43.501 22.7143C43.8206 22.6992 43.9125 22.8096 43.9125 23.1257C43.9001 24.8729 43.9063 26.6228 43.9063 28.3659C43.9063 30.0973 43.8974 31.8287 43.9138 33.5601C43.9138 33.9029 43.813 34.0051 43.4784 33.9866C42.9829 33.9564 42.486 33.9564 41.9904 33.9866C41.6242 34.012 41.5358 33.8851 41.5378 33.5333C41.5536 31.398 41.544 29.26 41.544 27.1213ZM42.659 21.0754C42.2719 21.0771 41.9 20.9249 41.6251 20.6525C41.3502 20.38 41.1947 20.0095 41.1929 19.6224C41.197 18.7996 41.8924 18.144 42.7488 18.153C42.944 18.1535 43.1371 18.1926 43.3172 18.2679C43.4973 18.3432 43.6607 18.4534 43.7981 18.592C43.9355 18.7306 44.0442 18.895 44.118 19.0757C44.1917 19.2564 44.2291 19.4499 44.2279 19.6451C44.2176 20.5029 43.5826 21.085 42.659 21.0754Z" fill="#020200"/>
<path d="M7.39697 5.93707C7.39697 4.21867 7.40798 2.50027 7.38738 0.782566C7.38328 0.412366 7.49647 0.313565 7.84757 0.333465C8.34367 0.359165 8.84077 0.359165 9.33687 0.333465C9.67157 0.316965 9.79567 0.421966 9.77717 0.766866C9.76617 0.972566 9.63997 1.27567 9.86147 1.38397C10.0103 1.45257 10.1474 1.17007 10.2887 1.04597C11.981 -0.445535 15.4542 -0.442734 16.9031 1.77617C17.0924 2.06627 17.1774 1.95447 17.344 1.75907C18.6983 0.189466 20.4393 -0.263734 22.4025 0.148366C24.221 0.530266 25.5102 2.21776 25.5431 4.22276C25.5815 6.55826 25.5486 8.89517 25.5575 11.2314C25.5575 11.4879 25.4807 11.5784 25.2242 11.5743C24.7127 11.5606 24.1991 11.5468 23.6889 11.5784C23.32 11.601 23.2089 11.4982 23.2089 11.1114C23.2288 9.04677 23.2151 6.98207 23.2192 4.91737C23.2192 4.04317 22.9655 3.27717 22.2729 2.71627C21.0818 1.75627 19.107 2.11907 18.2629 3.43557C17.7829 4.18987 17.6526 5.02917 17.6457 5.89587C17.6368 7.64447 17.6348 9.39297 17.6505 11.1409C17.654 11.4748 17.571 11.5969 17.2254 11.5777C16.7293 11.5506 16.2321 11.5506 15.736 11.5777C15.3932 11.5955 15.2752 11.5091 15.2786 11.1361C15.2992 9.05637 15.2951 6.97657 15.2862 4.89617C15.2807 3.55557 14.4839 2.44887 13.4032 2.24387C11.728 1.92497 10.3861 2.77317 9.93347 4.42787C9.79637 4.92837 9.76618 5.43717 9.76478 5.94937C9.76478 7.68287 9.75378 9.41637 9.77168 11.1491C9.77578 11.4968 9.66807 11.5928 9.33687 11.577C8.82577 11.5489 8.31347 11.5489 7.80227 11.577C7.44497 11.599 7.38328 11.4625 7.38608 11.1382C7.40528 9.40327 7.39697 7.66987 7.39697 5.93707Z" fill="#020200"/>
<path d="M24.3877 28.342C24.3952 29.9747 23.6773 31.1994 22.2003 31.8721C20.8192 32.5002 19.4485 32.3424 18.2814 31.3386C17.0937 30.3182 16.8633 28.951 17.1157 27.4726C17.39 25.881 18.638 24.6913 20.1644 24.5391C21.9088 24.365 23.5107 25.2598 24.1189 26.7553C24.3158 27.2603 24.4073 27.8003 24.3877 28.342Z" fill="#020200"/>
</svg>
