<svg width="160" height="100" viewBox="0 0 160 100" fill="none" xmlns="http://www.w3.org/2000/svg">
<rect width="160" height="100" rx="8" fill="#F9F8F7"/>
<mask id="mask0_4_283" style="mask-type:luminance" maskUnits="userSpaceOnUse" x="48" y="30" width="64" height="40">
<path d="M111.972 30H48.0215V70H111.972V30Z" fill="white"/>
</mask>
<g mask="url(#mask0_4_283)">
<path d="M56.2263 62.9154V66.1056C56.2263 68.7101 55.2023 69.7564 52.3541 69.7564H48.0215V50.208H52.0859C54.9117 50.208 55.9334 51.2297 55.9334 53.8588V56.3918C55.9334 57.9992 55.5444 59.0209 54.5697 59.5798C55.7389 60.0918 56.2263 61.138 56.2263 62.9154ZM50.9681 52.5442V58.6565H52.0859C52.6224 58.6565 52.9801 58.4329 52.9801 57.6571V53.5436C52.9801 52.7633 52.6157 52.5442 52.0859 52.5442H50.9681ZM53.2797 61.9697C53.2797 61.1917 52.8907 60.9972 52.3541 60.9972H50.9681V67.4246H52.3541C52.8907 67.4246 53.2797 67.2011 53.2797 66.4499V61.9697Z" fill="#FCCB6A"/>
<path d="M61.8825 49.9639H61.9317C64.8671 49.9639 65.9067 50.9856 65.9067 53.6169V66.3466C65.9067 68.9534 64.8604 69.9996 61.9161 69.9996H61.8825C58.936 69.9996 57.8897 68.9757 57.8897 66.3466V53.6169C57.8808 51.0146 58.9516 49.9639 61.8825 49.9639ZM60.8363 53.3732V66.5903C60.8363 67.3705 61.2968 67.5896 61.8825 67.5896H61.9317C62.5398 67.5896 62.978 67.3661 62.978 66.5903V53.3732C62.978 52.6176 62.5644 52.3739 61.9317 52.3739H61.8825C61.2879 52.3739 60.8273 52.593 60.8273 53.3732H60.8363Z" fill="#FCCB6A"/>
<path d="M74.0689 67.4202V69.7564H67.4961V50.208H70.4427V67.4224L74.0689 67.4202Z" fill="#FCCB6A"/>
<path d="M81.0307 66.2509H78.8398L78.5491 69.7564H75.3097L77.9634 50.208H81.9071L84.5608 69.7564H81.3325L81.0307 66.2509ZM80.8362 63.9147L80.1543 55.8798L79.9307 53.3737L79.7072 55.8798L79.0253 63.9147H80.8362Z" fill="#FCCB6A"/>
<path d="M92.3273 67.4202V69.7564H85.7545V50.208H88.71V67.4224L92.3273 67.4202Z" fill="#FCCB6A"/>
<path d="M99.2891 66.2509H97.0982L96.8053 69.7564H93.5681L96.2218 50.208H100.166L102.819 69.7564H99.582L99.2891 66.2509ZM99.0946 63.9147L98.4239 55.8798L98.2004 53.3737L97.9768 55.8798L97.2949 63.9147H99.0946Z" fill="#FCCB6A"/>
<path d="M111.972 69.7564H109.054L108.934 62.7946C108.909 61.8691 108.486 61.6254 107.863 61.6254H106.968V69.7564H104.011V50.208H108.077C110.901 50.208 111.923 51.2297 111.923 53.8588V57.0513C111.923 58.7548 111.46 59.8011 110.358 60.3377C111.475 60.825 111.82 61.9451 111.844 63.9147L111.972 69.7564ZM106.957 52.542V59.2869H108.075C108.609 59.2869 108.969 59.0634 108.969 58.3122V53.5436C108.969 52.7633 108.603 52.5442 108.075 52.5442L106.957 52.542Z" fill="#FCCB6A"/>
<path d="M86.792 36.5566H86.251V44.169H86.7987C87.0737 44.169 87.2727 44.0572 87.2727 43.6704V37.0686C87.266 36.6707 87.0782 36.5566 86.792 36.5566Z" fill="black"/>
<path d="M76.7896 36.4697H76.765C76.4655 36.4697 76.2307 36.5837 76.2307 36.9817V43.7445C76.2307 44.1447 76.4543 44.2564 76.765 44.2564H76.7896C77.1026 44.2564 77.3262 44.1447 77.3262 43.7445V36.9817C77.3262 36.5949 77.1138 36.4697 76.7896 36.4697Z" fill="black"/>
<path d="M59.962 36.4697H59.9374C59.6379 36.4697 59.4009 36.5837 59.4009 36.9817V43.7445C59.4009 44.1447 59.6379 44.2564 59.9374 44.2564H59.962C60.2728 44.2564 60.4986 44.1447 60.4986 43.7445V36.9817C60.4986 36.5949 60.2862 36.4697 59.962 36.4697Z" fill="black"/>
<path d="M91.6878 36.9814L91.5761 38.2647L91.2273 42.3738H92.1484L91.7996 38.2647L91.6878 36.9814Z" fill="black"/>
<path d="M101.688 33.7247H56.8991C56.7527 33.7229 56.6075 33.7502 56.4718 33.8051C56.3361 33.8599 56.2127 33.9412 56.1087 34.0442C56.0046 34.1471 55.9221 34.2697 55.8659 34.4049C55.8097 34.54 55.7809 34.685 55.7813 34.8313V46.0095C55.7813 46.306 55.899 46.5903 56.1087 46.7999C56.3183 47.0096 56.6026 47.1273 56.8991 47.1273H101.688C101.984 47.1273 102.269 47.0096 102.478 46.7999C102.688 46.5903 102.806 46.306 102.806 46.0095V34.8313C102.803 34.5368 102.684 34.2554 102.474 34.0481C102.265 33.8409 101.982 33.7247 101.688 33.7247ZM62.0053 43.6219C62.0053 44.9632 61.4687 45.4886 59.9619 45.4886H59.9373C58.4305 45.4886 57.8939 44.9655 57.8939 43.6219V37.1072C57.8939 35.7658 58.4417 35.2382 59.9373 35.2382H59.9619C61.4687 35.2382 62.0053 35.7614 62.0053 37.1072V43.6219ZM66.8633 43.6219C66.8633 44.9632 66.3402 45.4886 64.8512 45.4886H64.7529C63.2952 45.4886 62.7721 44.9543 62.7721 43.6219V42.8103L64.2722 42.7432V43.7515C64.2722 44.1517 64.4578 44.2635 64.7462 44.2635H64.8445C64.9143 44.2746 64.9857 44.269 65.0529 44.2472C65.1201 44.2255 65.1812 44.188 65.2311 44.1381C65.2811 44.0881 65.3185 44.0271 65.3402 43.9599C65.362 43.8927 65.3676 43.8213 65.3565 43.7515V42.6002C65.3478 42.2858 65.2433 41.9816 65.0569 41.7283L63.4629 39.5239C63.063 39.0114 62.836 38.3852 62.8146 37.7354V37.1072C62.8146 35.7658 63.3511 35.2382 64.7953 35.2382H64.8199C66.2776 35.2382 66.8007 35.7614 66.8007 37.1072V37.8539L65.2939 37.9277V36.982C65.2939 36.5952 65.1061 36.4701 64.8199 36.4701H64.7886C64.5136 36.4701 64.3147 36.5841 64.3147 36.982V37.6907C64.3317 37.9925 64.4357 38.2829 64.6143 38.5268L66.215 40.7312C66.622 41.2561 66.8493 41.8981 66.8633 42.5622V43.6219ZM73.9123 45.3656H72.4189L72.5552 40.7178L72.629 38.6386L72.2445 40.7178L71.2474 45.3276H70.3777L69.3784 40.7178L68.9804 38.6252L69.0676 40.7178L69.204 45.3656H67.7106V35.3656H69.4991L70.6169 41.0084L70.8405 42.2291L71.0395 41.0084L72.1573 35.3656H73.9458L73.9123 45.3656ZM78.8307 43.6219C78.8307 44.9632 78.2963 45.4886 76.7873 45.4886H76.7627C75.2559 45.4886 74.7193 44.9655 74.7193 43.6219V37.1072C74.7193 35.7658 75.2693 35.2382 76.7627 35.2382H76.7873C78.2963 35.2382 78.8307 35.7614 78.8307 37.1072V43.6219ZM83.8631 45.3656H82.5686L81.2586 40.7558L80.9612 39.5597L81.0104 40.7558L81.1468 45.3656H79.64V35.3656H80.9366L82.1819 39.7989L82.5418 41.232L82.4926 39.7989L82.3585 35.3656H83.8653L83.8631 45.3656ZM88.7591 43.4967C88.7591 44.838 88.236 45.3656 86.7895 45.3656H84.735V35.3656H86.7895C88.236 35.3656 88.7591 35.8888 88.7591 37.2324V43.4967ZM92.3943 45.3656L92.2467 43.5771H91.1289L90.9791 45.3656H89.3225L90.6795 35.3656H92.6916L94.0509 45.3679L92.3943 45.3656ZM98.4305 45.3656H97.496L97.136 44.6055C96.8365 45.1287 96.4139 45.4998 95.8394 45.4998H95.7902C94.9675 45.4998 94.3572 44.9275 94.3572 43.595V37.1117C94.3572 35.7703 94.9049 35.2427 96.3513 35.2427H96.3759C97.8447 35.2427 98.3679 35.7658 98.3679 37.1117V38.0954L96.8611 38.158V36.982C96.8611 36.5952 96.6733 36.4701 96.3759 36.4701H96.3513C96.0764 36.4701 95.864 36.5841 95.864 36.982V43.5838C95.864 44.1562 96.1144 44.2545 96.3625 44.2545C96.6733 44.2545 96.9237 44.031 96.9237 43.3938V41.0933H96.4139V39.8973H98.426L98.4305 45.3656ZM100.635 45.3656H99.128V35.3656H100.635V45.3656Z" fill="black"/>
<path d="M90.2549 32.5352H102.685C103.025 32.5358 103.35 32.671 103.59 32.9111C103.83 33.1512 103.965 33.4767 103.966 33.8162V47.1116L106.356 30L90.2549 32.5352Z" fill="#FCCB6A"/>
</g>
</svg>
