<svg width="103" height="30" viewBox="0 0 103 30" fill="none" xmlns="http://www.w3.org/2000/svg">
<mask id="mask0_4_387" style="mask-type:luminance" maskUnits="userSpaceOnUse" x="0" y="0" width="103" height="30">
<path d="M0 0H103V30H0V0Z" fill="white"/>
</mask>
<g mask="url(#mask0_4_387)">
<path d="M103 25.7309C102.2 26.3595 101.305 26.857 100.349 27.2049C99.585 27.4839 98.797 27.6749 98 27.8209C96.8309 28.0341 95.6403 28.1063 94.454 28.0359C93.104 27.9559 91.791 27.6959 90.533 27.1879C88.798 26.4879 87.412 25.3559 86.352 23.8209C85.476 22.5509 84.9 21.1479 84.535 19.6549C84.2729 18.5482 84.1169 17.4191 84.069 16.2829C84.0307 15.619 84.0213 14.9537 84.041 14.2889C84.105 12.6139 84.312 10.9629 84.894 9.3789C85.416 7.9589 86.132 6.6449 87.15 5.5159C88.4315 4.07916 90.0925 3.03338 91.942 2.4989C92.9991 2.18603 94.0906 2.00367 95.192 1.9559C96.2 1.9129 97.202 1.95989 98.201 2.06389C99.4657 2.20147 100.713 2.46991 101.922 2.8649C101.968 2.8799 102.011 2.9029 102.057 2.9189C102.113 2.9389 102.129 2.9839 102.122 3.0329C102.112 3.1029 102.089 3.1729 102.072 3.2429L101.183 6.9089L101.176 6.9439C101.144 7.0599 101.111 7.0799 100.994 7.0369C100.415 6.82274 99.8178 6.66011 99.21 6.5509C98.314 6.3879 97.408 6.3429 96.498 6.3319C95.8678 6.32077 95.2381 6.37202 94.618 6.4849C93.629 6.6709 92.709 7.0229 91.916 7.6599C91.1887 8.24859 90.605 8.99512 90.209 9.8429C89.793 10.7119 89.539 11.6279 89.393 12.5779C89.198 13.8409 89.193 15.1099 89.273 16.3779C89.347 17.5669 89.585 18.7259 90.057 19.8279C90.443 20.7299 90.964 21.5339 91.699 22.1939C92.515 22.9279 93.476 23.3469 94.543 23.5549C94.938 23.6319 95.339 23.6719 95.735 23.6679C96.659 23.6569 97.57 23.5349 98.422 23.1399C98.597 23.0589 98.76 22.9519 98.929 22.8599C98.9949 22.8297 99.0497 22.7796 99.0855 22.7166C99.1214 22.6536 99.1366 22.581 99.129 22.5089C99.116 22.1819 99.125 21.8549 99.125 21.5289V18.3329C99.125 17.9709 99.118 18.0279 98.809 17.9889C98.256 17.9189 97.701 17.8689 97.148 17.8109L94.692 17.5509C94.415 17.5209 94.138 17.4909 93.862 17.4579C93.694 17.4379 93.693 17.4319 93.686 17.2529V17.1429V14.7479C93.686 14.6879 93.688 14.6269 93.69 14.5669C93.693 14.4939 93.736 14.4609 93.806 14.4569C93.854 14.4539 93.902 14.4529 93.951 14.4529H102.821C102.881 14.4529 102.941 14.4639 103.001 14.4709V25.7289L103 25.7309ZM45.82 15.1069C45.82 11.1129 45.82 7.1179 45.822 3.1239C45.822 2.6839 45.738 2.7039 46.26 2.6149C48.1003 2.30899 49.9607 2.13887 51.826 2.1059C52.006 2.1049 52.188 2.0829 52.37 2.0809C53.68 2.0729 54.983 2.1589 56.28 2.3519C57.575 2.5459 58.808 2.9239 59.92 3.6289C61.585 4.6819 62.662 6.1569 63.083 8.0929C63.233 8.7819 63.298 9.4779 63.304 10.1809C63.311 10.9089 63.278 11.6309 63.154 12.3509C62.8996 13.8658 62.1853 15.2658 61.108 16.3609C59.998 17.5049 58.641 18.2159 57.111 18.6149C55.9497 18.9201 54.7527 19.0688 53.552 19.0569C53.092 19.0529 52.632 19.0599 52.172 19.0429C51.76 19.0269 51.35 18.9859 50.939 18.9549C50.747 18.9399 50.741 18.9429 50.737 19.1449C50.736 19.2299 50.737 19.3149 50.737 19.3999V27.3169C50.733 27.5529 50.733 27.5569 50.494 27.5569H45.986C45.843 27.5499 45.828 27.5349 45.824 27.3819C45.821 27.2729 45.822 27.1639 45.822 27.0559V15.1089L45.82 15.1069ZM50.735 10.5709V14.1999C50.735 14.2959 50.733 14.3929 50.736 14.4899C50.74 14.5939 50.778 14.6369 50.883 14.6619C50.93 14.6729 50.978 14.6799 51.027 14.6859C52.26 14.8259 53.491 14.8229 54.717 14.6079C55.2667 14.5149 55.7957 14.326 56.28 14.0499C56.6827 13.825 57.036 13.5213 57.3188 13.1569C57.6016 12.7925 57.8081 12.3748 57.926 11.9289C58.1023 11.286 58.1645 10.6173 58.11 9.9529C58.075 9.4809 57.992 9.0179 57.785 8.5859C57.345 7.6629 56.62 7.0589 55.67 6.7109C55.028 6.4759 54.355 6.3909 53.678 6.3489C52.903 6.3009 52.129 6.3529 51.358 6.4249C51.189 6.4409 51.022 6.4699 50.854 6.4949C50.787 6.5049 50.746 6.5489 50.742 6.6169C50.7372 6.71348 50.7352 6.81019 50.736 6.9069V10.5719L50.735 10.5709ZM81.977 22.5219C82.072 22.8919 82.17 23.2639 82.264 23.6389C82.4869 24.53 82.7089 25.4213 82.93 26.3129C82.973 26.5179 82.972 26.5269 82.8 26.6399C82.158 27.0639 81.453 27.3469 80.712 27.5449C80.022 27.7299 79.317 27.8409 78.607 27.9289C77.597 28.0567 76.5774 28.0918 75.561 28.0339C74.039 27.9459 72.567 27.6279 71.176 26.9819C70.3201 26.5796 69.532 26.0465 68.84 25.4019C67.686 24.3399 66.885 23.0419 66.288 21.6079C65.778 20.3819 65.482 19.1039 65.318 17.7879C65.14 16.3669 65.123 14.9399 65.2 13.5149C65.277 12.0859 65.5 10.6779 65.985 9.3229C66.378 8.2249 66.892 7.1849 67.578 6.2379C68.908 4.4049 70.654 3.1459 72.831 2.4949C73.8515 2.18682 74.9062 2.00645 75.971 1.9579C76.905 1.9179 77.834 1.9679 78.762 2.0409C79.817 2.1239 80.845 2.3429 81.857 2.6409C82.054 2.6989 82.247 2.7709 82.439 2.8449C82.595 2.9039 82.61 2.9269 82.576 3.0829C82.506 3.4139 82.426 3.7429 82.35 4.0729C82.13 5.0269 81.908 5.9799 81.686 6.9329C81.658 7.0559 81.618 7.0799 81.511 7.0329C80.59 6.6269 79.613 6.4729 78.619 6.3949C78.0156 6.3472 77.4103 6.32752 76.805 6.3359C75.961 6.3469 75.142 6.4879 74.364 6.8219C72.968 7.4189 71.959 8.4199 71.302 9.7809C70.931 10.5489 70.708 11.3629 70.563 12.2009C70.359 13.3859 70.3 14.5809 70.359 15.7789C70.419 17.0279 70.614 18.2549 71.069 19.4289C71.387 20.2489 71.821 20.9989 72.424 21.6459C73.3007 22.597 74.4602 23.2408 75.731 23.4819C76.678 23.6719 77.631 23.6549 78.588 23.5689C79.6022 23.4722 80.59 23.1899 81.502 22.7359C81.642 22.6669 81.782 22.5939 81.922 22.5239C81.93 22.5189 81.944 22.5239 81.975 22.5239L81.977 22.5219ZM41.136 14.9959V29.5209C41.136 30.0739 41.202 29.9919 40.651 29.9999C40.578 29.9999 40.506 29.9999 40.433 29.9969C40.363 29.9949 40.319 29.9569 40.314 29.8869C40.308 29.8029 40.309 29.7189 40.309 29.6339V0.366896C40.309 -0.0371035 40.276 0.000896148 40.685 0.00289615C41.197 0.00589615 41.136 -0.0651033 41.136 0.435897C41.138 5.2899 41.137 10.1439 41.137 14.9969L41.136 14.9959ZM15.073 24.1239V23.3979C15.073 23.0439 15.129 22.6979 15.243 22.3639C15.463 21.7129 15.907 21.3169 16.596 21.1999C16.949 21.1399 17.297 21.1529 17.64 21.2429C18.07 21.3559 18.395 21.6129 18.61 22.0049C18.752 22.2649 18.81 22.5479 18.842 22.8379C18.852 22.9279 18.816 22.9639 18.716 22.9679C18.619 22.9719 18.522 22.9699 18.425 22.9699C18.133 22.9669 18.114 23.0079 18.049 22.6779C17.922 22.0259 17.46 21.7079 16.723 21.8539C16.324 21.9319 16.09 22.1869 15.96 22.5519C15.854 22.8519 15.824 23.1659 15.816 23.4799C15.806 23.9159 15.806 24.3509 15.816 24.7869C15.822 25.0889 15.862 25.3899 15.967 25.6769C16.0314 25.857 16.1356 26.0203 16.2719 26.1546C16.4081 26.289 16.5728 26.3908 16.7539 26.4527C16.9349 26.5146 17.1275 26.5349 17.3175 26.5121C17.5074 26.4892 17.6898 26.4239 17.851 26.3209C18.031 26.2109 18.128 26.0739 18.111 25.8479C18.091 25.5719 18.109 25.2919 18.106 25.0139C18.104 24.8219 18.083 24.8019 17.903 24.7989C17.673 24.7949 17.443 24.7989 17.213 24.7959C17.049 24.7939 17.036 24.7839 17.036 24.6379C17.039 24.1019 16.962 24.1619 17.481 24.1589C17.881 24.1569 18.281 24.1569 18.68 24.1609C18.826 24.1619 18.852 24.1879 18.853 24.3309C18.855 24.9479 18.853 25.5639 18.857 26.1809C18.8596 26.29 18.819 26.3957 18.744 26.4749C18.5082 26.7542 18.1928 26.9552 17.84 27.0509C17.4416 27.1613 17.0231 27.1784 16.617 27.1009C15.99 26.9759 15.555 26.5979 15.301 26.0169C15.152 25.6713 15.0744 25.2992 15.073 24.9229C15.069 24.6569 15.073 24.3899 15.073 24.1239ZM32.71 13.3619C32.77 13.0879 32.922 12.9519 33.165 12.9549C33.213 12.9549 33.262 12.9549 33.31 12.9569C33.38 12.9579 33.423 12.9919 33.426 13.0639C33.429 13.1489 33.431 13.2339 33.431 13.3179V17.3119C33.431 17.6049 33.406 17.8899 33.284 18.1619C33.2141 18.3307 33.1083 18.4823 32.974 18.6061C32.8396 18.7299 32.6799 18.823 32.506 18.8789C31.846 19.0949 31.24 18.9529 30.687 18.5539C30.535 18.4439 30.559 18.3959 30.633 18.2829C30.686 18.2009 30.729 18.1149 30.781 18.0329C30.834 17.9509 30.872 17.9429 30.953 18.0109C31.243 18.2579 31.574 18.3789 31.958 18.3419C32.358 18.3039 32.608 18.0839 32.678 17.6929C32.706 17.5269 32.713 17.3569 32.725 17.1889C32.728 17.1299 32.74 17.0569 32.685 17.0219C32.623 16.9819 32.578 17.0449 32.534 17.0839C32.227 17.3519 31.866 17.4039 31.479 17.3379C31.3109 17.3109 31.1505 17.2484 31.0085 17.1546C30.8664 17.0608 30.7459 16.9378 30.655 16.7939C30.5264 16.6023 30.438 16.3866 30.395 16.1599C30.2482 15.4223 30.2595 14.6619 30.428 13.9289C30.464 13.7749 30.53 13.6319 30.608 13.4939C31.036 12.7289 32.138 12.7069 32.585 13.1969C32.617 13.2319 32.643 13.2739 32.71 13.3619ZM32.73 15.0919C32.73 14.8159 32.727 14.5369 32.733 14.2599C32.7377 14.1268 32.6979 13.9959 32.62 13.8879C32.41 13.5879 32.119 13.4819 31.768 13.5339C31.622 13.5499 31.4845 13.6108 31.3745 13.7082C31.2645 13.8057 31.1875 13.9348 31.154 14.0779C30.9687 14.7562 30.9663 15.4714 31.147 16.1509C31.234 16.4909 31.472 16.6809 31.822 16.7159C32.18 16.7529 32.456 16.6119 32.648 16.3059C32.7061 16.2143 32.7354 16.1073 32.732 15.9989C32.728 15.6969 32.73 15.3949 32.73 15.0939V15.0919ZM31.189 26.7899C31.133 26.8599 31.162 26.9469 31.162 27.0259C31.159 27.5339 31.162 28.0419 31.159 28.5499C31.159 28.7049 31.146 28.7189 30.991 28.7169C30.349 28.7089 30.448 28.8169 30.446 28.1959C30.441 26.5259 30.445 24.8559 30.445 23.1849C30.445 23.0749 30.445 22.9669 30.447 22.8579C30.447 22.7879 30.482 22.7449 30.553 22.7379C30.601 22.7329 30.649 22.7329 30.698 22.7319C30.954 22.7259 31.111 22.8429 31.168 23.0839C31.263 23.0719 31.302 22.9869 31.364 22.9339C31.932 22.4489 32.882 22.5979 33.272 23.2339C33.433 23.4979 33.514 23.7899 33.545 24.0919C33.5983 24.6222 33.5989 25.1565 33.547 25.6869C33.519 25.9769 33.441 26.2569 33.295 26.5139C33.088 26.8739 32.783 27.0849 32.365 27.1289C31.977 27.1709 31.617 27.1189 31.315 26.8429C31.283 26.8129 31.253 26.7659 31.189 26.7899ZM31.159 24.8999V25.8429C31.159 25.9259 31.155 26.0099 31.203 26.0879C31.373 26.3699 31.619 26.5279 31.948 26.5229C32.273 26.5179 32.531 26.3879 32.683 26.0809C32.791 25.8507 32.8457 25.5991 32.843 25.3449C32.847 25.0549 32.847 24.7649 32.843 24.4749C32.8419 24.2811 32.8116 24.0886 32.753 23.9039C32.578 23.3609 32.16 23.2419 31.693 23.3419C31.383 23.4079 31.163 23.7069 31.159 24.0299C31.156 24.3199 31.159 24.6099 31.159 24.8999ZM11.16 4.5869V2.1179V1.8279C11.16 1.7439 11.195 1.6899 11.287 1.6879C11.347 1.6859 11.407 1.6849 11.468 1.6849H13.031C13.214 1.6849 13.393 1.7049 13.571 1.7499C14.091 1.8849 14.447 2.20989 14.635 2.70289C14.835 3.23189 14.82 3.7739 14.62 4.3009C14.439 4.7789 14.065 5.0529 13.577 5.1709C13.3886 5.21731 13.195 5.23882 13.001 5.2349C12.687 5.2269 12.371 5.2319 12.056 5.2359C11.94 5.2379 11.91 5.2699 11.909 5.3929C11.906 5.9369 11.909 6.4819 11.906 7.0259C11.901 7.5889 11.976 7.4879 11.422 7.4989C11.373 7.4989 11.324 7.4989 11.276 7.4959C11.206 7.4909 11.166 7.4519 11.163 7.3819C11.159 7.2859 11.159 7.1879 11.159 7.0919L11.16 4.5869ZM11.904 3.45989V4.4359C11.904 4.5149 11.928 4.5869 12.019 4.5869C12.405 4.5869 12.793 4.6049 13.177 4.5739C13.573 4.5409 13.849 4.3139 13.955 3.9219C14.0428 3.61823 14.0369 3.29514 13.938 2.9949C13.811 2.6199 13.559 2.3729 13.153 2.3479C12.78 2.3249 12.405 2.3419 12.031 2.3429C11.943 2.3429 11.904 2.3999 11.904 2.4829V3.45989ZM1.90735e-06 15.0699C0.0240019 14.5999 0.0220027 14.1289 0.00200272 13.6579C0.00400272 13.5949 0.00600214 13.5319 0.0100021 13.4679L0.0200024 13.3769C0.0390024 13.0069 0.144002 12.6619 0.320002 12.3409C0.689002 11.6699 1.277 11.3759 2.027 11.3829C2.183 11.3849 2.343 11.4069 2.494 11.4429C3.013 11.5659 3.374 11.8829 3.583 12.3699C3.631 12.4799 3.672 12.5969 3.693 12.7149C3.821 13.4699 3.888 13.3299 3.207 13.3409C3.034 13.3449 3.03 13.3369 3.006 13.1609C2.98365 12.9807 2.94242 12.8034 2.883 12.6319C2.766 12.3049 2.54 12.1199 2.198 12.0609C1.641 11.9639 1.19 12.1939 0.953001 12.7069C0.833737 12.9592 0.768998 13.2339 0.763002 13.5129C0.755002 14.0929 0.753002 14.6729 0.763002 15.2529C0.769002 15.5569 0.840001 15.8529 0.977001 16.1269C1.04651 16.2652 1.14431 16.3873 1.26406 16.4853C1.3838 16.5833 1.52282 16.6551 1.67208 16.6959C1.82135 16.7367 1.97753 16.7457 2.1305 16.7223C2.28346 16.6989 2.4298 16.6435 2.56 16.5599C2.70326 16.4665 2.81157 16.3283 2.868 16.1669C2.954 15.9389 2.995 15.7019 3.022 15.4719C3.107 15.4069 3.195 15.4219 3.278 15.4239C3.876 15.4359 3.808 15.3149 3.706 15.9829C3.675 16.1839 3.593 16.3759 3.487 16.5559C3.30098 16.8865 2.99707 17.1347 2.636 17.2509C2.31336 17.3589 1.97028 17.3918 1.633 17.3469C1.053 17.2689 0.623002 16.9609 0.340002 16.4549C0.147783 16.1171 0.0371743 15.739 0.0170021 15.3509L0.00700188 15.2589L-0.0019989 15.0689L1.90735e-06 15.0699ZM27.035 6.4939C27.144 6.5419 27.187 6.6189 27.239 6.6839C27.443 6.9339 27.504 6.9089 27.189 7.1989C27.109 7.2719 27.014 7.3309 26.918 7.3789C26.6576 7.51038 26.3713 7.58268 26.0796 7.59063C25.788 7.59858 25.4982 7.54199 25.231 7.4249C24.741 7.2239 24.504 6.8049 24.399 6.3089C24.3519 6.0962 24.3301 5.8787 24.334 5.6609C24.345 5.2989 24.318 4.9359 24.38 4.5749C24.419 4.32338 24.4994 4.08007 24.618 3.8549C24.7248 3.6428 24.8845 3.46191 25.0818 3.3298C25.2791 3.19768 25.5072 3.11883 25.744 3.1009C25.949 3.0809 26.154 3.0899 26.358 3.1329C26.751 3.2169 27.038 3.4349 27.219 3.7929C27.307 3.9659 27.361 4.1499 27.399 4.3419C27.469 4.7099 27.489 5.2069 27.429 5.5479H25.4C25.316 5.5479 25.23 5.5479 25.147 5.5559C25.094 5.5589 25.055 5.5949 25.056 5.6479C25.064 5.9509 25.089 6.2529 25.244 6.5249C25.3021 6.63169 25.3842 6.72356 25.4838 6.79331C25.5834 6.86306 25.6978 6.90878 25.818 6.9269C26.222 6.9949 26.588 6.9239 26.891 6.6269C26.934 6.5849 26.981 6.5439 27.035 6.4939ZM25.908 4.9399H26.56C26.703 4.9329 26.74 4.8999 26.734 4.7739C26.729 4.59306 26.6994 4.41375 26.646 4.2409C26.541 3.9229 26.33 3.7429 26.023 3.7229C25.683 3.6999 25.409 3.8049 25.24 4.1249C25.13 4.3339 25.106 4.5599 25.07 4.7849C25.054 4.8829 25.11 4.9369 25.221 4.9389C25.451 4.9419 25.68 4.9389 25.909 4.9389L25.908 4.9399ZM18.172 6.4809C18.242 6.5579 18.301 6.6179 18.353 6.6829C18.571 6.9439 18.569 6.9559 18.331 7.1749C18.1415 7.34611 17.9105 7.46471 17.661 7.5189C17.2957 7.60818 16.9136 7.60267 16.551 7.5029C16.085 7.3739 15.775 7.0709 15.607 6.6249C15.5134 6.38838 15.4623 6.13719 15.456 5.8829C15.45 5.4129 15.416 4.9409 15.514 4.4729C15.576 4.1729 15.681 3.8939 15.867 3.6479C16.08 3.3659 16.359 3.1909 16.708 3.1259C16.9585 3.07941 17.2157 3.08247 17.465 3.1349C17.886 3.2199 18.183 3.4599 18.363 3.8499C18.476 4.0939 18.535 4.3539 18.558 4.6179C18.581 4.8819 18.573 5.1489 18.58 5.4149C18.582 5.5049 18.54 5.5479 18.45 5.5479H16.488C16.416 5.5479 16.343 5.5479 16.271 5.5559C16.219 5.5619 16.187 5.6009 16.184 5.6539C16.164 5.9609 16.211 6.2569 16.361 6.5289C16.471 6.7299 16.645 6.8639 16.865 6.9129C17.262 7.0029 17.635 6.9509 17.955 6.6749L18.172 6.4809ZM17.012 4.9359V4.9409H17.483C17.871 4.9409 17.881 4.9809 17.829 4.5309C17.8143 4.4232 17.7885 4.3173 17.752 4.2149C17.655 3.9249 17.459 3.7469 17.146 3.7229C16.822 3.6969 16.546 3.7869 16.375 4.0859C16.245 4.3119 16.207 4.5619 16.183 4.8149C16.176 4.8829 16.215 4.9329 16.286 4.9349C16.528 4.9369 16.77 4.9349 17.011 4.9349L17.012 4.9359ZM22.248 24.9029C22.252 24.5629 22.26 24.2249 22.356 23.8949C22.49 23.4359 22.742 23.0599 23.173 22.8319C23.369 22.7278 23.5843 22.6653 23.8056 22.6482C24.0268 22.6311 24.2492 22.6598 24.4589 22.7326C24.6685 22.8053 24.8609 22.9205 25.0241 23.0709C25.1872 23.2213 25.3176 23.4038 25.407 23.6069C25.442 23.6829 25.472 23.7629 25.493 23.8449C25.684 24.5749 25.691 25.3079 25.47 26.0279C25.313 26.5409 24.978 26.9259 24.445 27.0699C23.553 27.3099 22.758 26.9759 22.415 26.0799C22.3344 25.8774 22.2868 25.6634 22.274 25.4459L22.249 24.9019L22.248 24.9029ZM22.98 24.8919C22.989 25.0849 22.992 25.2779 23.008 25.4699C23.028 25.7009 23.101 25.9189 23.226 26.1149C23.3356 26.2986 23.5108 26.4339 23.7162 26.4937C23.9216 26.5534 24.142 26.5331 24.333 26.4369C24.608 26.3069 24.747 26.0669 24.808 25.7889C24.9306 25.2335 24.9333 24.6584 24.816 24.1019C24.7725 23.8873 24.6676 23.6899 24.514 23.5339C24.184 23.1979 23.684 23.1889 23.353 23.5319C23.2214 23.6741 23.1255 23.8454 23.073 24.0319C22.983 24.3129 22.987 24.6019 22.98 24.8919ZM7.862 15.1729C7.879 15.3859 7.847 15.6369 7.81 15.8889C7.776 16.1179 7.705 16.3369 7.592 16.5369C7.255 17.1319 6.737 17.4049 6.058 17.3609C5.404 17.3189 4.954 16.9759 4.692 16.3859C4.6239 16.2309 4.57552 16.068 4.548 15.9009C4.46527 15.3761 4.46628 14.8414 4.551 14.3169C4.58245 14.1258 4.64387 13.9408 4.733 13.7689C4.91563 13.3881 5.24126 13.0948 5.63903 12.9528C6.0368 12.8109 6.47454 12.8318 6.857 13.0109C7.303 13.2109 7.575 13.5709 7.729 14.0229C7.822 14.2989 7.854 14.5879 7.862 14.8789C7.865 14.9629 7.862 15.0479 7.862 15.1729ZM7.132 15.1899C7.132 15.0419 7.139 14.9329 7.132 14.8259C7.11 14.5119 7.055 14.2089 6.895 13.9269C6.582 13.3729 5.771 13.3689 5.465 13.9219C5.376 14.0819 5.301 14.2449 5.271 14.4239C5.19159 14.8882 5.19159 15.3626 5.271 15.8269C5.304 16.0179 5.383 16.1929 5.486 16.3589C5.823 16.9039 6.703 16.8609 6.964 16.2489C7.016 16.1259 7.062 16.0029 7.083 15.8709C7.12 15.6309 7.147 15.3929 7.132 15.1909V15.1899ZM28.663 26.8199C28.597 26.8189 28.554 26.8649 28.506 26.8999C28.146 27.1629 27.742 27.1899 27.327 27.0999C27.009 27.0319 26.799 26.8159 26.666 26.5279C26.5751 26.3292 26.5202 26.1158 26.504 25.8979C26.4945 25.7654 26.4902 25.6327 26.491 25.4999V23.1069C26.491 23.0109 26.491 22.9139 26.501 22.8169C26.504 22.7899 26.54 22.7659 26.564 22.7419C26.572 22.7349 26.587 22.7349 26.599 22.7349C26.791 22.7369 26.985 22.7049 27.175 22.7569C27.274 22.9249 27.217 23.1089 27.218 23.2829C27.225 24.0449 27.223 24.8059 27.22 25.5679C27.22 25.7629 27.233 25.9539 27.31 26.1369C27.424 26.4089 27.615 26.5199 27.913 26.4839C28.021 26.4719 28.131 26.4649 28.229 26.4119C28.512 26.2549 28.692 26.0429 28.688 25.6939C28.679 24.8359 28.685 23.9779 28.685 23.1199C28.685 23.0229 28.685 22.9259 28.69 22.8299C28.693 22.7749 28.73 22.7469 28.783 22.7379C28.8068 22.7336 28.8309 22.7316 28.855 22.7319C29.512 22.7419 29.398 22.6329 29.402 23.2489C29.408 24.3839 29.403 25.5209 29.403 26.6569L29.402 26.9469C29.4 27.0169 29.364 27.0609 29.292 27.0639C29.1834 27.0686 29.0747 27.0706 28.966 27.0699C28.742 27.0679 28.742 27.0669 28.664 26.8189L28.663 26.8199ZM27.239 13.3159C27.336 13.2369 27.406 13.1729 27.482 13.1189C27.634 13.0075 27.8085 12.9306 27.9933 12.8935C28.1781 12.8563 28.3687 12.8599 28.552 12.9039C28.883 12.9739 29.116 13.1759 29.249 13.4839C29.339 13.6959 29.397 13.9189 29.403 14.1519C29.41 14.4169 29.413 14.6839 29.413 14.9489C29.415 15.6019 29.413 16.2549 29.413 16.9089C29.413 16.9929 29.415 17.0779 29.411 17.1619C29.407 17.2509 29.354 17.2889 29.269 17.2889H29.233C28.59 17.2789 28.689 17.3799 28.684 16.7659C28.679 15.9919 28.684 15.2179 28.682 14.4439C28.682 14.2989 28.683 14.1539 28.644 14.0129C28.518 13.5509 28.034 13.3629 27.643 13.6409C27.379 13.8289 27.206 14.0689 27.214 14.4289C27.232 15.2509 27.22 16.0739 27.22 16.8959C27.22 16.9919 27.218 17.0889 27.212 17.1849C27.209 17.2369 27.176 17.2719 27.122 17.2809C27.11 17.2819 27.098 17.2869 27.086 17.2869C26.398 17.2809 26.506 17.3909 26.504 16.7639C26.498 15.6279 26.502 14.4909 26.502 13.3539C26.502 13.2579 26.502 13.1599 26.507 13.0639C26.51 13.0129 26.534 12.9649 26.59 12.9639C26.759 12.9579 26.928 12.9589 27.097 12.9609C27.156 12.9609 27.177 13.0129 27.19 13.0579C27.21 13.1339 27.22 13.2119 27.24 13.3149L27.239 13.3159ZM9.489 13.2899C9.587 13.2659 9.643 13.1799 9.719 13.1229C10.031 12.8929 10.379 12.8289 10.753 12.8959C10.9096 12.9195 11.0578 12.9823 11.1836 13.0784C11.3095 13.1746 11.409 13.301 11.473 13.4459C11.593 13.7029 11.653 13.9759 11.655 14.2539C11.663 15.1979 11.658 16.1429 11.658 17.0859C11.6574 17.1221 11.6544 17.1581 11.649 17.1939C11.642 17.2509 11.603 17.2739 11.551 17.2819C11.5272 17.2862 11.5032 17.2886 11.479 17.2889C10.837 17.2789 10.935 17.3859 10.931 16.7679C10.925 15.9929 10.929 15.2179 10.93 14.4439C10.93 14.2869 10.925 14.1309 10.877 13.9779C10.755 13.5929 10.379 13.4029 10.014 13.5779C9.694 13.7309 9.471 13.9659 9.476 14.3629C9.486 15.1989 9.479 16.0329 9.478 16.8689C9.478 16.9529 9.481 17.0389 9.477 17.1229C9.471 17.2639 9.45 17.2899 9.299 17.2889C8.655 17.2809 8.753 17.3889 8.749 16.7689C8.745 15.6319 8.748 14.4939 8.748 13.3559C8.748 13.2599 8.748 13.1629 8.753 13.0659C8.756 12.9959 8.799 12.9599 8.87 12.9579C9.003 12.9559 9.136 12.9539 9.27 12.9559C9.409 12.9589 9.411 12.9639 9.433 13.0939C9.444 13.1599 9.409 13.2409 9.489 13.2899ZM18.57 17.0349C18.501 17.0299 18.463 17.0839 18.417 17.1179C18.092 17.3519 17.73 17.4009 17.345 17.3419C16.965 17.2839 16.707 17.0639 16.56 16.7159C16.4546 16.4707 16.3991 16.2068 16.397 15.9399C16.392 15.0099 16.394 14.0769 16.396 13.1459C16.396 12.9789 16.418 12.9599 16.583 12.9559C16.716 12.9529 16.85 12.9559 16.983 12.9559C17.073 12.9559 17.111 13.0099 17.111 13.0949C17.113 13.1909 17.113 13.2889 17.113 13.3849V15.5259C17.113 15.7679 17.123 16.0069 17.18 16.2459C17.258 16.5699 17.52 16.8059 17.956 16.6909C18.075 16.6655 18.187 16.6143 18.284 16.5409C18.467 16.3899 18.585 16.2159 18.581 15.9539C18.568 15.1079 18.576 14.2609 18.576 13.4139C18.576 13.3299 18.578 13.2449 18.576 13.1599C18.573 12.9879 18.6 12.9509 18.786 12.9549C19.392 12.9679 19.303 12.8579 19.306 13.4659C19.31 14.6029 19.306 15.7399 19.306 16.8759C19.306 16.9729 19.308 17.0699 19.304 17.1659C19.3 17.2329 19.267 17.2809 19.194 17.2849C19.0974 17.2886 19.0007 17.2899 18.904 17.2889C18.671 17.2889 18.672 17.2879 18.598 17.0559C18.595 17.0459 18.58 17.0409 18.571 17.0339L18.57 17.0349ZM15.462 14.1929H14.997C14.791 14.1899 14.79 14.1899 14.712 13.9729C14.537 13.4899 14.073 13.4349 13.73 13.5729C13.378 13.7159 13.276 14.2699 13.634 14.4929C13.81 14.6029 13.994 14.6909 14.184 14.7709C14.442 14.8789 14.694 14.9939 14.934 15.1359C15.397 15.4069 15.578 15.8159 15.501 16.3309C15.426 16.8409 15.103 17.1489 14.624 17.2919C14.2614 17.3995 13.8749 17.3963 13.514 17.2829C13.256 17.2083 13.0268 17.0571 12.8567 16.8492C12.6867 16.6413 12.5839 16.3866 12.562 16.1189C12.554 16.0319 12.593 15.9829 12.686 15.9799C12.843 15.9759 13 15.9799 13.159 15.9769C13.229 15.9769 13.275 16.0049 13.294 16.0709C13.314 16.1409 13.324 16.2139 13.348 16.2809C13.409 16.4459 13.516 16.5759 13.678 16.6499C13.933 16.7659 14.198 16.7719 14.453 16.6649C14.833 16.5049 14.904 16.0499 14.596 15.7749C14.432 15.6289 14.233 15.5349 14.036 15.4429C13.849 15.3549 13.66 15.2749 13.473 15.1879C13.407 15.1579 13.344 15.1219 13.281 15.0859C12.878 14.8559 12.662 14.5179 12.686 14.0449C12.711 13.5799 12.941 13.2369 13.349 13.0339C13.5709 12.9187 13.8172 12.8584 14.0673 12.8581C14.3173 12.8577 14.5638 12.9173 14.786 13.0319C15.236 13.2549 15.458 13.6399 15.462 14.1929ZM31.27 4.6639H30.603C30.577 4.5489 30.556 4.4339 30.525 4.3209C30.415 3.9229 30.185 3.7319 29.811 3.7209C29.397 3.7109 29.106 3.9039 28.98 4.2859C28.939 4.4109 28.91 4.5439 28.9 4.6759C28.865 5.1089 28.866 5.5449 28.898 5.9779C28.907 6.1099 28.935 6.2419 28.973 6.3679C29.081 6.7319 29.303 6.9099 29.677 6.9429C29.761 6.9509 29.847 6.9479 29.929 6.9389C30.0565 6.9283 30.1781 6.88102 30.2793 6.80276C30.3804 6.7245 30.4567 6.61861 30.499 6.4979C30.543 6.3869 30.565 6.2669 30.6 6.1399C30.81 6.0979 31.022 6.1179 31.235 6.1219C31.244 6.9069 30.698 7.5149 29.95 7.5719C29.7208 7.59254 29.4897 7.57325 29.267 7.5149C28.827 7.3959 28.526 7.1199 28.344 6.7109C28.2456 6.48946 28.1864 6.2526 28.169 6.0109C28.1333 5.55322 28.1343 5.09341 28.172 4.6359C28.197 4.3449 28.28 4.0669 28.425 3.8109C28.633 3.4429 28.947 3.2179 29.363 3.1349C29.5292 3.10189 29.6987 3.08847 29.868 3.0949C30.582 3.1159 31.102 3.5659 31.225 4.2699C31.245 4.3879 31.253 4.5079 31.272 4.6649L31.27 4.6639ZM23.847 1.3439C23.897 1.4739 23.874 1.5939 23.867 1.7139C23.856 1.9009 23.871 1.9809 23.616 1.9429C23.568 1.9359 23.519 1.9399 23.471 1.9429C23.241 1.9549 23.091 2.0729 23.005 2.2839C22.902 2.5409 22.932 2.8069 22.938 3.0719C22.938 3.1249 22.978 3.1579 23.032 3.1609C23.202 3.1659 23.371 3.1679 23.54 3.1729C23.61 3.1759 23.654 3.2149 23.655 3.2859C23.655 3.4289 23.675 3.5749 23.636 3.7229C23.459 3.7829 23.276 3.7449 23.098 3.7569C22.958 3.7669 22.938 3.7849 22.933 3.9329C22.929 4.0169 22.931 4.1019 22.931 4.1869V7.0869C22.931 7.1839 22.931 7.2809 22.927 7.3769C22.925 7.4469 22.888 7.4869 22.817 7.4949C22.794 7.4969 22.77 7.4999 22.746 7.4989C22.106 7.4859 22.206 7.6029 22.203 6.9769C22.197 6.0349 22.201 5.0919 22.201 4.1489C22.201 4.0529 22.201 3.9559 22.195 3.8589C22.1938 3.83442 22.1837 3.81122 22.1666 3.7937C22.1494 3.77619 22.1265 3.76558 22.102 3.7639C22.005 3.7569 21.908 3.75989 21.812 3.75489C21.649 3.74689 21.637 3.7339 21.632 3.5569C21.6305 3.4969 21.6305 3.43689 21.632 3.3769C21.637 3.1869 21.649 3.1769 21.841 3.1669C21.948 3.1609 22.079 3.2079 22.157 3.1329C22.249 3.0449 22.198 2.9029 22.2 2.7849C22.203 2.5669 22.21 2.3519 22.274 2.1399C22.442 1.5709 22.86 1.2629 23.501 1.2799C23.549 1.2819 23.597 1.2899 23.645 1.2999C23.715 1.3129 23.783 1.3299 23.849 1.3439H23.847ZM33.647 6.9129C33.647 7.0969 33.645 7.2409 33.647 7.3839C33.647 7.4739 33.595 7.5099 33.519 7.5309C33.341 7.5819 33.16 7.5939 32.979 7.5649C32.8585 7.54775 32.7442 7.50045 32.6469 7.42738C32.5495 7.3543 32.4721 7.25783 32.422 7.1469C32.312 6.9239 32.291 6.6859 32.291 6.4419V4.1569C32.29 3.7579 32.337 3.7469 31.906 3.7529L31.76 3.7509C31.69 3.7509 31.649 3.7149 31.64 3.6449C31.637 3.6219 31.637 3.5969 31.637 3.5729C31.639 3.1219 31.599 3.1689 32.008 3.1649C32.287 3.1619 32.288 3.1589 32.291 2.8829C32.294 2.6429 32.295 2.4029 32.297 2.1529C32.534 2.1159 32.747 2.1249 32.967 2.1469C33.017 2.3949 32.987 2.6369 32.993 2.8769C33.001 3.1589 32.998 3.1589 33.269 3.1669H33.342C33.649 3.1669 33.652 3.1409 33.648 3.4929C33.648 3.5419 33.648 3.5909 33.645 3.6379C33.639 3.7069 33.603 3.7479 33.531 3.7489C33.398 3.7529 33.265 3.7499 33.131 3.7569C33.051 3.7609 32.998 3.8059 32.997 3.8949C32.997 3.9429 32.994 3.9909 32.994 4.0399C32.994 4.7889 32.993 5.5389 32.996 6.2879C32.996 6.3959 33.007 6.5059 33.028 6.6109C33.077 6.8509 33.163 6.9189 33.398 6.9219C33.468 6.9219 33.54 6.9159 33.648 6.9109L33.647 6.9129ZM23.161 11.9379C23.161 12.2229 23.159 12.5009 23.161 12.7779C23.163 12.9299 23.18 12.9479 23.323 12.9529C23.433 12.9569 23.541 12.9529 23.65 12.9559C23.78 12.9599 23.812 12.9809 23.81 13.0949C23.81 13.5999 23.884 13.5349 23.412 13.5389L23.303 13.5409C23.219 13.5409 23.166 13.5769 23.162 13.6659C23.159 13.7149 23.159 13.7629 23.159 13.8119C23.159 14.5739 23.158 15.3359 23.161 16.0969C23.161 16.2059 23.169 16.3159 23.193 16.4209C23.244 16.6389 23.356 16.7159 23.585 16.7099C23.645 16.7079 23.705 16.6949 23.779 16.6849C23.841 16.8619 23.812 17.0399 23.803 17.2169C23.801 17.2439 23.768 17.2749 23.743 17.2969C23.726 17.3109 23.698 17.3119 23.674 17.3169C23.005 17.4919 22.554 17.1969 22.469 16.5469C22.4535 16.4272 22.4455 16.3066 22.445 16.1859C22.442 15.4599 22.444 14.7349 22.444 14.0089V13.7919C22.439 13.5459 22.438 13.5449 22.208 13.5419C22.123 13.5399 22.038 13.5429 21.953 13.5399C21.789 13.5339 21.779 13.5229 21.775 13.3429C21.773 13.2829 21.775 13.2229 21.775 13.1609C21.772 12.9879 21.8 12.9579 21.985 12.9529C22.126 12.9489 22.299 13.0189 22.403 12.9149C22.506 12.8109 22.427 12.6379 22.443 12.4969C22.466 12.3109 22.394 12.1159 22.496 11.9369C22.71 11.8899 22.924 11.9009 23.16 11.9389L23.161 11.9379ZM20.408 14.1799V11.5339C20.408 11.4369 20.411 11.3409 20.415 11.2439C20.418 11.1909 20.449 11.1569 20.503 11.1469C20.5267 11.1422 20.5508 11.1398 20.575 11.1399C21.219 11.1509 21.121 11.0349 21.123 11.6559C21.128 13.3839 21.125 15.1109 21.125 16.8389C21.125 16.9349 21.127 17.0319 21.123 17.1289C21.118 17.2529 21.09 17.2869 20.979 17.2889C20.834 17.2929 20.689 17.2919 20.544 17.2889C20.457 17.2879 20.411 17.2379 20.41 17.1529C20.408 17.0559 20.408 16.9589 20.408 16.8629V14.1779V14.1799ZM19.928 24.9079V23.0939C19.928 23.0089 19.928 22.9239 19.931 22.8399C19.934 22.7659 19.981 22.7349 20.049 22.7339C20.17 22.7329 20.291 22.7309 20.412 22.7329C20.578 22.7339 20.578 22.7359 20.64 22.9219C20.665 22.9969 20.706 23.0109 20.767 22.9479C20.8651 22.8394 20.9887 22.7571 21.1267 22.7085C21.2647 22.6599 21.4126 22.6467 21.557 22.6699C21.687 22.6869 21.715 22.7179 21.721 22.8589C21.725 22.9189 21.725 22.9799 21.721 23.0399C21.716 23.1479 21.76 23.2699 21.696 23.3599C21.622 23.4619 21.494 23.3859 21.392 23.3899C20.947 23.4119 20.662 23.7049 20.662 24.1659C20.657 25.0119 20.662 25.8589 20.66 26.7059C20.66 27.0869 20.703 27.0729 20.282 27.0719C19.894 27.0709 19.928 27.0959 19.927 26.7219V24.9079H19.928ZM19.39 5.3359V3.5219C19.39 3.4369 19.392 3.35189 19.398 3.26889C19.399 3.24448 19.4093 3.22136 19.4268 3.20427C19.4442 3.18717 19.4676 3.17738 19.492 3.1769C19.625 3.1689 19.758 3.1669 19.89 3.1669C20.056 3.1689 20.056 3.1709 20.11 3.3649C20.13 3.4419 20.18 3.4599 20.236 3.3989C20.3269 3.2926 20.4417 3.20949 20.5711 3.15645C20.7005 3.10341 20.8407 3.08197 20.98 3.0939C21.151 3.1059 21.192 3.1439 21.196 3.3119C21.2 3.4319 21.2 3.5529 21.196 3.6739C21.192 3.8189 21.176 3.8319 21.026 3.8329C20.965 3.8329 20.905 3.8269 20.845 3.8309C20.6554 3.83891 20.4759 3.91849 20.3427 4.05358C20.2095 4.18867 20.1324 4.36923 20.127 4.5589C20.116 4.8359 20.125 5.1149 20.125 5.3929V7.1349C20.125 7.2189 20.124 7.3039 20.12 7.3879C20.117 7.4589 20.074 7.4939 20.003 7.4969C19.9547 7.49831 19.9063 7.49898 19.858 7.4989C19.333 7.4929 19.392 7.5649 19.391 7.0409C19.388 6.4719 19.39 5.9039 19.39 5.3359ZM25.415 15.0899V16.9719C25.415 17.0439 25.413 17.1159 25.407 17.1879C25.402 17.2399 25.371 17.2809 25.316 17.2819C25.146 17.2869 24.978 17.2879 24.809 17.2859C24.742 17.2859 24.696 17.2479 24.689 17.1779C24.6849 17.118 24.6833 17.0579 24.684 16.9979V13.2349C24.684 13.1749 24.687 13.1149 24.691 13.0549C24.695 12.9989 24.731 12.9709 24.784 12.9629C24.796 12.9609 24.808 12.9579 24.819 12.9579C25.522 12.9709 25.404 12.8359 25.412 13.4989C25.419 14.0289 25.414 14.5609 25.414 15.0909L25.415 15.0899ZM25.474 11.8369C25.4742 11.9125 25.4542 11.9867 25.4159 12.052C25.3777 12.1172 25.3227 12.171 25.2567 12.2077C25.1906 12.2445 25.1159 12.2628 25.0404 12.2609C24.9648 12.259 24.8911 12.2369 24.827 12.1969C24.7532 12.1543 24.6992 12.0842 24.677 12.0019C24.6622 11.9437 24.6548 11.8839 24.655 11.8239C24.653 11.5459 24.811 11.3769 25.064 11.3829C25.304 11.3879 25.479 11.5829 25.474 11.8369Z" fill="#0E1DB0"/>
</g>
</svg>
