<svg width="17" height="16" viewBox="0 0 17 16" fill="none" xmlns="http://www.w3.org/2000/svg">
<path d="M12.5441 8.54791L5.71543 13.2759C5.61537 13.3451 5.49826 13.3857 5.37681 13.3931C5.25535 13.4005 5.13418 13.3746 5.02642 13.3181C4.91867 13.2615 4.82843 13.1766 4.76551 13.0725C4.70258 12.9683 4.66935 12.8489 4.66943 12.7272V3.27258C4.66935 3.1509 4.70258 3.03151 4.76551 2.92737C4.82843 2.82322 4.91867 2.73828 5.02642 2.68176C5.13418 2.62524 5.25535 2.59928 5.37681 2.60671C5.49826 2.61414 5.61537 2.65467 5.71543 2.72391L12.5441 7.45191C12.6327 7.51327 12.705 7.59517 12.755 7.69061C12.805 7.78604 12.8311 7.89218 12.8311 7.99991C12.8311 8.10765 12.805 8.21378 12.755 8.30922C12.705 8.40465 12.6327 8.48656 12.5441 8.54791Z" fill="white"/>
</svg>
