<svg width="48" height="43" viewBox="0 0 48 43" fill="none" xmlns="http://www.w3.org/2000/svg">
<path d="M47.3429 15.3705C47.3706 16.124 47.3197 16.8783 47.1912 17.6213C46.759 20.6716 44.7826 22.3461 42.0343 23.2197C39.6287 23.9781 37.1245 24.1222 34.6112 24.0903C34.5156 24.0903 34.4186 24.0903 34.3215 24.0812C34.1031 24.0615 33.9893 24.148 33.9726 24.374C33.9529 24.6258 34.1243 24.6015 34.2866 24.6182C35.9035 24.7699 37.5113 24.6667 39.1175 24.4847C40.607 24.3148 42.104 24.1813 43.5237 23.6338C44.4507 23.2617 45.33 22.7805 46.1432 22.2005C46.1902 22.4811 46.0764 22.6798 46.0097 22.88C45.6593 23.9538 45.3317 25.0383 44.684 25.9833C43.4949 27.7184 41.8022 28.4268 39.7455 28.4344C37.6887 28.4419 35.6654 28.0855 33.6374 27.7988C33.397 27.7722 33.158 27.7332 32.9215 27.682C32.5894 27.6017 32.4559 27.8337 32.4028 28.0552C32.3376 28.3267 32.6242 28.2705 32.7683 28.31C35.8777 29.1351 39.0204 29.6098 42.2269 29.1958C42.3315 29.3657 42.2102 29.4324 42.145 29.5128C41.6062 30.1982 41.0132 30.8393 40.3719 31.43C39.2828 32.4068 37.9663 32.5251 36.6012 32.4204C34.8311 32.2824 33.2249 31.5983 31.6399 30.8642C31.386 30.7607 31.1393 30.6406 30.9012 30.5047C30.5978 30.3136 30.3597 30.3713 30.2141 30.6564C30.0685 30.9416 30.4007 30.9734 30.5478 31.0644C32.6788 32.3658 34.9646 33.2546 37.4506 33.5929C37.5871 33.6111 37.7858 33.5732 37.8449 33.7218C37.9223 33.9114 37.7039 33.9872 37.5992 34.0873C35.72 35.9075 32.9261 36.1319 30.5372 34.6728C29.7554 34.1884 29.0413 33.6024 28.4137 32.93C28.2711 32.7784 28.165 32.475 27.8419 32.7541C27.5385 33.0089 27.7509 33.1712 27.8874 33.3608C29.1812 35.1491 30.93 36.2548 33.055 36.7963C33.0997 36.8113 33.1433 36.8296 33.1854 36.8509C33.1854 36.8873 33.2036 36.9358 33.1854 36.9449C32.239 37.6532 31.203 38.1583 30.0002 38.2175C29.1326 38.2584 28.4046 37.8701 27.7615 37.3196C27.0452 36.6905 26.4207 35.964 25.9065 35.1612C25.82 35.0292 25.8125 34.6698 25.4863 34.8579C25.2012 35.0201 25.1678 35.2325 25.3347 35.5434C26.0931 36.9935 27.0152 38.3009 28.309 39.3126C28.6352 39.5674 28.6003 39.6994 28.309 39.9102C26.974 40.8513 25.4857 41.5534 23.9104 41.9851C23.7858 42.0186 23.6541 42.0154 23.5312 41.976C22.0169 41.5642 20.5838 40.8974 19.2934 40.0042C18.7747 39.6372 18.7883 39.6281 19.257 39.2383C20.4678 38.2126 21.4496 36.944 22.1388 35.5146C22.2238 35.3432 22.3345 35.1809 22.1388 34.9928C21.9432 34.8048 21.8052 34.7229 21.6247 35.0217C21.1213 35.8509 20.4989 36.6016 19.7772 37.2498C18.5881 38.3237 17.2716 38.4769 15.8337 37.8413C15.2397 37.5832 14.6752 37.2618 14.1501 36.8827C14.93 36.698 15.6855 36.4221 16.4009 36.0606C17.6829 35.4312 18.7884 34.493 19.618 33.3305C19.7697 33.1181 19.888 32.9513 19.6089 32.7238C19.3298 32.4963 19.2312 32.7435 19.1068 32.8754C17.8661 34.2026 16.4388 35.1976 14.602 35.5237C12.7379 35.8559 11.162 35.3235 9.81671 34.0282C9.72871 33.9432 9.56181 33.8765 9.60281 33.7339C9.64371 33.5914 9.81821 33.6141 9.94101 33.5959C11.0914 33.4321 12.2246 33.164 13.3264 32.7951C14.6187 32.3582 15.8064 31.703 16.9803 31.025C17.1047 30.9522 17.4354 30.934 17.2625 30.6443C17.1335 30.4365 16.9591 30.306 16.6557 30.4562C15.636 30.9783 14.5837 31.4343 13.5054 31.8213C12.2435 32.2612 10.9557 32.516 9.61041 32.428C8.69821 32.3913 7.82451 32.0501 7.12891 31.4588C6.37831 30.784 5.69781 30.0349 5.09801 29.2231C5.96561 29.2686 6.72851 29.3323 7.49301 29.3444C10.0002 29.3808 12.4361 28.903 14.8478 28.2827C14.96 28.2523 15.1511 28.2448 15.0631 28.0521C14.9752 27.8595 14.9115 27.6259 14.5854 27.682C13.9787 27.7897 13.372 27.8732 12.7652 27.9596C10.8496 28.2341 8.93691 28.5436 6.98641 28.3964C4.71121 28.2235 3.18381 27.0177 2.23281 25.0141C1.82031 24.1043 1.49431 23.1577 1.25911 22.1868C1.77781 22.5053 2.19341 22.7723 2.62421 23.0195C4.11061 23.8795 5.75321 24.1996 7.43081 24.3846C9.30851 24.5924 11.1848 24.8214 13.0777 24.6151C13.2415 24.5985 13.5039 24.7259 13.5009 24.3876C13.4978 24.0494 13.2552 24.0737 13.0231 24.0843C10.7623 24.1628 8.50071 23.9559 6.29171 23.4685C4.86341 23.1666 3.52831 22.5269 2.39821 21.6028C0.752511 20.2378 0.242809 18.3752 0.130609 16.3473C0.115409 16.0773 0.130609 15.8043 0.130609 15.5419C0.233709 15.4736 0.292908 15.5419 0.350508 15.5904C2.51651 17.6941 5.17381 18.8939 8.01931 19.7387C9.52381 20.1735 11.0637 20.475 12.6212 20.6397C12.8123 20.6625 13.0762 20.8156 13.1156 20.4122C13.1444 20.0664 12.9306 20.0618 12.6955 20.036C9.86971 19.7327 7.20631 18.8712 4.67631 17.6092C2.66061 16.6112 1.06191 15.1672 0.330809 12.9588C-0.183391 11.3935 -0.0149913 9.81612 0.276209 8.24772C0.322509 8.24022 0.37001 8.24722 0.41221 8.26792C0.45431 8.28852 0.488909 8.32182 0.511309 8.36302C3.51901 12.1959 7.50361 14.5469 12.0873 15.9878C12.5423 16.1395 13.0201 16.2456 13.4796 16.3897C13.7208 16.4656 13.8346 16.3897 13.9134 16.1637C14.0044 15.9059 13.8376 15.8604 13.6647 15.7982C12.9478 15.5393 12.2354 15.2784 11.5276 15.0155C8.77461 14.0054 6.30081 12.522 4.30171 10.3773C2.19641 8.11582 1.61101 5.40842 2.44521 2.42642C2.69391 1.53002 3.30971 0.853517 3.89821 0.169517C3.97261 0.0830166 4.07721 0.120916 4.17131 0.124016C4.23951 0.730716 4.53981 1.25552 4.82501 1.77272C6.02321 3.94322 7.64011 5.80572 9.31161 7.62132C11.3001 9.78272 13.5919 11.5786 16.0506 13.1651C16.6952 13.5807 17.2958 14.0751 18.0299 14.3482C18.0299 14.5438 17.8889 14.6682 17.7873 14.8108C17.2241 15.5963 16.8227 16.4859 16.6063 17.4279C16.3899 18.37 16.3628 19.3456 16.5266 20.2981C16.6905 21.2507 17.042 22.1612 17.5607 22.9768C18.0794 23.7923 18.755 24.4967 19.5482 25.0489C19.6847 25.1445 19.8045 25.3007 20.0503 25.2628C19.7955 23.9541 19.9756 22.598 20.5629 21.4011C21.1696 20.1756 22.1313 19.2777 23.3705 18.5405C23.1187 18.4631 22.9837 18.4085 22.8441 18.3888C21.2242 18.0688 21.1636 16.1137 21.793 15.1839C21.8749 15.0626 21.9447 14.9109 22.0964 15.1263C22.8138 16.0773 23.8316 16.6536 24.8023 17.2877C25.9035 18.0051 26.9697 18.7589 27.6371 19.9374C27.7296 20.1013 27.8828 20.2969 27.7888 20.4713C27.6948 20.6458 27.4642 20.5153 27.3004 20.5077C26.3327 20.4668 25.4606 20.6185 24.9251 21.5573C24.1106 22.9846 24.6991 24.7774 26.2174 25.5389C26.3612 25.6226 26.5251 25.6653 26.6915 25.6623C26.8578 25.6594 27.0201 25.6109 27.1609 25.5222C28.0754 25.0343 28.8758 24.3578 29.5093 23.5373C30.1427 22.7169 30.5946 21.7712 30.835 20.763C31.0755 19.7548 31.0991 18.707 30.9042 17.6889C30.7093 16.6709 30.3004 15.7059 29.7045 14.8578C29.5953 14.7061 29.4345 14.5711 29.439 14.3558C29.5695 14.2966 29.706 14.2496 29.8288 14.1783C34.4459 11.4999 38.438 7.86662 41.5383 3.52152C42.2845 2.47492 43.0004 1.39802 43.3008 0.111816C43.5753 0.136116 43.7027 0.363616 43.8604 0.535016C45.3605 2.16702 45.5759 4.12372 45.2407 6.19712C44.8205 8.78622 43.2689 10.6078 41.2273 12.1261C39.0265 13.7703 36.5754 14.8866 33.9863 15.7421C33.8119 15.8012 33.4797 15.7588 33.5449 16.1228C33.5965 16.4155 33.7664 16.4565 34.0394 16.3821C36.1932 15.7936 38.2863 15.0747 40.2384 13.9553C42.5469 12.6251 44.6947 11.1023 46.4268 9.05012C46.5406 8.91512 46.6437 8.76952 46.759 8.63602C46.8742 8.50262 46.9213 8.31752 47.1518 8.21742C47.2914 8.47982 47.2747 8.77252 47.3156 9.04102C47.6857 11.4678 47.3551 13.7081 45.5835 15.5631C44.4247 16.7765 43.0217 17.6153 41.4761 18.2326C39.298 19.1032 37.0775 19.8237 34.7219 20.0527C34.4732 20.0755 34.3412 20.1468 34.3625 20.4334C34.3837 20.755 34.59 20.6867 34.7735 20.664C38.4092 20.2241 41.8629 19.2625 44.9828 17.2907C45.8419 16.745 46.634 16.1005 47.3429 15.3705Z" fill="#1E2D56"/>
<path d="M42.8524 0.0179967C30.1227 0.0139967 17.3935 0.0133975 4.66477 0.0164975C4.49797 0.0164975 4.30377 -0.0609027 4.17188 0.119597C4.24007 0.726297 4.54037 1.2511 4.82557 1.7683C6.02377 3.9434 7.64067 5.806 9.31217 7.6215C11.3007 9.7829 13.5925 11.5788 16.0512 13.1653C16.6958 13.5809 17.2964 14.0754 18.0306 14.3484C18.5614 13.9389 19.0013 13.4232 19.5579 13.0394C21.0281 12.0131 22.8252 11.5654 24.605 11.7821C26.3848 11.9987 28.022 12.8644 29.203 14.2134C29.2668 14.2862 29.332 14.3651 29.4427 14.3484C29.5731 14.2892 29.7096 14.2422 29.8325 14.1709C34.4496 11.4925 38.4417 7.8593 41.5419 3.5141C42.2882 2.4676 43.0041 1.3907 43.3044 0.104497C43.177 -0.0487032 43.0041 0.0179967 42.8524 0.0179967ZM15.5506 6.0107C15.3645 6.008 15.1867 5.9334 15.0543 5.8025C14.922 5.6716 14.8455 5.4946 14.8408 5.3085C14.847 5.1221 14.9229 4.9448 15.0535 4.8117C15.1841 4.6786 15.3599 4.5993 15.5461 4.5895C15.8616 4.5895 16.259 4.9884 16.2681 5.3191C16.2566 5.5043 16.1758 5.6783 16.0417 5.8065C15.9076 5.9347 15.7301 6.0076 15.5446 6.0107H15.5506ZM19.0771 6.2837C18.8186 6.2648 18.577 6.1478 18.4019 5.9566C18.2268 5.7655 18.1314 5.5146 18.1352 5.2554C18.1455 5.0119 18.2518 4.7825 18.4309 4.6173C18.61 4.4521 18.8473 4.3647 19.0908 4.3741C19.561 4.3863 20.0357 4.855 20.0327 5.3039C20.0221 5.7862 19.5291 6.2928 19.0711 6.2837H19.0771ZM25.1942 5.624C24.853 5.7893 24.7225 6.0289 24.8499 6.4036C24.9409 6.6705 24.7786 6.7069 24.5284 6.6675C24.1932 6.4824 23.9566 6.6356 23.7776 6.9708C23.6684 7.1756 23.5121 7.162 23.4272 6.9708C23.2755 6.625 23.0753 6.4749 22.687 6.5932C22.4656 6.6584 22.3215 6.5173 22.411 6.2898C22.5626 5.9197 22.3988 5.7225 22.0985 5.5481C21.8725 5.4177 21.9104 5.2705 22.138 5.1735C22.4898 5.0218 22.5505 4.7533 22.4595 4.4151C22.3685 4.0769 22.5187 4.0587 22.7629 4.1633C23.092 4.3074 23.3165 4.2058 23.4773 3.9039C23.6198 3.634 23.7715 3.6264 23.9111 3.9039C24.0506 4.1815 24.2599 4.3362 24.6103 4.2073C24.8332 4.1224 24.9819 4.2649 24.8924 4.4849C24.7407 4.8701 24.8924 5.0916 25.1958 5.2751C25.3884 5.3949 25.399 5.5223 25.1882 5.624H25.1942ZM28.3233 6.2853C28.199 6.2824 28.0766 6.2546 27.9632 6.2037C27.8498 6.1527 27.7477 6.0795 27.663 5.9885C27.5784 5.8975 27.5128 5.7904 27.4701 5.6736C27.4275 5.5568 27.4087 5.4326 27.4148 5.3085C27.4133 5.1845 27.4368 5.0616 27.4839 4.9469C27.5309 4.8323 27.6006 4.7282 27.6887 4.6411C27.7768 4.5539 27.8815 4.4853 27.9967 4.4395C28.1118 4.3936 28.235 4.3714 28.3589 4.3741C28.4828 4.3769 28.6049 4.4046 28.7179 4.4555C28.8309 4.5064 28.9325 4.5795 29.0166 4.6705C29.1008 4.7615 29.1658 4.8685 29.2077 4.9852C29.2496 5.1018 29.2676 5.2257 29.2607 5.3494C29.2617 5.4732 29.238 5.596 29.1908 5.7105C29.1437 5.825 29.0741 5.9289 28.9862 6.0162C28.8983 6.1034 28.7938 6.1721 28.6789 6.2183C28.564 6.2645 28.4411 6.2873 28.3173 6.2853H28.3233ZM31.9924 6.0107C31.8958 6.0158 31.7991 6.0014 31.7082 5.9684C31.6173 5.9353 31.5339 5.8843 31.4631 5.8183C31.3924 5.7524 31.3356 5.6728 31.2962 5.5844C31.2569 5.4961 31.2357 5.4007 31.234 5.3039C31.234 4.9672 31.6147 4.6032 31.9681 4.6032C32.0605 4.6055 32.1516 4.6262 32.2359 4.664C32.3203 4.7019 32.3963 4.7561 32.4595 4.8235C32.5227 4.891 32.5719 4.9703 32.6042 5.057C32.6365 5.1436 32.6513 5.2358 32.6476 5.3282C32.6509 5.4169 32.6362 5.5054 32.6044 5.5883C32.5726 5.6712 32.5243 5.7468 32.4626 5.8105C32.4008 5.8743 32.3267 5.9249 32.2449 5.9593C32.1631 5.9937 32.0751 6.0112 31.9863 6.0107H31.9924Z" fill="#CBAA97"/>
</svg>
