<svg width="96" height="18" viewBox="0 0 96 18" fill="none" xmlns="http://www.w3.org/2000/svg">
<mask id="mask0_4_128" style="mask-type:luminance" maskUnits="userSpaceOnUse" x="0" y="0" width="96" height="18">
<path d="M96 0H0V18H96V0Z" fill="white"/>
</mask>
<g mask="url(#mask0_4_128)">
<path d="M79.2431 17.7256C78.6755 17.7256 78.1077 17.7177 77.5404 17.7302C77.3645 17.7343 77.2915 17.6771 77.2388 17.5124C76.8937 16.4319 76.5331 15.3544 76.189 14.2727C76.1374 14.1101 76.0647 14.0666 75.8999 14.0683C73.7433 14.074 71.5864 14.074 69.4294 14.0683C69.2467 14.0683 69.1796 14.1317 69.1295 14.2964C68.807 15.3593 68.4664 16.4173 68.1486 17.482C68.0885 17.6832 67.9985 17.734 67.7983 17.7323C66.6793 17.7226 65.5603 17.7276 64.4416 17.7276C64.1696 17.7276 64.1693 17.7276 64.259 17.4753L68.9911 4.21211C69.3404 3.23391 69.6895 2.25581 70.0385 1.27791C70.3443 0.420614 70.9318 0.00651438 71.8382 0.00621438C72.7303 0.00621438 73.6221 0.0117128 74.5139 0.00151276C74.6921 -0.000487237 74.761 0.0599134 74.8196 0.221113C76.913 5.97131 79.0096 11.7203 81.11 17.468C81.203 17.7247 81.203 17.725 80.921 17.725L79.2431 17.7256ZM72.6717 3.62111C72.6374 3.67951 72.6321 3.68591 72.6295 3.69321C71.8342 6.09301 71.0386 8.49271 70.2426 10.8923C70.1696 11.1122 70.3191 11.0675 70.4308 11.0675C71.9145 11.0675 73.3978 11.0652 74.8815 11.0719C75.0811 11.0719 75.128 11.0407 75.0591 10.8342C74.4318 8.95572 73.8156 7.07331 73.1953 5.19271C73.0276 4.68201 72.8561 4.17421 72.6717 3.62111Z" fill="#EC1D25"/>
<path d="M54.1277 5.77656C54.4059 5.36776 54.67 5.02646 55.0033 4.74486C55.9866 3.91386 57.1501 3.66446 58.4016 3.70966C60.6123 3.79176 63.0276 5.67706 63.3351 8.35516C63.3939 8.82696 63.4258 9.30176 63.4307 9.77726C63.4307 12.3437 63.4324 14.91 63.4357 17.4761C63.4357 17.6668 63.4064 17.7339 63.1932 17.7313C62.1877 17.7179 61.1822 17.7196 60.177 17.7313C59.9896 17.7333 59.9547 17.6814 59.955 17.505C59.9615 15.205 59.9668 12.9051 59.955 10.6052C59.9509 9.83916 59.8932 9.07526 59.5232 8.37356C59.0668 7.50796 58.4142 6.90266 57.3896 6.83046C55.8239 6.72016 54.758 7.48516 54.33 9.00606C54.1947 9.48786 54.1265 9.98596 54.1274 10.4863C54.1274 12.8187 54.1245 15.151 54.1327 17.4831C54.1327 17.6834 54.0878 17.7339 53.8844 17.7316C52.8548 17.7196 51.8247 17.7225 50.7951 17.7298C50.6374 17.7298 50.5952 17.6907 50.5955 17.5318C50.5996 11.7618 50.5996 5.99166 50.5955 0.221558C50.5955 0.0571581 50.633 -0.00124092 50.8086 0.00315908C51.2946 0.0150591 51.7813 0.00715879 52.2679 0.00715879C53.3799 0.00715879 54.1227 0.742458 54.1262 1.85566C54.13 3.06606 54.1262 4.27656 54.1262 5.48726L54.1277 5.77656Z" fill="#010101"/>
<path d="M31.062 11.808C29.6507 11.808 28.2395 11.8118 26.8282 11.8037C26.621 11.8037 26.5735 11.8515 26.5996 12.06C26.6488 12.4525 26.6896 12.8447 26.8247 13.2194C27.3014 14.5407 28.272 15.0135 29.4754 14.9849C29.9628 14.9783 30.4416 14.8567 30.8726 14.6301C31.0872 14.5162 31.2763 14.3696 31.4041 14.1801C31.7409 13.6807 32.2138 13.488 32.7922 13.4877C33.5951 13.4877 34.3981 13.4924 35.2011 13.4836C35.3854 13.4816 35.3711 13.5566 35.333 13.6843C34.6614 15.9354 33.1616 17.3135 30.8679 17.8131C29.6164 18.085 28.3512 18.0718 27.1155 17.7077C25.4618 17.2203 24.2619 16.1623 23.6237 14.5854C22.6103 12.0822 22.5827 9.52238 23.6293 7.02738C24.4428 5.08398 26.0124 4.02978 28.1081 3.77318C29.3535 3.62128 30.5856 3.70278 31.7726 4.13438C33.6473 4.81568 34.7176 6.20768 35.2436 8.07248C35.566 9.21958 35.6062 10.3941 35.5863 11.5747C35.583 11.7619 35.5077 11.8136 35.3195 11.8124C33.9009 11.8042 32.4803 11.808 31.062 11.808ZM29.2312 9.48299H31.3235C31.8629 9.48299 31.8702 9.48299 31.7858 8.95879C31.6949 8.39519 31.5293 7.85698 31.1212 7.43098C30.2837 6.55668 28.6367 6.44888 27.6359 7.19558C26.9405 7.71418 26.6825 8.44569 26.5978 9.26889C26.5788 9.45319 26.6312 9.48589 26.7983 9.48439C27.6092 9.47919 28.4201 9.48299 29.2312 9.48299Z" fill="#010101"/>
<path d="M16.6737 10.4373C16.6737 8.105 16.6705 5.7723 16.679 3.44C16.679 3.2151 16.6383 3.1433 16.3941 3.1453C14.821 3.1582 13.2479 3.1491 11.6743 3.1555C11.4951 3.1555 11.4257 3.1263 11.4283 2.924C11.4409 2.0202 11.4386 1.1161 11.4298 0.212301C11.4298 0.039401 11.4799 -0.000298317 11.6476 1.68264e-06C15.7023 0.00470168 19.7569 0.00620139 23.8115 0.00470139C24.8038 0.00470139 25.6112 0.824702 25.6276 1.8377C25.6332 2.1925 25.6159 2.5484 25.6332 2.9027C25.6431 3.1018 25.5901 3.1582 25.3846 3.1567C23.9979 3.1474 22.6113 3.1518 21.2247 3.1518C20.9902 3.1518 20.7556 3.1585 20.5193 3.1494C20.3889 3.1442 20.3435 3.1921 20.3558 3.3162C20.3587 3.3726 20.3587 3.4291 20.3558 3.4855C20.3558 8.1424 20.3576 12.7992 20.3613 17.4557C20.3613 17.6811 20.2995 17.7299 20.0828 17.7275C19.0288 17.7163 17.9747 17.7163 16.9203 17.7275C16.7242 17.7296 16.6667 17.6908 16.6673 17.4831C16.6772 15.1344 16.6737 12.7857 16.6737 10.4373Z" fill="#010101"/>
<path d="M47.3024 8.19198C46.7996 8.19198 46.2963 8.18168 45.7941 8.19658C45.5848 8.20308 45.4649 8.15048 45.3646 7.95218C44.5584 6.35868 42.1546 6.40038 41.2209 7.43798C40.7612 7.94808 40.5416 8.56838 40.4329 9.22628C40.2206 10.5112 40.2016 11.799 40.6017 13.0558C41.2358 15.0486 43.102 15.2906 44.5197 14.7311C44.8463 14.6021 45.1043 14.3883 45.3189 14.1211C45.6727 13.6805 46.1242 13.4743 46.6926 13.4836C47.4709 13.4962 48.2496 13.4915 49.0279 13.4836C49.2135 13.4816 49.2442 13.5274 49.1906 13.7026C48.4612 16.0829 46.8424 17.4551 44.3981 17.8709C43.2354 18.0689 42.0713 18.0403 40.9347 17.6928C39.1318 17.1417 37.9235 15.9313 37.3152 14.1924C36.5424 11.9815 36.521 9.72448 37.2888 7.50278C38.1037 5.14588 40.1063 3.76498 42.6116 3.71708C43.6901 3.69608 44.7452 3.79148 45.7598 4.17988C47.4056 4.80978 48.3953 6.04128 48.9666 7.65258C49.1575 8.19048 49.1513 8.19278 48.5917 8.19278L47.3024 8.19198Z" fill="#010101"/>
<path d="M90.294 7.79399C90.294 5.28469 90.297 2.77529 90.289 0.266293C90.289 0.0516931 90.341 -0.00670635 90.556 0.000593649C91.066 0.0174936 91.577 0.00589253 92.088 0.00609253C93.096 0.00609253 93.87 0.769493 93.878 1.77659C93.884 2.45439 93.891 3.13249 93.873 3.80969C93.867 4.04329 93.946 4.08449 94.157 4.07919C94.699 4.06519 95.241 4.07919 95.786 4.07099C95.943 4.06869 95.995 4.10929 95.991 4.27189C95.981 4.78009 95.958 5.29049 95.993 5.79659C96.067 6.83819 95.28 7.68999 94.174 7.67049C93.925 7.66579 93.871 7.73289 93.873 7.97409C93.884 9.87839 93.879 11.7824 93.879 13.6866C93.879 14.3504 94.157 14.6348 94.832 14.6657C94.994 14.673 95.158 14.6684 95.316 14.6982C95.749 14.7805 95.961 15.0013 95.975 15.4393C95.996 16.1568 95.981 16.8752 95.99 17.5932C95.99 17.7299 95.915 17.7258 95.822 17.7319C94.778 17.7982 93.734 17.7643 92.691 17.696C92.417 17.6779 92.14 17.6709 91.87 17.6084C90.984 17.4022 90.451 16.7674 90.334 15.7792C90.305 15.539 90.291 15.2972 90.292 15.0553C90.294 12.6349 90.295 10.2144 90.294 7.79399Z" fill="#EC1D25"/>
<path d="M85.265 13.8549C85.265 15.0735 85.262 16.2924 85.269 17.511C85.269 17.6754 85.235 17.7306 85.058 17.7294C83.979 17.721 82.901 17.721 81.822 17.7294C81.667 17.7294 81.619 17.6938 81.619 17.532C81.628 15.2075 81.605 12.8828 81.639 10.5589C81.662 8.98523 82.063 7.51233 83.089 6.26333C83.927 5.24133 85.038 4.66923 86.3 4.34273C87.264 4.09303 88.244 4.00253 89.237 4.01653C89.36 4.01833 89.405 4.04783 89.404 4.17833C89.4 5.29213 89.4 6.40593 89.404 7.51993C89.404 7.68953 89.324 7.69223 89.197 7.69513C88.638 7.70563 88.076 7.64753 87.52 7.73223C86.071 7.95323 85.345 8.76183 85.272 10.2245C85.269 10.2727 85.265 10.3212 85.265 10.3706C85.265 11.5312 85.265 12.6927 85.265 13.8549Z" fill="#EC1D25"/>
<path d="M5.73107 11.1774C5.73107 9.08692 5.73427 6.99662 5.72577 4.90602C5.72577 4.69402 5.77597 4.63972 5.98967 4.64322C7.09247 4.65522 8.19567 4.65142 9.29847 4.64562C9.44917 4.64562 9.50367 4.67332 9.50367 4.84002C9.49937 9.06942 9.49957 13.2983 9.50427 17.5268C9.50427 17.6815 9.46847 17.7297 9.30607 17.7286C8.18717 17.7213 7.06787 17.7195 5.94857 17.7286C5.75627 17.7306 5.72697 17.6669 5.72727 17.4949C5.73297 15.3903 5.73417 13.2844 5.73107 11.1774Z" fill="#EC1D25"/>
<path d="M3.81458 6.55832C3.81458 7.11492 3.80928 7.67182 3.81778 8.22812C3.82018 8.38572 3.79438 8.45382 3.61258 8.45262C2.47778 8.44392 1.34268 8.44562 0.207875 8.45262C0.0545753 8.45262 -0.00172379 8.41902 -2.37857e-05 8.25432C0.00877621 7.52052 -0.004723 6.78612 0.006177 6.05192C0.020277 5.12042 0.487276 4.66112 1.42508 4.65032C2.15468 4.64242 2.88438 4.65522 3.61378 4.64412C3.79548 4.64152 3.82188 4.70692 3.81898 4.86522C3.80928 5.42882 3.81458 5.99352 3.81458 6.55832Z" fill="#EC1D25"/>
<path d="M1.90928 17.7257C1.34168 17.7257 0.773879 17.7213 0.206579 17.7286C0.0573792 17.7301 -0.0012207 17.7024 -0.0012207 17.5342C0.0069793 16.4286 0.0069793 15.3231 -0.0012207 14.2177C-0.0012207 14.0548 0.0512784 14.0171 0.205978 14.0171C1.34108 14.0229 2.47628 14.0229 3.61158 14.0171C3.76548 14.0171 3.81978 14.0524 3.81858 14.216C3.81158 15.3215 3.81158 16.4271 3.81858 17.5327C3.81858 17.7 3.75998 17.7292 3.61128 17.7272C3.04438 17.7205 2.47678 17.7257 1.90928 17.7257Z" fill="#EC1D25"/>
<path d="M7.59668 3.1539H5.92068C5.82488 3.1539 5.72428 3.17669 5.72638 3.01899C5.73428 2.41449 5.70528 1.8083 5.74448 1.2061C5.79498 0.430296 6.23588 0.026995 7.02088 0.00889499C7.78928 -0.00720501 8.55908 0.00859583 9.32868 0.00389583C9.45558 0.00389583 9.49608 0.0426957 9.49548 0.169496C9.49108 1.1127 9.48958 2.05589 9.49548 2.99909C9.49548 3.16239 9.40748 3.15569 9.29698 3.15539C8.73058 3.15389 8.16368 3.1539 7.59668 3.1539Z" fill="#EC1D25"/>
</g>
</svg>
