<svg width="38" height="42" viewBox="0 0 38 42" fill="none" xmlns="http://www.w3.org/2000/svg">
<mask id="mask0_4_231" style="mask-type:luminance" maskUnits="userSpaceOnUse" x="0" y="0" width="38" height="42">
<path d="M37.5295 0H0.470703V42H37.5295V0Z" fill="white"/>
</mask>
<g mask="url(#mask0_4_231)">
<path d="M12.4799 0C13.0146 0.212 13.1943 0.6071 13.1936 1.1647C13.1843 8.5914 13.1843 16.0182 13.1936 23.445C13.1953 24.9568 13.3892 26.4438 13.9606 27.8627C14.6227 29.5075 15.7389 30.6866 17.5103 31.1784C19.6927 31.7841 22.6448 31.1225 23.947 28.0863C24.4208 26.9816 24.6631 25.8268 24.7506 24.6383C24.8756 22.9364 24.7912 21.2313 24.8042 19.5277C24.8059 19.292 24.8734 19.2441 25.0995 19.2446C29.145 19.2513 33.1905 19.2513 37.236 19.2446C37.4619 19.2446 37.5316 19.2928 37.5294 19.5267C37.505 21.1891 37.5639 22.8516 37.469 24.5128C37.3133 27.2449 36.8627 29.9176 35.848 32.482C34.3311 36.3152 31.6278 38.9735 27.7379 40.4568C25.5619 41.2849 23.3091 41.7547 20.987 41.9246C17.9046 42.1503 14.8733 41.8798 11.9051 41.0122C10.0645 40.4742 8.33273 39.7059 6.77233 38.5913C4.49853 36.967 3.03663 34.7559 2.05033 32.2066C1.30413 30.285 0.895325 28.2853 0.672325 26.2443C0.503125 24.6973 0.472526 23.1452 0.473526 21.5905C0.478226 14.782 0.476628 7.9734 0.468628 1.1649C0.468628 0.6064 0.648828 0.2135 1.18133 0H12.4799Z" fill="#1F3E79"/>
<path d="M27.5954 0C27.5401 0.6467 27.6355 1.282 27.7619 1.9118C28.5876 6.0245 32.003 9.171 36.2284 9.7126C36.5816 9.7573 36.9372 9.7807 37.2932 9.7825C37.491 9.784 37.5267 9.8473 37.5262 10.0278C37.5199 12.1994 37.5199 14.371 37.5262 16.5425C37.5262 16.7579 37.4812 16.8189 37.2521 16.8182C33.9106 16.8098 30.5698 16.8079 27.2296 16.8124C26.5005 16.8124 25.7712 16.8088 25.0421 16.8153C24.8797 16.817 24.8034 16.7941 24.8034 16.6028C24.8091 11.4077 24.8106 6.2125 24.8078 1.0172C24.8078 0.4985 25.0951 0.1867 25.5585 0H27.5954Z" fill="#1F3E79"/>
<path d="M36.6293 0.000122593C36.7053 -0.00157741 36.7807 0.0144223 36.8493 0.0469223C36.8738 0.0596223 36.9056 0.0637224 36.9307 0.0758224C37.3183 0.261822 37.521 0.564922 37.5212 0.991322C37.5212 3.04402 37.5193 5.09702 37.5266 7.14972C37.5266 7.34252 37.4532 7.36272 37.2894 7.35962C33.9816 7.29772 30.9676 4.87132 30.2439 1.68662C30.1214 1.13222 30.0527 0.567423 30.0388 0.000122593H36.6293Z" fill="#EE7F1B"/>
</g>
</svg>
